<mxfile host="Electron" modified="2024-04-23T16:02:52.997Z" agent="Mozilla/5.0 (X11; Linux x86_64) AppleWebKit/537.36 (KHTML, like Gecko) draw.io/24.2.5 Chrome/120.0.6099.109 Electron/28.1.0 Safari/537.36" etag="eAwOYaE47sPbKtS47jQJ" version="24.2.5" type="device">
  <diagram name="Page-1" id="nPc6bkSUOsnPmHz3zicJ">
    <mxGraphModel dx="819" dy="479" grid="1" gridSize="10" guides="1" tooltips="1" connect="1" arrows="1" fold="1" page="1" pageScale="1" pageWidth="850" pageHeight="1100" math="0" shadow="0">
      <root>
        <mxCell id="0" />
        <mxCell id="1" parent="0" />
        <mxCell id="B4FxssP8waqyMT1EyRX9-6" style="edgeStyle=orthogonalEdgeStyle;rounded=0;orthogonalLoop=1;jettySize=auto;html=1;entryX=0;entryY=0.5;entryDx=0;entryDy=0;strokeWidth=2;" edge="1" parent="1" source="B4FxssP8waqyMT1EyRX9-1" target="B4FxssP8waqyMT1EyRX9-2">
          <mxGeometry relative="1" as="geometry" />
        </mxCell>
        <mxCell id="B4FxssP8waqyMT1EyRX9-1" value="&lt;b&gt;&lt;font style=&quot;font-size: 16px;&quot;&gt;Databases&lt;/font&gt;&lt;/b&gt;" style="shape=cylinder3;whiteSpace=wrap;html=1;boundedLbl=1;backgroundOutline=1;size=15;strokeWidth=2;fillColor=#e1d5e7;strokeColor=#9673a6;" vertex="1" parent="1">
          <mxGeometry x="80" y="112.5" width="100" height="115" as="geometry" />
        </mxCell>
        <mxCell id="B4FxssP8waqyMT1EyRX9-7" style="edgeStyle=orthogonalEdgeStyle;rounded=0;orthogonalLoop=1;jettySize=auto;html=1;entryX=0;entryY=0.5;entryDx=0;entryDy=0;strokeWidth=2;" edge="1" parent="1" source="B4FxssP8waqyMT1EyRX9-2" target="B4FxssP8waqyMT1EyRX9-5">
          <mxGeometry relative="1" as="geometry" />
        </mxCell>
        <mxCell id="B4FxssP8waqyMT1EyRX9-2" value="&lt;b&gt;&lt;font style=&quot;font-size: 16px;&quot;&gt;Data analysis&lt;/font&gt;&lt;/b&gt;" style="shape=process;whiteSpace=wrap;html=1;backgroundOutline=1;strokeWidth=2;fillColor=#d5e8d4;strokeColor=#82b366;" vertex="1" parent="1">
          <mxGeometry x="240" y="140" width="120" height="60" as="geometry" />
        </mxCell>
        <mxCell id="B4FxssP8waqyMT1EyRX9-5" value="" style="shape=image;verticalLabelPosition=bottom;labelBackgroundColor=default;verticalAlign=top;aspect=fixed;imageAspect=0;image=data:image/png,iVBORw0KGgoAAAANSUhEUgAAB2wAAAOZCAYAAADS6tB5AAAABHNCSVQICAgIfAhkiAAAABl0RVh0U29mdHdhcmUAZ25vbWUtc2NyZWVuc2hvdO8Dvz4AAAAmdEVYdENyZWF0aW9uIFRpbWUAbWFyIDIzIGFiciAyMDI0IDE3OjQ2OjM5XD52TQAAIABJREFUeJzs3Xd0lUXixvHnvS2NFAg1oYYiXYpUBQsoAv4UO2LFvvYGFpRV7Kuiu6vYFSyrYm8ovfdeBAkdUkhCOmm3/v5gyRLve0MSklzK93NOzoaZd8q9mU08eTIzRk5eoU8AgKOKjgwL9hQAAAAAAAAAAMBJxhLsCQAAAAAAAAAAAADAqYrAFgAAAAAAAAAAAACChMAWAAAAAAAAAAAAAIKEwBYAAAAAAAAAAAAAgoTAFgAAAAAAAAAAAACChMAWAAAAAAAAAAAAAIKEwBYAAAAAAAAAAAAAgoTAFgAAAAAAAAAAAACChMAWAAAAAAAAAAAAAILEFuwJAAAAAAAAAAAAAMCJKjc3Tx98+KkMQ7rt1hsVGVmnUu0JbAEAAAAAAAAAAACgit57f7K++PJbSZLNZtN9995RqfYciQwAAAAAAAAAAADguDLh2X/o9TcmBXsaFWIYRunnbre70u3ZYQvghJORnqFfp/2uG2+8rsw3wSP5fD5NmfKZhg0booYNG9byDAEAAAAAAAAAOPndeddDWrt2gywWiyIiwtXrjB66+65b1bRpXLCnVqtuveUGeb1eORwO3Tz6ukq3Z4ctgBPOTz//qilTPtdLL70mn8/nV+/z+fTSS69pypTP9csvvwdhhgAAAAAAAAAAnBoeevAuLVk0XZ9OeVdhYaG64aY7lZ5+INjTqlUxMdEaO+Z+PXD/3xQVFVnp9gS2AE44N998o4YOHaIZM2ZpwoQX5PV6S+s8Ho8mTHhBM2bM0tChQzR69PVBnCkAAAAAAAAAACc/wzDUpEkjjX9qrFq2aK5PPv2itG7TH1t0w413avAFI3Tb7fcrKSlFkjRt2gzdcecDembCy7px9N906WXX6Ztvfww4RmZmlsaMHa8BA4dq6PAr9Z8vvpEk7duXrL79z1d+/sHSZ7/+5kfd/8BjNfRq/eXm5um1iW9p4utvlZlHRXEkMoATjmEYGjPmAbldLs2cNUcul1tPPz1OkvTkuKe1fMUqnT/4PI0Z80DAI5MBAAAAAAAAAED1GzRooH79dYYkKT39gO67/1E9O2GczuzfR7/8Ol1PjX9eH3/0liQpMXGH7r7rNnXt2klJSSm6+prR6tqlk9q1a1OmT5/Pp3vvG6uOndpr5ozvlZySqnvuGaOwsFBdOuIidencUTNnzdNll14kSZo3b6GGDbug1l7ze+9P1hdffitJstlsuu/eOyrVnh22AE5IhmHosccf0fnnD9LixUs1fvyzGv/UBC1fsUpDhpyvxx5/hLAWAAAAAAAAAIBaVr9+rPLy8yVJv06brl69eujM/n0kSRcNH6I9e/fp4MECSVJcfBN17dpJktS0aZx69+qphYuW+vW5ceNm7dq9V488dI9CQ0PVOqGVbrxxlL7+5tCO3BEjhuu332ZKkgoKCrRhwx865+wza/y1HnZkHuF2uyvdnh22AE5YFotFjz32sJxOp+bPXyhJOvvsARo79kFZLPw9CgAAAAAAAAAAtS0tLUMxMdH//Txdq1ev08hRt5TWOxx25eXlm7aNiopUdnaOf5/pGWrQIFahoaGlZc2bNVV6eoYkafCgs/XKq/9SWlq61q3fqF69eigiIqI6X1a5br3lBnm9XjkcDt08+rpKtyewBQAAAAAAAAAAAHDMfD6fZsycozN6dpckNWrUUN27ddUr/5jg9+y6dRv8yrbv2KVhQwf7lTdq2EAHDmSpuLi4NLTdl5SkRo0aSpJCQkJ0wfnnacbMufrzz0RdcMF51fmyjiomJlpjx9xf5fZsQQNwwvJ6vXrpxVc1f/5C9evbW/369tb8+Qv10kuvyev1Bnt6AAAAAAAAAACcEnw+n1JS9uvvT7+o/fvTdd21V0mShg27QCtXrdFvv8+S1+tVQUGBtmzZWtouJSVVK1asltPp0tSp32vvnn264PxDYavVapXT6ZIkdenSUS1bNNPE1yeppKREu3bt0ZRPvtQVl19c2teIS4br9+mztWbNeg0c0L8WX72Um5un1ya+pYmvv6X8/IOVbk9gC+CEdDisnTlrjs48s58mPDteE54drz69z9DMmbP10ouvyufzBXuaAAAAAAAAAACc1Ca+Pkn9zrxA191wu1wut6Z8PEn168dKOrQz9s1//UNTp36vs8+9SKOuu01r1/5vZ23dujH64cdfNfiCS/TNtz/qjTdeVIMG9SVJ/fv11k8/T1Ni4nYZhqF//fNlZWZmafD5I3TX3Q9r1DVX6NIRF5X21bHjaXK73erSpZPCw8Nq9T147/3J+vw/U/XZ51P18eTPK92eI5EBnHB8Pl9pWHvOOQP01FOPl95Z+/wLz+i5517SzFlzZLPbNXbsg0GeLQAAAAAAAAAAJ6d3Jk086jOdO3fUxx+9ZVoXER6uF54fb1p37rkDtHjh9NJ/168fq9defa7csSLCw3XhkEFHnVN1Mwyj9HO3213p9gS2AE44H3wwWTNnzdGFQy/Q2DEPlvlGaLVaNX78EwoNfV2//TZdDRrU1+jR1wdxtgAAAAAAAAAAwIy3mk7K9Pl8mjVrnjKzsnTOOWdVS5+VcestN8jr9crhcOjm0ddVuj2BLYATzsUXD5fD4dANN4wqE9YeZhiGxo59UI0aNdTw4RcGYYYAAAAAAAAAAKC2DLvoKoWGhGjia8+XnshZm2JiojV2zP1Vbm/k5BVyySMAVEB0ZO2eeQ8AAAAAAAAAAE5+tR8xAwAAAAAAAAAAAAAkEdgCAAAAAAAAAAAAQNAQ2AIAAAAAAAAAAABAkBDYAgAAAAAAAAAAAECQENgCAAAAAAAAAAAAQJAQ2AIAAAAAAAAAAABAkBDYAgAAAAAAAAAAAECQENgCAAAAAAAAAAAAQJAQ2AIAAAAAAAAAAABAkBDYAgAAAAAAAAAAAECQENgCAAAAAAAAAAAAQJAQ2AIAAAAAAAAAAABAkBDYAgAAAAAAAAAAAECQENgCAAAAAAAAAAAAQJAQ2AIAAAAAAAAAAABAkBDYAgAAAAAAAAAAAECQENgCAAAAAAAAAAAAQJAQ2AIAAAAAAAAAAABAkBDYAgAAAAAAAAAAAECQENgCAAAAAAAAAAAAQJAQ2AIAAAAAAAAAAABAkBDYAgAAAAAAAAAAAECQENgCAAAAAAAAAAAAQJAQ2AIAAAAAAAAAAABAkBDYAgAAAAAAAAAAAECQENgCAAAAAAAAAAAAQJAQ2AIAAAAAAAAAAABAkBDYAgAAAAAAAAAAAECQENgCAAAAAAAAAAAAQJAQ2AIAAAAAAAAAAABAkBDYAgAAAAAAAAAAAECQENgCAAAAAAAAAAAAQJAQ2AIAAAAAAAAAAABAkBDYAgAAAAAAAAAAAECQENgCAAAAAAAAAAAAQJAQ2AIAAAAAAAAAAABAkBDYAgAAAAAAAAAAAECQENgCAAAAAAAAAAAAQJAQ2AIAAAAAAAAAAABAkNiCPQEAwKnH6/XK5wv2LI6N1crfPAEAAAAAAAAAjh2BLQCg1u1KTdO+1HSFhYTIbj/xfhR5PF61bR6vmMiIYE8FAAAAAAAAAHCCO/F+Sw4AOOE5nS7lFxSpWeOGalK/XrCnU2mbd+2Vx+MJ9jQAAAAAAAAAACcBAlsAQFD4DCnUYVd4aEiwp1JpNqs12FMAAAAAAAAAAJwkuIAPAADUmvz8g8GeAgAAAAAAAAAcVwhsAQBArfh48ue69vrbtH9/WrCnAgAAAAAAAADHDQJbAABQ42bOmqc333pfSUkpuvnWe5WUlBLsKQEAAAAAAADAcYHAFgAA1KhNmzbrqfHPy+fzSZL270/TLbfdq9279wZ5ZgAAAAAAAAAQfLZgTwAAcGoyfFKJy63C4pKgzsPlM5TtLvv3SxZ5FWnxKsRqmLZxezy1MbWTQnJKqh546Ak5nc4y5RkZB3Tr7ffpnbdfV5vWrYI0OwAAAAAAAAAIPgJbAEBQeHw+7UlNU1pmdlDn0X9JpOTy/3FYv26RJrcvUj2Hf2jrdLlrY2onvIMHC3Tf/Y8qK8v8a9ykcSPVjYk2rZs7d6GKior8ylu0bK5OHdubtlm6dIXee3+Ktu/YpfDwMPXu1UP33nOHGjasX/UXUUFer1dTv/5B33z7o1JS9qtBg1gNvXCwbh59nRwOR42PXxNKSko0b/4i07quXTqrSZNGtTyj6peamqYNGzeZ1p1z9lkKCQmp5RkBAAAAAADgVERgCwAICovFULvm8YqvhTCtXPP3mxYfcESq02nN1DLS/0flusSdNT2rE57b7dYjY5/Srl17TOsHnXe2nnt2XMBA7OVX3lB6+gG/8quuutQ0sF25aq3uuW9s6bHLBQUF+nXaDK1Zu15ffzVF4eFhx/Bqju79D6bo3fcml/57375kvff+FO3YsVuv/GNCjY5dU3Jy8/T4E+Zzf27CODVpckEtz6j6rV27Xk+Of9607rdp36hRwwa1PCMAAAAAAACcirjDFgAAVLsXXpyoFStWm9bdeMM1+sfLz1Tr7sWvpn5XGtYeKTU1TfMXLK62cQL58svvTMtnz5lvGjwDAAAAAAAAwGHssAUA4DjwwEOPa8GCJQHrn3j8IV1x+SW1OKOqmzFjjn748Ve/cpvNpicef0gjLhle7WNmZAQORbOysqp9vCM5nU7l5ecHHj87u1aOZQYAAAAAAABwYmKHLQAAQVZYWKRly1aV+8ycOQtqaTbHbtCgszV40DllyiIj6+jNf/2jRsJaSWp/WtuAde3aBa6rDg6HQy1bNjetCw0NVfNmTWt0fJw8fD6f+vY/Xz3OOLvMxyeffhnsqQEAAAAAAKAGEdgCABBkixcvk9PpLPeZlavWKi8v8C7O44nVatWLL4zX+eefK0mKj4/TlI/fVu/ePWtszNtvH63GjRv5lQ8ber56ndG9xsY97LGxD/gd8WyxWPTQg3fV+P25OHlkZmYd9XsBAAAAAAAATj4ciQwAQJDNnnv03bMej0cLFi7RRcOH1MKMjp3VatWLz49X64RWuvKKS1S3bkyNjhdbr66+/foT/fjTNG3fvkNhYeHq06enzjqzb42Oe1ivXj303Tef6pdff1dySqoa1K+vIRecpzZtEmplfJwcUlL2B3sKAAAAAAAACAICWwBAUPh8UlbeQRmGEeypmHO6lZaZLUex/2EUJU5X9Q3jdGnxomV+5dHRUcrNzStTNmfOghMmsJUO7TC9/bYba228sLBQjbz6slob76+aNGmk226tvdeLk09KKoEtAAAAAADAqYjAFgAQFIbPp4NFRQp+XhtqXuz1KudgsSI8/lUuV/UFtsuXr1RBYWGZsnr16urKKy7Ru+9NLlO+dNlKFRUVKywswJyBamSzWoM9hRpntR1frzElJTXYUwAAAAAAAEAQENgCAILDYqh5owaKb1g/yBMJsKMt1KHTWjRUy0j/H5XrEndW2+hmxyF379ZVfXqf4RfYlpSUaPGSZRo86JxqG3/Hzl3atm2n0tLSZbfbFRfXWL169VBEeHiV+svOztGmP7YoMzNLOTm5slgsiomOVrt2rdWuXRtZLP47lo8XySmp2vzHn8rIOKCi4hLFxEQpNraeTu/aucaPdC4uLtaWLYnauWu38vLyZbPZFBtbT82axqtTp/Y19r7t25estes26MCBTIWFhSk+ron69OmpkJAQRUZGVts4qalp2rBxk9LSMuRyuRUVFamWLZura5eOfnf/Viefz6c/Nv+pLVsSlZeXr+joSLVpnaCuXTvJYrEoqppeY3Wt+9TUtGqZz5GKi4u1ceNm7dq9V/n5B+Vw2NWoYQN16tRe8fFxx9RvMNYsAAAAAADAyYjAFgCAIPF6vZo/f7FfeffuXdW5cweFhYWqqKi4TN2cOQuOGtju25esSy4d5Vf+yeS31blzR0nSosXL9P4HU7Rx42a/5xwOu66/7mrdcfto2WxH/0+FlJT9+uHHXzV7znzt2rUn4HMxMdG6dtSVunbUlQoNrd5dwt//8Iuefe4V07o5s35STEx0wLbTps3QJ599pcTE7ab1FotFp5/eWSOvvlyDB51teoz3k089p2m/zfQrb53QSl9PnRxw7LT0DL377seaPmO239f6sNh6dXXBBefphhuuUaOGDQL2VRlr127Qv996T+vWbfSrCw8P0+ibrtWNN1xjugYrY86cBZr8yRfatMl/nR0ea/iwC3T77aMVW69ulcf5K5/Pp59//l3vf/iJkpNT/OqbNGmkBx+4S3FNmlR5jOpa9zfdfJdycnKVk5Or/PyDpn288c+39cY/3y5Tds7ZZ2nia88HHDcxcbumfPKF5sxdqJKSEtNn2rRJ0MirL9clFw+VtYI7qoO1ZgEAAAAAAE5mBLYAgOOKx+vVgcK9KnLn+9U1jkhQqD0iCLOqGatWrfW7p1aSevQ4XTabTd27d9WSJSvK1C1ctEwul0t2u73S4+3ctUcJCa30wksTNW3ajIDPOZ0uffjRZ9qXlKKXXvh7wOd27NylSZM+1Lz5i+Tz+Y46fk5Ort6a9IFmzpqnNya+oMaNG1X6NVSn4uJiPfrY01q4aGm5z3m9Xq1du0Fr125Q27at9dS4R0qD72OxYMESjXvyWb8jsf8qMytbX3z5rb797iddO+oq3XH7TXI4HFUe9+13PtIHH34S8GtWWFiktyZ9oKXLVsrhcFQpsM3MytZTTz2nZctXlftcYWGRvv7mR82aPV+vvDxBPXqcXumxzPp87PGntWix/93Qh6Wmpmnso3/XuecOqHT/1b3uN2z4o9JzKI/b7dYb/3xbX371nbxeb7nPbt++U889/4q+/OpbPf/sk2rbtnW5zwdrzQIAAAAAAJzsOKsMAHBcSc1P1Nzdn2jGzvf8Pubu/jzY06tWc0yOQ46KilS7/4YmvXv19KsvKCjQ8hWrqzTe4iXLNfqWu8sNa480Y8YczZw517Rua+J2XT3yZs2dt7BCodWREhO368GHnpDTWX13AVfF2Ef/ftSw9q+2bduhx5545pjnvm79Rj0y9qmjBl9Hcjpd+njy5/rll+lVHvef/3pH738wpUJfszVr1pv+QcHRJKek6oYb7zhqWHuk7Owc3XPfWG3evLXS4x3J5XLp3vvHlhvWHmnu3IWV6v94X/clJSW6+55H9J8vvjlqWHuk7dt3avQtd2vV6nUBnwnWmgUAAAAAADgVENgCAI4rbp9THp/btM7pLajl2dQcn8+nufMW+ZX3OqNH6d2PvXv7B7bSoWNmq2LmzLnatm1HpdpM+fQL0/LT2rVRz2PYDbk1cbs++/yrKrc/VrPnzK9wqHcku92ul158Wg5H5Xc4H+mFFyfK7TZf5+U595wBuuyy/6vSmPPmL9KUT8y/ntWloLBQd9/zSJXuYi0uLtYTT06Qy1X1QPNf/35Pa9duqHL7ozne1/2TTz2vlavWVqltYWGRHnzoCe3es9e0PhhrFgAAAAAA4FTBkcgAAATBxo2blZFxwK+8T5//hbSntWujmJho5eTklnlm3vxFenLcI6XBblUZhiGHwxHwfktJ2rx5q1JT09Skif/xxQ8/dI9GXXdbmZ18devGqEuXjqofW09FRcVas2a90tIzTPv++usfdNONo475dVSF2X2zkhQfH6dbbr5OzZrFq+BgodZv2KRfp01Xevqhr9WYR+5V504djmnsbdt2aPv2naZ1l192sc455yw5HA4lJSVr3vzFWrRoqXw+n5o3b6oJzzxepTGdTpf+8cq/yn2mdUIr1a9fT8kpqUpK8r/3tSJef/0t7d2bZFrXpUtHDTirnxo0qK/k5FT9/MvvSktLL/PM3r1J+unn33T5ZRdXeuwdO3fpiy+/CVhvsVjUuXMHhTgc2r5jl7Kzcyo9hlT96/7I8D/Q7lur1Sqrtez/T+z2sv8Z/8uv0zV7zvyA827aNE5tWicoLz9f69dvksfj8XumoKBA48e/oCmT3y5zV3Mw1iwAAAAAAMCphMAWABAcXp/27s9QVl7Zu2qz3Pvl8piHFoXFxdq4fVc1TyTMvLjEpa27k5Qf5n/saf7BAqlh/WMa1ew4ZEnq0/uM0s8Nw1Cf3mdo+ozZZZ7JycnVmrUbdEbPblUau379WN1/350aPOhshYSEaOfO3Xp83ISAu2///DPRNLBt166NLv6/ofrp5980ePA5uvKKS9Sj++llgh63260xY8dr/oLFfu3T0jO0fftOtWvXpkqv41js3m2+i/CJxx5Uv369S/89cGB/3XH7aH3+n6lKTknVFZdfUmNjd+nSUeOeeLj0373O6K5LR1ykbdt26NWJb2rMI/cpIqJqdzj/Pn2W9u833/UaGVlHL734tPr17VVatn37Tr3y2r+1cuWaCo+xZ+8+/fDjNNO6sWPu18irLytTdt21V+na625TckpqmfIffvi1SoHtJ598GfAY4LZtW+vVfzyrZs3iJR3a4b54yXK99PLrSknZX6lxqnvdL1syS5Lk8XjUq895pmPee8/tuuH6kQHn5Ha7NentD03rDMPQE48/VOY9TU5J1X33P6pdu/b4Pb/pjy2aO3ehzjtvYGlZMNYsAAAAAADAqYTAFgAQFD7DUExkhBrWjSlTbhSmaZ/TKqdJ7mKzWhVXP7aaZxLgPkabVQ3rxSguwn/3Z2Fx4B2pFWUW2MbFNS4NlA7r16+XX2ArSXPmzK9SYNvt9C567dXnVPeI9z0hoaUeHXO/br39PtM2ScmBd1vec/dtuuH6kWrZsrlpvc1m05hH7jMNriRp0x9/BiWwtQbY1bv/Lzs+pUM7IEffdG21jW2xmo+dnZ0jp9Mph8NRprxt29Z69+3Xj2nM6dP919BhLz7/9zJhrSS1aZOgCc88oaHDrqjwGD/88KtpYDrikuF+Ya106L7m2269UU9PeKlM+eYtW5Wbm6fo6KgKj+1yuQLuLo2MrKO3/v2K6h/xvcMwDJ11Zl/ddectenL88xUe57Djbd0vXboiYCB/+WUX+wXg8XFN9MrLE3TVyNGmX7Pvfvi5TGAbjDULAAAAAABwKiGwBQAEhWFIURHhio0pG8rkK1yGYR4OOOx2v+ePXYDA1mpR3ag6io30/1G5L93/KOPK2Jq43fTI2X59e/uV9Qlwj+3cuQs15pH7yuzqq4hRo64oE9Ye1rlzBxmGIZ/Pf0dxQUHgu4Pr1aurevXqmtZlZWUrOTlVSckpCgkJMT16OSPD/NjYmtYqoaW27/Dfrf3iS69ra+J2XXH5JWrTulWNjJ3QqqVpeVJSiq67/nbdcMM1On/wOQoJCamW8bxer1avWW9a16HDaerf33/dVcWiReZ3Al9+eeDdsp06t/cr8/l82rZ9Z6X+IOGPzX+qsLDItG7EJcPLhLXV4Xhb9+Xdx3zNyMtNyxMSWqpf315avGS5X92KFWvkdLpKj2uu7TULAAAAAABwqiGwBQCgls2ZY34csllw1qhRQzVrFq99+5LLlKelZ+iPzX8e832qhzkcDoWGhqioqNivLtC9mn+1d2+S5s5bqHXrNmrTps3KzMo+apv8/IOVnmt1GHnVZZo5c65fudvt1tSp32vq1O/VocNp+r+LLtTQoYMVHVV9fyjQqlUL9erVw/S44e07dmn831/Qy//4pwYPOluXXDxM3bp1OabxkpJS5HQ6Tet69+pxTH0f5nQ6tWu3//G6knT9DXdUur/0APe/BrJzp/nYktQ7wB89VJfjYd0nJpofZ16vXl21atUiYLtevXqYBrZut1u7du/Raf/dBVzbaxYAAAAAAOBUQ2ALADg57N0jLTYJQmPqyj3gHNnq1Kn9OQUQKLAdM3a8abnZrtfD/VRXYCtJVqu10m18Pp/mzVukDz/+VJs3b610+5IS8yCxpnXv3lW33Hy9Pvzo04DPbNmyVVu2bNUb/3xbI0YM12233qjYALsqK+vp8Y9p9C13KT3Abu2CggL9+NM0/fjTNLVt21p33j5a5547oEpjZZUTIMbHN6lSn3+VmZkd8P7YqjDblVqerKysgHXxcdXzGo90vK37AwcyTcvjjvLam8bHldvnaUcc21ybaxYAAAAAAOBUY37mJAAAJ5ofvpbv4w/9Pz54R7Zl5vdIBsPevUnasdP/KF7p0NG1Zh8BA1uTe3BrU25enu65d4weHvNklUKrYLv7rlv12NgHjnqMq9Pp1NSp3+vKq27U0mUrq2XsJk0aafJHkyq0E3Hbth16eMyTevTxpwPulC1PSTltQkNDK92fmeJi/53ZxyI8PKxSz5cXgIaGVu8xvcfjug/0/ocd5bWHhQX++hcVlT1iujbXLAAAAAAAwKmGwBYAcHJwuSS32//D5ZY87mDPrtTsOfOrra+9e5NM72GtDU6nU3fe+WDAADM0NFQDB/bX3XfdptdefU6xsfVqeYYVc9VVl+qXn77UDdePPGpImJOTq4ceHqeNGzdXy9iNGzfSh+//W69PfEGdO3c86vMzZ87V409MqPQ44WGBX1d1Ba3VFfweVq9u5XYyl/e1Ky6u3G7d8hyv6z7Q+190lNdudgT6YWEm66a21iwAAAAAAMCphiORAQBBYfgkt8crl7tsmOrxeOST+Y5SSX7PH2YLsAtVknxer9wB2gVu5JPb45HLpJnXG3isowl0HPKx9Nemdatq7bMiPvzoM21N3O5XbrVadecdN2vUNVeU2b336mv/rs3pVUpsbD09cP/fdPPo6/TLr9P140/TtG2b+Z2gJSUleu31NzX5o0nVMrZhGDp74Jk6e+CZWrduo77/4RfNmj0vYJA2d95CLV22Uv369qrwGJFRgY8D378/vdJzNhMbW1cWi8X0WOQXnh+v5s2aVqq/Nm0qt6ajoiID1qXuT1PLls0r1V8gx+u6b9CgvpJTUv3KU0zKjpSUnBKwrn79WNPy2lizAAAAAAAApxoCWwBAUHh8Pu3dn64DObllyrNcqXIGCFcLi4q0YZv5jtIWOXkyixc8Ho+S92foQIB2UoCgp6hEW3buU26YfzhbUFS1HXt3a1dKAAAgAElEQVRpaenavKV6j1CdM3eBbr/txmrtsyK+/+EX0/Ixj9ynq64cUcuzqR5RUZEadc0VGnXNFVq3bqNem/im/tj8p99zGzb8oQMHMgMGWlXVrVsXdevWRY88fK+++PJbffTxp3I6XX7PzZ4zv1LhV1yTJrLZbKZ/tLBu/cZjmvNhDodDzZs31e7de/3qUlJSdeGQQdUyTiDlBcLr12+strCwJte9YRgB6452p2+7dq1Nv5ZZWdnatWuPWrVqYdpu5co1puV2u10JAdocqabWLAAAAAAAwKkmuIGt2ynL7vXyNe8in6N6j9IDABzfrIah5o0bKq5B2SND9+YeVFqKTW7/3/krLDRUXQPsvLNFR5mPY7WqaeMGimsbYMferAPm5WGh6pDQQC3qWP2qNu3YY97mKGbPWWB6H23//r315r9eKbftsuWrdNfdD/uVJyZuV3JyiuLj46o0p6rIycnVgQOZpnWDB51tWu71+O+8LI/F4v++S4d2S1eX9PQDiogIU0REhF9dt25d9MH7/9L/XXKN6WtNSdl/zIHtzp27lZDQ0q88MrKObr/tRtWJCNerE9/0q09N2V+pcRwOu9q2ba0tJn8ssG7dRiUmble7dm386pKSkis1Tv/+fUwD288+n6qL/29otQfcR+rYqX3AHb4//jhNo2+61vSu4n1JgXeY/lVNr3uLxaLw8DAVFhb51SUdZZ5nntlXU7/+wbTuiy+/1ROPP+RXvnPn7oBHO/fu1UN2u920TW2sWQAAAAAAgFNN8O6wzcuU7euXZP3wMVm/ek7KM/8FGADg5OQzJJvVIrvNVubDarXKkPlOM8Mw/J4//GFYAu9Os1r8xzn8EZAh2axW87HK2QlXnjlzzY9DPqNn96O27XZ6Z9kCzHd2NR+zfDRmgdJhGzeVvd+1oLBQTz71nNLSMyo1RkR4uGn5rl1VC8v/yuVy6cGHn9Cll1+vX36dbhr02e12Wa3mwXFIqH/4Vxmz58zXFVfdqHFPPqvkAMfShga4e9YseDyagQP6mZZ7vV6NeXS83/u6ZMkKjRk7vlJjjLh4mOn/N3JycnX7nQ9o+/adAduuWr1On372VaXGO1JEeLi6d+tqWpeWnqGxjz2tvLz80jKv16tPP/tK738wpcJj1Ma6b9y4kWn5zFnzAq4TSerXt1fAtt9+95PfzuDU1DQ9+tjTputeki4dcZFfWW2vWQAAAAAAgFNJje6wdeZmKnnW13LmZSs0trHiB10uW0SUjMwkWX99W84/lmp3kUdxG5Yo0uuRa+gdUsOWNTklAACCIjs7R+vWmR8/e0bPbkdtHxoaqk4d22v9hk1+dXPmLtAN14885jlWVGxsXVmtVnk8Hr+6J8ZN0NALB6tp03hlZBzQjJlzlZmZVekx4uKbaMdO/2OsV61epzvvekgXDD5Xl132f1WavyRNfH1S6Y7T8X9/Qe+8+5HOH3yuunbtpOioKGVlZ+uHH39VWpr/Ha9hYaFq2aJZlcdOTk7RMxNeliT99vssTZ8xRwPO6qcBZ/VT06Zx8vp82rp1mz76+DPT9h06tKv0mCNGXKT3P/jENKDbty9ZV159kzp2OE3R0VHas3ffUXd0mmnTJkFDLjhPv0+f7Ve3e/dejRx1i/r2PUO9zuih+vVjVVLi1K5de7R4yTLt3r1XFotFffucobZtW1d6bEm64oqLtXrNOtO6hQuX6MJhV6hL5w6yWCxK3LZD2dk5leq/NtZ9l84dtXPnbr/y4uJijbzmFg25cJDqx9bT3r1J6tu3ly7+v6GSJJvNprv+dovG//0Fv7Y+n0/PPveKPv30K7Vpk6C8/HytXbtBLpfJMQaSOnfqoHPPHVCmLBhrFgAAAAAA4FRSo4Gtu6hAGavnqzgjWXWatVWTs4bJZ3fI/tO/5U1cpfVFVrk691PGn+vUY/MKRXjccl33LMcjAwBOOnPnLTINy8LDw9Shw2kV6uOMM7qZBrYbN25WRsYBNWhQ/5jnWREhISHq0eN00/svi4qK9d335vd8VkbXLp20cOES07oVK1bLarVWObCdM2eBvpr6XZmylJT9mvLJFxVqP3zYkCrvGHS5XHr08ad18GBBaZnX69X8BYs1f8Hio7Z3OBwaPmxIpcdt1LCBRl1zhT77fKppvdfr1aY/tlS6378aO+Z+rV230TTo9nq9WrJkhZYsWRFwDq+9/pbemTSxSmOfP/hcff751wFfR3FxsVauWlulvqXaWfdDhgzSjz9NM60rKCzUd9/9XKbscGArSRcNH6J58xdpToAd97v37NXuPf5HVh8pIjxcEyY8UWandLDWLAAAAAAAwKmkRo9Ettissv73F5rWsHAZ+ZlyfPqkCras1AZfHXn6na/I9l1lHzhcf9jqKXvLatk+fVJGdmpNTgsAgFo3Z+580/Ju3boEPHb3r3oGODrZ5/Np7rxFVZ5bVdwy+rpKPR8dZX7HcCBDLjhPFkvg/0zZsSPw8brl8fl8+jDALsCKiItrrLvvvrXK7RcvWa4tWxKr3P7ee25TXFzjKrW9+65bTe+qLY/D4ajU8zEx0Zr05qtVvq92xYrVAYP6o7FYLHrm6cdVp47/ncTlqcxrrOl136d3T53etXOFnt24cbNf2fPPPlmhHftmwsJCNXHiC2rZonmZ8mCuWQAAAAAAgFNFjQa2trBIOaIO/cIu1ONUxOyPVZK4Rokh9VTcbYAad+iqLt17qelpHeTpfpYSwxsp78/Vsn7/OqEtAOCkcfBggVauNN/ZV5H7aw8r7x7bQPfj1pTevXvq9tturNCzAwf213ffflqpYKxp0zhddeWIgPXp6QfK7PirKMMw9OH7/9Koa66Q3W6vVNuEhJZ69503Kh3CHemcs8/S++/+UwkJLSvVzmKx6O67btO1o66q8tghISF69+3XK7yj+/zzz9XEV5+v9DitWrXQZ5+8p969e1a6bf/+vdWsWdNKtzty7Hcmva7o6KN/jSwWi+6/707dXIkQtqbXvWEYmvDMExXaLZ+ckqrMrOwyZSEhIXrrzVd19VWXlfsHD3+VkNBSH3/4lnqd4f/9KJhrFgAAAAAA4FRRo0ciGxaLZEgW+dTsQKIKsw2tcYfK1udsxbVtr/ZdukuGobYdu8qQoX12h9Yu+E3dtqxUtO81ua9/rkLHI8+dt0D79+/XNSPL/kJo85Y/NX36TD34wL019RIBAFVk+KQip0sFRcVlyotLnPL6fKZtvF6v3/OHOdxu0x9qPp9PTqdL7gDtAvJ4VVhcogKb27/K43+0cXkWLFwS8L7IyuyGCw0NVedOHbRuvf9duKtXr1Nubl6FgqrqcucdN6tx40Z66633/YIj6VAIdOcdozV40DmSpHZtW1fq2N2HH7pHPp/09Tc/mB4nvWPnrgrvRjxSaGioHnn4Xt104yh9+dV3mj5jjpKTA9/ZGh/XRJdffrFGXXOlHI7KhbxmevQ4XV9/NVkLFy7V1G++16pV6+R0Ok2ftVqtGjiwv24Zfb06dqxY0Fqe6OgoTfl4kj77fKo+/ewr03tcW7Vqobv/dqvOO2+gioqKZbFYTN//8jRsWF/vTJqoBQuW6D9ffqNVq9YG7CMyso7OPXeALhvxf+ratVOVXteROnY8Td9986nefOt9TfttpkpKSsrUG4ah3r166MEH7lK7dm20dKn5Ec2B1PS6b9YsXlM+nqTX//m2Zs+eH/B9i4iIUEpyqmLr1S1Tbrfb9ejY+3XJxUP18ZT/aP78xQHXV0JCS1191WW6dMTwgH8MIgV3zQIAAAAAAJwKjJy8QvPfilcDT9FB7fvwaTXcvVoWi6Ft4Y3k6naWWnToouat28pm/9+OA7fLqb07tmnPlo3S6gVqW5Sueh16yD3sb/I1Kf/4PgJbALUhOjIs2FM4aWzZtVfb9iSrUf26iowIL1N3oGSrdhTNkct30K9dtC1eXSJHmfYZP+VdRS3wP3bYGx6u9GuuU3b/c0zbdfolwO63aK9m9HQrPty/Kjs3X+1bNlNsTO2Fo8czp9Oltes2aMeOXSouLlb92Fi1b9+20sfvBpKZmaUVK9coPT1DLpdLUVFRateutbp26VSpXYTlSU5O0eYtiTpwIFOFhYUKDw9XbL26Oq19WzVv1rTMnZ7Vzel0av2GP5SSkqqsrGxZLBZF1qmj5i2aqUOHdooIN1mE1cDr9Wr9+k3avWevsrNzFBMdrfbt29VIyJaXl68/Nv+pfXuTlH+wQA6HXfXq1VXbNglq0yah2r6Of1VUVKxVq9cqNWW/CgoL1aBBffXofnq1HNFb0+teknJz87Rm7XqlpWXo4MGDstvtql8/Vq0TWqpduzYVet+Kioq1ceMf2rV7jw4eLJDNZlOjRg3VqWN7NWsWX6V5BWvNAgAAAAAAnKxqdIetNT9TLUsy5LEa+sMRK1fnvkro3E3NW7aW5S/HENrsDjVv3U4ypN0upxLXLFLHresU5Z0k1xVjpLpNanKqAIBaZhiGGtSNVuPYemXKrXnp2rvfKpf/xlY5HA61bNLItL+QAAGBxTBUPyZa0QHaSf475A4NZlezRjFqXsf/ftmiYvOdZacqh8OuPr17qk8VjsCtiNjYehp64eAa6fuw+Pg4xcfH1egYgTgcjv8eRVvx47Grg8ViUffuXdW9e9caHysqKlL9+vZSv769anysI4WFhWrAWf1qpO+aXvfSoR3R554z4Jj6CAsLVe/ePat0RHUgwVqzAAAAAAAAJ6uaC2zzMmX/+kXlp+3TJiNK1j7nq02nrmqe0DbwZOx2JZx26Ci8PVar1s7/TZ3/XKt6U1+U+7oJUkTMMU8rJydXc+ctUNK+fbLZHerUqYPO7N9XVuuhX8j/8MMvahLXWC6nUxs2bpLX61PPnt11+umdNXvWPO3ZvUeR0ZEaduEQNWjYoLTfPXv2auGiJcrKzFLdujEaMOBMtWzZ4pjnCwAnK58hhdjtCg8NKVMeUuyQYZjvGrMYht/zpawWmR4ZYRiy22yyB2oXiMVQaIhD4aH+Pyqt1hq9Ah4AAAAAAAAAcAqpkd84G8lbZf/0SeXuSVRiVFPZzrpQbTp3U9MWrSrUvnlCW7Xo3F0hZ12g7aH1lZm4UfbPn5aRvvuY5lVYWKAvvvxaNptN14y8WsOHDVFi4jb99vvMMs8tX7ZCUVGRuvOOWzVwQH8tWbJU3377o3r27Ka/3XW76sbU1azZc0ufT0pO1q/Tflef3r102203qW/fPvr552nKyck9pvkCAAAAAAAAAAAAOLnVyA5bX1gduYfcIneJU9bUnerQtZtiGzSSccQ9W+78XGXM+kXO7EzVSWir2LPOl2yHpmOzO9SyzWmy2WzaE1ZHReExckVGqLzb41JSUvX6G/8uOw+fr8ydc2vXbpDFYmjY0Av+u6M2VkOGDNbUqd+qX59eiq0fK0lq27a1unbtIknq1KmjZs6ao549uysu7tBRie07nKZp034v7X/J4mXq27uX2rZtXdr+z60ttW37dvU6o+aOyQMAAAAAAAAAAABwYquZI5HrxctXL17eA2mKkE/r3JEKzyiWw2ooq8SrTqFeOX/+VLvWLJNhGLJtWqN2JU7l9B6i3YUexYdblVnilTUiTvWaOxXZsosUVc/8qMv/atCggYYPHVKmbMeuXVq8eGnpv9PS0xUfH196/LEkxcfFyWKxKDUtrTSwPTLktVqtslqtshwRNoc4HPJ4PHK53HI47Nq/P01paWlavHT5/wb3eRUdFVnFNxAAAAAAAAAAAADAqaDm7rCVVFBQqPTcAmWEeRRpl0KthtKLPWpSkC3n/iTFRtdTWGiY0rPSlbt3pzK7uJRe7FOU3aLMEq9KXG55svPkaFCkiKjyx7LbbaWB62FpGRn+D/rKxr6GYcgwDPl85cXB5fPJp/POO1edO3Wsch8AAAAAAAAAAAAATj01GthaLBZFh9jVqXG4bBZDFkNyeqSQrFzt9Hhkt9kP7bC12eXzuNW+jlUtoh0KtxlqVccnj8erbXt98pW7t7biGjVsqD82b5HH4yndZZuckiKPx6MmjRpXvd9GDbV9204CWwCoBJ9PKiguUe7BgjLlRYUeWd2Rsnn8v/f7XGF+zx9mDYuQp7H/93IjLFwWwypPgHYKdZoW97B5VFRYqFzD6lfndrvN+wIAAAAAAAAAoJJqNLCVpHyXV/P2FyrSblWo1VBasUenuz2SpOy8bFksFoXUyVOduvnakluinU632kTalVrkUYnLrSbVOJdu3U7Xhg2b9NtvM9Svb28VFBVq5sw5ate2reo3iD16BwH079dX33z7vRYuXKIuXTrJ4/Hozz+3qk+fXrLZavwtBoATks/n0459KdqTklam3OlxKsTdUw55/dsUWbTi4FbT/mwJHeWJb+1XbhiGZIuQd5N5u0ktzMPXEKuhnTssSrL436B+5NH5AAAAAAAAAAAcixpPE0MshmIcVoXbLAq1GirxSmE+Q8WSQkNCZbNa5XE75SpxKNJuUYzvULAbZbPIsPrvajoWERHhunrklZo3b77+88VXstkd6tjhNJ15Zr9j6rd582a67NJLtHjxUq1Zu1YRERFKaNVSHo+bwBYATDSqV1cOu716O21atT/xSahCG5vNqoiw0CqNBwAAAAAAAADAkYycvMLqOW/YRPKeXcpP26pu3TrJMCzy+byyWCzyZmZqw4dvKNzlkd1uV25+jqJbtlHbm+6R22rI6/XKMCxye9xauniVmnXorUZxzWpqmgBQIdGRYcGeAgAAAAAAAAAAOMnU6PbPg840/bZqsmZtlBz2MOUX5KhB3ca6pNtVcodF6YAzR1a3V05riEIdEdqWlKjfVnyljKxURdepp7yCHMlr1RVtWksisAUAAAAAAAAAAABwcqnRwHbb7sXKL8mUSv5XVpS2W8t3Jym8/UB5XM7S8pKQMO1du1h79+889FxWcmndrqQ1atmiW01OFQAAAAAAAAAAAABqXY0Gtg5HuKIjG8jn+9+py4ZhUXZugQpsDknG/x52FauoyKPIyAYyfD7JMGT4JFksCg2NrMlpAgAAAAAAAAAAAEBQ1Ogdtj6fTy53kbxeb2mZx+3W8mXL5Cxx+j0f36yp2rRtK8MwZLVaJVlkMSyyWu01NUUAqDDusAUAAAAAAAAAANWtRnfYGoYhhz28TJnX7lWbtu3lcXtKyywWQ1arTZGRUQoNqSPDMP7aFQAAAAAAAAAAAACcdGp0hy0AnEzYYQsAAAAAAAAAAKqbJdgTAAAAAAAAAAAAAIBTFYEtAAAAAAAAAAAAAAQJgS0AAAAAAAAAAAAABAmBLQAAAAAAAAAAAAAECYEtAAAAAAAAAAAAAAQJgS0AAAAAAAAAAAAABAmBLQAAAAAAAAAAAAAEia0qjdwer1wuj1weT3XPBwCqld1qld1ulc3K36cAAAAAAAAAAIDjT6UTDLfHq8JiJ2EtgBOCy+NRYbFTbo832FMBAAAAAAAAAADwU+nA1uUiqAVw4uF7FwAAAAAAAAAAOB5VPrBlZy2AExDfuwAAAAAAAAAAwPGISx0BAAAAAAAAAAAAIEhsNdFpTn6e3B6PQhzV173X55PPZyg6IkKGQc4MAAAAAAAAAAAA4MRXI4Gty+NVo3rRim8YW219uj0e7dufKcmotj4BAAAAAAAAAAAAIJjYqgoAAAAAAAAAAAAAQVIjO2wlye31yuV2V6mtxycVew9lyaEWr6yG5PF45fV6ZSViBgAAAAAAAAAAAHCSqLHA9mBBoTJt1iq1vXKJS4v2+CTDp7s6WfRUF7u8Pp9KXG7ZbY5qnikAAAAAAAAAAAAABEeNBbYxkXXUuH69KrW1ObIllUgy5AgLV+P6kXJ7PCpxeqp1jgAAAAAAAAAAAAAQTDV2wLBXPvl8VfuQ73/9GD79t/zQ/0J69533dMlFI7R+3YZj7mvl8pUaeeVIffft99UwMwAAAAAAAAAAAACVUWM7bAsKi5WZm1eltkUuV+nnB0tKlJnrldd76Ehkm9Xu9/zLL7ysJUuWSpLsdrvqN6ivnj176PIrLle92Irv8l21YqWenfC8nho/Tmf07lWluZ9oCouKVFRUrIMHDwZ7KgAAAAAAAAAAAMApp8YC29AQhyIjwqvU1mHzSHIe6sduV2REuDwer3IListtN+TCIbLZbPrzz6365edftXDBIr34youKj4ur0LgZBzKrNN8T2dnnDFSvPr0UHhYW7KkAAAAAAAAAAAAAp5waC2ztVqtC7HYVOHO0cO9X8vhcCrXW0aCEm47a1mox/ve51aIQu11ui0c2S/knOF84/EIltGoln8+n/3z2haZ+NVXvvf2unnn2GUnSzp079f2332v9ug1yOkvUtm1b3XnP3xQfF6cXnntRy5ctlyQ9O+F5SdJT48epa7fTNeP3GZo1a7aS9iUppm6Mhg69UJdfebnpHMobQzp0nPH036br5Vdf1uQPJ2vr1q1q1LiR7rnvbnXo0KFCfRzJ5/Ppb3fcpZzsbE35bIpCQkIkSd9/94MmfzRZ4556Qj179tBHH03WooWLVHCwQB06tNe111+r9h3aa8niJXr5xX/oyquu1HU3XCtJmvH7DH333fc6kHFATZo00aWXj9B5g8476tcNAAAAAAAAAAAAQOXU2B22BcUlyj1YoPS8NCXnJyo5f6t2525U7sGCo36UuD2l/ZQ4Xco9WKC8g4VyudwVGtswDI0cdbWiY2K0Yf1GFRQUSJK+/uob7dy+UwMGnqX+Z52pjRs36dWXX5PP59PQYReqy+ldJUnDhg/V3+6+Uy1atVRqSqomfzxFjRs31sUjLlaI3aFPpnyqFctXmI5d3hiHeTwejXtsnNq0ba0Rl12i5KRkvfnGm5Xq48jXesGQC1RUVFxmTsuXLledOnXUo2d3/fD9j/rlp1/Uu3cv3XDT9XK6XNqflmY6/61/JuqtNycptl6sbr5ltJq1aKYtW/6s0PsOAAAAAAAAAAAAoHJqbIetxTBksVhk/cuuWMtRdslKZVNk47/9+HySzwjYxI/ValWzpk21adMmZaRnKKJVhO67/x6FhIaWzuFARobWr9ugrKxsde/RXatXr9HG9RvUs2eP/91h20Ca8tlkRURESJJ69T5Dj415XCtXrFTvPr39xi1vjNgj7tO9+967dfY5AyVJa1av047t21VUWKiw8PAK93HYoMHn6fNP/6N58xZowMABys3J0datWzX4/EGy2exKTk6RJJ03+Dx16NBBF19yccD3LTk5SZLUrcfpGnbRMA27aFjF33QAAAAAAAAAAAAAlVJjgW1YiEOR4WEqVqgMQ5JPMgwpMvyIu1J37ZScJYc+b95S+u89qnZbsaRDu2kddpsiw8Pk9niUnVdQqTl4PId26hrGoaTXZrdr5oyZWrpkmXZs36G8vDxJUlZWlmkQelh6WrpmTJ+hTRv/UHLKofAzKzPL9NmKjhETE1P6eVRUpCTp4MEChYWHV3qe0dHR6te/r5YsWaq8vDytWLFKXq9XA84+FAgPv2ioVixfoSceHafu3bvp4hGXqFv3003n37tPbyW0bq3PPvlcixct0bDhwzRo8HmyWq0B3x8AAAAAAAAAAAAAVVNjRyJXhO/l5+R77BH5HntE2p5YrX27XC4lJSXJYrGoQaOG8nq9Gvf4OL37zvtKaJ2gcU+N05kDzpQkeT3egP2sWL5CDz3wsBITt+mqkVfqmWefliR5vP5tqjrGYT6fr8p9DBk6RB63W8uXrdCaVasVG1tPnTt3kiS1btNGk959S9dcO1I7d+3S35/6u76Z+o1pP3Xq1NE/Xn1J991/rwyf9Na/39KzzzxnehwzAAAAAAAAAADA/7N339FVFvkfx9+3pOemEEKA9NBC7733jgoKoqIIqCi2XXd1i+v+1tWt6q6uuiggCogUAem99947hCSkENJ7v/f3R+BKTCBBEyPu53UOx/A888x8Zy7HM3m+d2ZE5IeptoRtfFIKF6JjiI5PwGotSfZZrTYuRMfY/xQmJkJ6OqSnExd91X49LTu3pBKbjeT0DC5Ex3DpahwZ2TmVattmszF/3nwyMzNp27YNri4uRFyO4Py5Cwzo35fHn5hAeNMm2Kylk5DOzk4A5Obl2a+tX7ehJIn6+u/o2asnnp4et223Mm1UpDJ1GCi7N3TLli0I8Pdn3569nDhxkh49e9i3VM7JzcVisTB23Fimfzodi7uFdevWl9t+cXExVquV/gP7894H79G2XVuOHjlK4vXEu+qHiIiIiIiIiIiIiIiIiFSs2rZErle7Fv51fEjMsXE804DVCkajgcZBAfYyNvO32+zW960NN+55nUkF8sFgwMfTg8ZBFoqKi7l6LfmOba5bvQ6z2czZ02eIuHIFT09Ppjw9BQDvWrUwGo0cPHSYr+YvIPJKJPv37S/1fMNGDQFY8NVC4uLi6NK1Kz4+PgDMnDETf/8ANm3adNv2K9NGRSpTh+XGFspbNm+hdZtW9uuDhg7ms5mfAdjPx7Varfzpjf/DarXRtVtX8vPyyM7JpmWrFuW2P2/OPHZs30m//v3w8LBwJSICL28vfGr73FU/RERERERERERERERERKRiNbolclVbv24969atJysnm2HDh/KvD/5Fff/6APj41GLqc89gs9lYsWw5Hp4e9mTuTZ06dWLEyOGkp6XzzZJvuBIRwfhHHqZ1m1YcPHCI/fv28fyLz+NXt2657VemjYpUpo5+/fsSEBjA7l27SU1JtV/v268PAP7169OgYUny2Wg08vAj4zGZTHz15VesWb2Wnr168Ozzz5bb/oDBA2kS3pjVq1Yzf958AgMD+eOf3tAZtiIiIiIiIiIiIiIiIiLVwJCWkXNXe/ZmZOdVWCYxLY3a3u74+/qQlHOV1Zc+oMhagNngyBOt/2kvZ3x4NCQlAWD76z+wdewCQP/16Wy/lA8GeKm9K+92dqe42EpMQjJmkwMGQ9ktgQX279vPX6JYqdYAACAASURBVN76K088+QSjxzxQ0+GI/OR4uDn/oOc9LS5VFImIiIiIiIiIiIiIiEiJatsSOSMrBweTkbT8TGy2kpywDbh+y4rQOlarfYlvWmY2+Tfu5RQU3bhqIys3j+sphVitNnILCrC4OFRXyPesqKhotm3dxqYNm6hduzZDhg2p6ZBEREREREREREREREREpBKqLWHrbXGnXm0fzDk5GBINYAODAerdchaqzfTtjsy1PCxw456b040zbDFgcXWhXu2SM2wLCq3VFe497djRY6xcvpKwBqFMe34ari5aBSgiIiIiIiIiIiIiIiJyL6i2hK38eO67fxT33T+qpsMQERERERERERERERERkbtUbQnbhJRU8goKyCrIxDmvIVZbMUaDicsx8fYyxpbtIDsLAFuhFduNex1NOeT6FGI0QEBRLpdjsrBareTmF+HlbqmukEVEREREREREREREREREflSGtIwc2908kJGdV2GZoqJiCgoLwFDydxvfbmVs4NttkLEW3xKJsWTPZKDIVnLeLYDRAKYbP5uMRpwcne4mXBEROw835x/0vKdF242LiIiIiIiIiIiIiEjVqpYVtmazCbNZiQ0RERERERERERERERERkTsxVlykNAeTqeJCIiI/Mfp/l4iIiIiIiIiIiIiI/BTdfcLWQUkPEbn36P9dIiIiIiIiIiIiIiLyU3TXCVuzyYirs6NWq4nIPcHBZMLV2RGz6a7/dyciIiIiIiIiIiIiIlLtvtcZtmaTEbPJiAsOVR2PiIiIiIiIiIiIiIiIiMj/DC05ExERERERERERERERERGpIUrYioiIiIiIiIiIiIiIiIjUECVsRURERERERERERERERERqiBK2IiIiIiIiIiIiIiIiIiI1RAlbEREREREREREREREREZEaooStiIiIiIiIiIiIiIiIiEgNUcJWRERERERERERERERERKSGKGErIiIiIiIiIiIiIiIiIlJDzDUdAEBhQQEFBXmkpaaQnZODs7Mznl618PT0qunQRERERERERERERERERESqTY0mbIuKCklNSSEm4RoXI66QlJRETm4ujkYjfrU8CQ0NpVGjcDy9vDEatRhYRERERERERERERERERH5eaiwLWlhYQML1BI5eTyfTpRZd+w7kwcee4P5HJ1K/+xCumz3YuHkL27Zu4npCfE2FKSIiIiIiIiLys9O952DadejNsm9WVXndJ0+eoV2H3rTr0Ju4uGtVXn9lFBYW8stXfk/P3sN4+y/vEhV9lQ6d+jLrs3k1Eo+IiIiIyJ3UyArb/Pw8srIyOYsnQY2CaOzhgMFgwGqz4enuTrGbNy4BYWQ2bcvRJZ/h7OxMz14W3C0eNRGuiIiIiIiIiEiVmDT5eY4dP2n/u6OjI/7+9ejfrzdTJk/A0dGxxmJ7570PmT9/MS88/zRPTny0xuKoClu27mDb9l10aN+GZd+sYsnSFQB07ND2e9Vns9n4eskKFi5aSkxMLN5eXowcOZSnn3oCs/nb12vrN2zmk08+JzYunqDAAKZNm0Kf3j0qXUdMTBzvfzCd/QcOYbVaCQ0JZsJj4xg0qN8PHBERERER+Sn70RO2VquVKxGXue7mi1stT/yczWQU2ii0WSmyQZHVRl6xDYPRiEe9QBoOGsOxHavwDwigWfPWpSbBIiIiIiIiIiL3IovFHZ9atcjIzOTKlShmzppDbGwcb7/1hxqLKSYmtkrqMRgNVVLPD+Hq4sKY0aP43W9/yenTZ1m/YSvt2rWiVavm36u+WZ/N5eP/zsLJyYk6dXyJiYlj5qw5FBQU8PJLzwKwY8cefvf7P2Oz2fDzq8PliCv86td/4OMP36FTp/YV1mG1Wnn1tTc4d/4i3t5eGA0GTp85x29//yYWDwtdu3SsyiESERERkZ+QH31L5LS0VK4mpVLg4kktJyPJhTau5du4nmcjMc9KfK6VxIIbhQ0GvMOa4lC7PhfOnycnJ/vHDldEREREREREpMoNHTqQpUvmsmnDNzz37GQAtm7bZb+fnpHBn9/6J/0GjKJnr6G88OKrxMbG2e+fPHmGyU+9QPeeg+nbfyRv/vkfXL+eRE5Orn074q3bdgKwZ88B+7XMzKxy4+nbbyQ7duwB4D8ffkq7Dr1Zs2YD2dnZzJ23kHHjJ9Gl20CGDBvDO+99SH5+vv3ZgoIC/vHP9+nddzjDRoxl1er1Zeq3Wq18Mecr7nvgEbp0G8DYcRP5ZvnqUmVu16fviou7xjvvfciIUePo0m0AD4x+jKVLV9rvz5m7gJd+8VscHR34dMbn/PJXr7N8xWq2b99NYWFhqTH+y1/fY+Cg++nWYzBPPf0SR4+eKHd8xj88hrEP3c+qFQtY8c1XTHtuCgArVq61l5kx8wtsNhvTnnuKtasX8+TER7Farcz6bG6l6jAajbz7ztv8/W9/YvPG5axbu4T69etis9k4cOBwuXGJiIiIyM/Dj56w3bd3D2YPb0xmR9ILbVzPKyYpz0pCnpX4PCtJBTYKrFZ7eZODmbptuxIREUFebk65dW7dtoOvFiz6sbrwvXzzzSrWrdtQrW0UFhYyY+bnnDjx7dZKly9FMGPmbN7/4COOHj3O4cNH+Gz2HIqLi6s1FhERERERERGpmM1mIzu75H2H043tkPPz83n6mZdZ9s0qTCYTdfx82b1nP1Ofe4WCggKyc3KY9sKvOHr0BP7+9fHwsLBy1Tri4uK/dxz1/evZdzWrXduHxo0b4uHpwdFjJ/nXvz8mIiISb28vrl9PYv78xcycNdf+7Bv/91cWLFxKZmYWWVlZLFq0rEz9b771D97/YDpXr8bi7OzMpctXePPP/7AnM++mT4u//ob58xeTmpqGxd2dqOirvPWXd9i3/1Cpcl8tWMLsz7/EzdWVrKxsVqxcy+o1Je9m8vLyeOqpF/l6yXJS09IxGY0cPnKMp6e+zOEjx8q06ebmxm9e+wU+PrUAaNKkEQBFRUX2+s6euwBA3z4lWyD36tUNgOMnTlFcXFxhHQD16vkxcEAfcnJy2bf/ECkpaQA0a9rkdh+diIiIiPwM/OgJ27NnTuPo7EKezUBqgZX0QhsZRVbyrDaKbeU/41E/hJyc3FIT2DspLi7m3ffev+23Rn+uzGYzwUEBeNfytl/bsm07ISHBPPnk4zRr1gQfHx8CAwMwmUw1GKmIiIiIiIjI/7a1azcyeswE+g0YxRdzvgLgoYfuB2D1mo1cvHiZ8PDGrF65iCWL59C3T09iY+PYt+8QV6/GkpVVsgvZX//yBsuXzWfRgtm0adPye8fz5dxPqVXLCyhZCbpg/ix6dO9Cj+5d+Mff/8SObWtYu3oxjzzyEACbNm0DIDY2jg0btgDw/LSn2LFtDX/7yx9L1R0ZGc2KFSWrSP/w+q/ZtmUVUyY/DsDMWXPJysq+qz5NmTyB9959m53b17J+3VLCwxuXxLR5W6lybq6uLFk8h2VL59m3Qj5+/BQAq1av59LlK5jNZhYtmM22ravo0L4NxcXFfPjhjArHa/XqksTvzfNpk1NSsd5YgFDrxnsZb6+S8SwoKCQjI7PCOm66dPkKPXoN4YUXX6WgoIDf/faXDBzYt8KYREREROTe9aMnbJOSErEWF2EDim1wmxxtKWZHR1xc3TAYKncGSk5u7g+K8V5lMBgYNGgAgQEB9ms5OTkEBgbgYbHg5ORMSEgwAwf0+95t2GyV+cRERERERERE5E4yM7OIjIomPT0DgKefeoJnp04C4OTJ0wCcO3eBLt0GlNreOC7+Go0ahtkTkOMensQLL75KWlp6tcXq7OzMG3/8C4OGjGb+/MUAxF9LKInx/EV7uVEjhwJQr17dUs+fOn3W/vOwoQMBGD58EFCymvjixct31ScnJyeSkpJ5dtor9O47gnM3VrZeuxHTTW7urvj71wfAz68OgD1xejOm8CaNCAsLwWQyMWTwAABOnzlnT76WZ/mKNazfsBk3Nzf7tsa3uvnuxHbLW6/vvtO6Ux0Wizv9+/UmLCwEq9XKx/+dxfETp24bj4iIiIjc+8w/doOubm5kpyZj8i2i2OxQqWeKCgrw8fHG0cmpwrJnzp5j7dqSs1I+nTELgMceHY+fXx3S0zPYvHUbsVdjcHF1pU2bVrRv1xaDwcCRI0eJio6hSZNG7Nt3gMzMTMJCQxk0eAAHDxzixMlTmEwmevbsTrOm4eXHWVTEnj37OHvuPHl5eQQFBdG/fx88LJYyZfPy8jhw8DDnz18kJyeb2j4+DBo0AF/f2kDJLxAbN20hLjYWs4MjLZo3o2vXTpjNZqKjr7Jt2w5S09LwsFjo0LE9LVuU/FLznw+n07dvL5o1DefDD6dTVFTE6tVrWb16La/88iWOHDnK4SPHeWrKRHssUVHR7Ny1h5TkFLy9vejZszshIcFAyVbOAYH1ycnO4fjxE3Tq3InOnTpU6nMTERERERERkfKNHfsAv37lBR4Y8xgxMXHExMbbk3o3E30hIUH079e71HNtWrfAZDLxyX//xddLlrNw0TJ279nP3n0Hee+dt+nYsZ29rM36w790vXDRUv7+j/exWNwZ//AYsrNz+XL+IvsuaHe7g5c9mWkrncy8U59ubi18029/9yabt2wnJDiI556dzK7d+9i79wBFRbc//sk+tnf4IrqtEssKNm7cyp/f+idGo5G3/vx7eyK4tk8tjEYjVquV5BvvV1KSU4GSBLOHh6XCOm7yq+PLP//xJgB/eONtVq/ZwHv/+ogvZv+3wvhERERE5N70o6+wbdSoCclRl3DIr3i7YoMBDEBuXCStWrXCzc29wmeahjdh3LgHAZg8aSIvvTiNOnV8ycnNYcHCxQT6+zNp0kRGjBjKiROnOHvuvP3ZyMhIYmPjeOzR8TwyfhyXLl/mi8/n4eXtxdRnptC+fVs2bdxCfn5emXZtNhvLl6/i8uUIhg4ZxITHHqHOjeRreeLjrpGfn8fQoQN5fMKjuLi6sGbtOvv9TZu34GA2M3nKRB4ccz8ms8k+8V++YjVNm4bzzNOT6devD5TzC5jRaOSpp57EZDIxcEB/nnv26XLjiImNZfWadXTu1JGnnppIly6dWblyTalvsR48eASAZ555ig7t295p+EVERERERESkkkwmE1MmlWwNvG7dJi5evAxA82ZNAUhJSWXUyKFMe24KU595kgcfvM++/e+Bg0cY+9ADfLP0S7p164TVamXnrr04Ozvh6FjyBflz5y+Sk5PLho1byrR987zawsJvj5+6+YXzhITr9murVpV8KX7sQ/cz9ZlJeHl5lKonJCTI/vP6DZsB7P24qUXzpvaf16zdVPLfNRuBkmRmw4Zhd+zTrfLy8ti8ZTsAr776EuPGPlCmb5XRskUzAM6eu0BERCTFxcWsX18Sf/Nm4RiNZV+ZfbN8Nb/9/ZvYbDbeeP1Vevfqbr/n5ORkr3Pzlh0AbNu+C4B2bVvZ67tTHQAzZn7Bzp17ALBarfYkdEZ62S2VRUREROTn40dfYdu3X3/mfPEZ/rHnoVEnMJSfM3YyGnA1Q3peESEu0Ci4Cc7OLhXWbzAY7JNgk8lk/wXk+LGT1PXzo2PH9gC4ubnSrm1rzp07b18x6+rqat8u2Ne3NnX9/PDxqUWL5iUT7hbNm7F9+06Sk1OpX79eqXZjYmOJjIri8QmP2lfJdu/e9bZxhoaFEBoWYv97l86d+GrBInJyc3B1cSU7K5t69evh6uKKq4urvc78/DwKCwvw8PTA2dmZ4OCg27QALi4l4+Xo5Gj/+bv27N5Hl04dadSoAQCNGjXg3PkQLl66RMcOJWPl7u5Gr149yn1eRERERERERL6/4cMHMfOzOcTExPGfDz/lg/f/zojhg1m4aCkREZE8NO4JwsJCSUi4jl8dX76cN4ONG7fym9/9CW9vL0JDgzl1qmR737ZtW2EwGGjZojmHjxxj5qw5zPpsLu7ubmXaDQoM4PSZc3z40ad06dyBoKAA2rVrzaXLV1j89XL27z/MC88/TWCgP6fPnGPO3IWsW7+F2Ni4UvWEBAfRvVtndu/Zz7vvfcT0Tz4nOzu7dJmQIEaNGsqKFWt56+1/8sF/ptu3Jp4yeQLu7m5s2LDltn26lbOzM76+tUlMTOLV197A2dmZpKTkux/3YYNYuHAply5fYezDT+Li4kJ2djYmk4lp054qU37x18v569/eA8DBwYGPp8/kn+98gNVmZdKTE5g86TGemvIEL7z0Kp/O+Jx16zYRFX0Vo9FoP6+3ojr69OnOf6d/BoCnhwdFRUVk5+QAMGLEkLvuo4iIiIjcO370Fbbe3t60atmK7OtxWGLOYCrMt99zMRoIcjHS0N1EPWcDRcVWfKw5hPl64elV6we1G3/tGlciI/nPh9Ptf3bt3ENe7rerZY3G0tv4ODo5YbjlG5WOjiVbMufn5fNd8fEJuLu72xOrlZGQcJ0tW7Yxd95XrLmxjXNudsn5u3369uLixcvM+/IrTp0+Q3FxyTcqnZyc6du7F+vWbeCb5auIioqudHvluXYtgd179pYal8grV8jN+fYcYN/aPj+oDREREREREREpn8lksif0du3ex+Ejx3BxcWbWjP8wZvQoPDw8iIyMxq+OLyNGDKG4uJguXToy4bFxODo4cOrUGerV9eNXr7xgPx/2N795maZNm+Do6EjLls2Y88V0PD1Kr4x98cWp1K9fl/z8AnsSduozk+jbpyeurq4kp6RwPTGJl16cSof2bTAajVjc3fj4o3fLrD5980+/o1+/Xjg7O+Pu7sabf/oddev6lSrzxuuv8uILzxAY6E9eXh4NwkL5w+u/ZvKkCQAV9ulWb7/1B0KCgygoKKRZsyb88Y3X7nrcnZ2dmTHjA8aMHoWXlyfFxcW0b9eGT6f/mw7t25Qpf/jIMfvPhYWFXL+eRHZODrm5eRQVFQLQrVsn/vaXPxIcHEhc/DUaNgjlvXfetiedK6qjQVgo7//rr7Rv14aioiIKiwpp3Lghv/vtL5k86bG77qOIiIiI3DsMaRk5P/xAk0qKjYlh9+6dOJhN1K3rx5kzZwhu0Razf0PyXTxxdHSktqORwuJibEUFuBVl42UtxMfbCwcHx9vWu3XbDq5du8b4h8cCEBcfz1dfLeLppyZjsZRso7x02XJcXJwZOmRwuXWUd7brkqXL8fCw2FfdWq02/vXvD3jgvlGENQgt9fzBg4c5eOgIzz1b9luYUHIWrLOzI0OGDALg2LET7N6zl759etOgQQjZ2bnM/nwOEx9/DJ8bCdKioiLOnj3PoUOHMZvNPPjgA/aVstnZORw/cZIjR47RICyEoUNL+nXzDNubq4L//f6HDBkyiPAmjcvt5/sffET//n3t5SuKW+R/mael4lX+IiIiIiIiIiIiIiIid+NHW2EbHx/HvHmfs3fPLvbv34eTsyuhYQ3ZtXYlUVuW435xH25XjpJ34Qju1y7gEH0Gt5wM/Hx975isLY/ZVLJS1mb7NhftV6cOUVFXKSwsrNJ+3eRbpza5uTkkJiZVqvyhw0fo0rkjzZqF4+TkXCrWm8xmMy1bNmfChEfIzMrm0qUI+z03N1e6de3M2Ice4MzZc6Smpn2vuP386nDpYkTFBUVERERERERERERERESkylV7wtZmsxEZeYUvPp/Ftfh4AGr7+hIYFEy//gOZ9sJLBAUFExN9legL50hLiCc/J5dGjZoQGBSMwWC46zY9PT0wGo2cPXeejIxMCgoKaNu2FVarjZWr1pCYmERGRiZHjx6vdIK1IkGBgdSvV49Vq9YQFRVNcnIKe/buJ+LyFQDMDmZycnPtWxu7ODsTGxtPZmYWV2NiWL9+o72uvLw8li5bTmRkFPn5ecRfu0ZBQT5e3p7ExcezctVaEhISKCgoICr6Ko4ODri6uX6vuLt17ULElQh27txDWlo6yckp7N69l6Kioh8+KCIiIiIiIiIiIiIiIiJyR+bqrNxqtXL06GFWrVhOWloqAC4uLtx332hq1/YFwNe3Dn37DajSdp2cnOndswf7Dxzi4MHDjBg+hJCQYMY//BDbtu9kwYLFmB0cCPCvT1BQYJW0aTQaGT16FDt27mb1mnUUFRYRHBxE82ZNAWjcqAHr12/k/IWLNGsaTv8BfVm/fiOfzf6CenXrMnBgfxYsWHQjficaNghj2/adpKam4u7mTu+ePQgMCKCgoABPDwvfLF9Fbm4uPrVqcd99I3FyvLtVyDcFBQUy+oH72L17L0eOHsXNzY2w0BCKi4swm6v1n4eIiIiIiIiIiIiIiIjI/7xqO8PWZrNx+tRJ5n85h9zcXAAcHBx5ZupzNGjYqDqaFBGpVjrDVkREREREREREREREqlq1LKEsKiri6NHDLFuy2J6sdXFxYeSoB5SsFRERERERERERERERERG5oVoStnv37GLJ14tKnT/bu08/OnTsVB3NiYiIiIiIiIiIiIiIiIjck4zVUWlhYSFxcfGkp6djMpno0aMXg4cMw8HBoTqaExERERERERERERERERG5J1XLCtvuPXqSmJjIrp076NK1O6PuH10dzYiIiIiIiIiIiIiIiIiI3NMMaRk5tuqouLi4mMzMTFxdXHB0cqqOJkREflSeFpeaDkFERERERERERERERH5mqmWFLYDJZMLLy6u6qhcRERERERERERERERERuedVyxm2IiIiIiIiIiIiIiIiIiJSMSVsRURERERERERERERERERqiBK2IiIiIiIiIiIiIiIiIiI1RAlbEREREREREREREREREZEaooStiIiIiIiIiIiIiIiIiEgNUcJWRERERERERERERERERKSGKGErIiIiIiIiIiIiIiIiIlJDlLAVEREREREREREREREREakhStiKiIiIiIiIiIiIiIiIiNQQJWxFRERERERERERERERERGqIErYiIiIiIiIiIiIiIiIiIjVECVsRERERERERERERERERkRqihK2IiIiIiIiIiIiIiIiISA1RwlZEREREREREREREREREpIYoYSsiIiIiIiIiIiIiIiIiUkOUsBURERERERERERERERERqSFK2IqIiIiIiIiIiIiIiIiI1BAlbEVEREREREREREREREREaogStiIiIiIiIiIiIiIiIiIiNUQJWxERERERERERERERERGRGmK+cOFiTccgInJP6Ni+VU2HICIiIiIiIiIiIiIiPzOGtIwcW00HISJyL/C0uNR0CCIiIiIiIiIiIiIi8jNjrukAREREROSnpaiomJ17DnPy1AUyMrLw8vKgS6fWdGjXvFrb3bv/OAcPn2TaM+MxmUzlltmybT8XLkUydcq4791OVdRRlSKuXGXO/BX85pUpODs7/WjjIHfn4OFT7N1/jMysbOr4+jB4YHeCAurZ719LSGLF6q1cT0ymrl9t7hvRH9/a3gAUFhaxZfs+Tpy6QHGxlZCg+gwb3AsPD3cAiouL2b7zEEePnyG/oBD/+n4MGdgDvzo+NdJXERGRnyPNcX9cmuP+tBUWFvHRJ/Pp0a0dHdq1qOlwKpxr5+TmsXLNVi5disZicWNg/240bRJWqec11xaRe4XOsBURERERu+LiYr748huOnzhHrx4dmPTEaLp2bsO2HQdITkmrsnYuXY7mg4/nlbrm6+tNWGjgbV/g/K/QOPz0HDh0kl17DjN8aG+ee3o8Af5+zF+wiuzsXAAKCgqZt2AlYSEBvPTcBPzr+/HlgpUUFRcDsGzlJq5dS2LC+FFMenw0uXn5LF663l7/vgPHuXg5irEPDmXqlHG4ODvx5YKVFBYV1Uh/RUREfm40x615GocSm7bsZcXqrTUdBmazibDQQGr7eNd0KBXOtQG+WbGJgvxCpk19hD69OrFk2QYSridX6nnNtUXkXqEVtiIiIiJit3vfUZKSUnn26fF4WNwAqF+vDq1bNsFsrrqXK9k5uWWuNQwLomFY0J0fNFRB41VRR1UylA7oRxuHKmaz2TAYfoKBVYE2rcJp0jgUzxsrYgcP7MHJUxe4fOUqrVo05uTpCziYzfTv1xUDMHhAd06fucTZcxG0bN6Igf26YbG4Yb7xgnLooJ5Mn7mQjMxsPCxudOnUmk4dWuHgUPLr2cD+3Xj/o7kkJCQT4O9XU90WERH52dActwZojluu7JzcGp8zW202jAYDo4b3rdE4bqporp2cksaFS1G8/PzjeHla8PK0cPb8ZQ4cOsnIYX0qfF5zbRG5VyhhKyIiIiJ2R46eoUP7FvYXWTfd+iIrJzePPXuPcurMRbKzc6lTx4dRw/vat5Tad+A4EZExtGkZztYdB0jPyCQooB6j7x+Iq4szK1Zv5cixMwD839sf4ejgwO9efZp9B46z78BxXn7+cXtb5y9cYfO2faSnZxIUWB83t9LniVcUS2XqsPf92Bk2bN7Dr38xCZOxZCMaq83Gu/+ezeCBPWjVojGFhUVs3LKHk6cvYjIaadI4hEEDeuDk6ADA396ZwYOjB3Py1AXOX4zE0cFMvz5daNMq3N5OYlIqa9fvICY2AR8fLxo3DC4Vx/cZh8SkFHbuPsyliGiKi62EhQYwang/XJydyvTzWkISsz5fwv2j+rNrzxFSUtKwWNwZMqhHqZdolyOusmX7PhKuJ+PlaaF713a0bd3Ufn/B4jUEBdUnKyuHQ0dO0bNbe3p2b1+qrb+9M4Mx9w/i6ImzXLocjYuzM8OH9MJicWPV2u0kJaUQFFif0fcNwMXF2f7c/oMn2Lv/GLl5+QT4+zF8SG9qeXsCcCUyhvWbdpOUnIqnh4Ue3UrHdVNVfFY3OTo64HjjOQCjwYCTkyN5efkAREXHExxU3/6O0Wg0EhhYl+ircbRs3ghvL49S9d3sa15ePh4WN0wmE7cuNiksLPm2/82XSiIiIvLDaI6rOe5NVTHHLSwqYtv2A5w4fYHc3DzCQgMZPqQXnh4WLl2OZve+o8TGJuDo5ECbVuH079MFg8HABx/PIyU13f65f6FF2gAAIABJREFUNG4YzCPjRlQ4/kePn2XXniOkpmVgtVrtcUx87H5Cgv1JSU1n/cZdXImKxdHRgTYtw+nTu5P9y4L7DhznSlQszZs2YOOWvdTxrcWE8aP42zszGDKoJ21ahVNstXLk6BkOHTlFcnIaHh7u9OvTmRbNGpX77wruPGev2rl2nD1Re1NIkD+Hjpyq1POaa4vIvUJbIouIiIgIUPJiKC09k6DAencsFxObQG5eHg+MGsCzTz+Mq6szS5dvLFXm8uVoLl6OYvLEMbz47GMkJqWyd/8xAEYM7U2/3p3x9vLg9dem8uork8ttJyIyhgVfr6VpeAOemjSWNq3DuRIZe1exVKaOm5qFN6CwsIiIK1ft16Kj4ygoKCS8cSg2Sl7g5OTk8dSTDzJ54hgys3JYv3FXqXpWrNpC65ZNeO2Xk+nUoRWr1223vyzIzs7l87nLcHRyZPLEMQwe0J3IqLg7jndl+nDm7GVq1/ZmwvhRTHzsfuLiEtm248Bt6ywsKuLYiXM8MnY4r70yhVYtG7Po63Xk5OYBJUnRLxeuokmjUKZOeZjuXduxZt0ODh4+VaqePXuPYgB+9fKTdO3Spty2Vq3dTucOrfjNK1MIDqrH0uUb2bR1L+PGDOHF5yaQlJzKnn3H7OV37D7E0eNnefCBwTw/9VEC/Osyf+Fqiq1Wiq1WFn69lhbNG/HKixMZPqRXqZdWN1XFZ3UnqWkZpKVnUr9eHQAyMjLxsLiXKuNhcSc9PbPc5yOjYnF2dqJWLc8y91JS01mzbjuNGgTrXC0REZEqoDmu5rhVOce9OV7nL15h9KgBTJ0yjrp1atvvHTtxjlYtGvP05LGMGNqHPfuOce78FQCmPTOeBqGBtGkVzuuvTWXcQ8MqHP/IqFhWrd3OsMG9eP21Z7hvRD/cXF2Y9MRo6tWrQ1Z2Dp99sRSz2czkJ8Yw+r6BnD57iWXLN5WKOybmGidOXuCZSWMZ/9DwMmOXk5PHxctR9OvThWlTH6Fl80Z8s2IzmVk55Y71nebsN1XdXDur7Fzbw5309KxKPX8rzbVF5KdMCVsRERERASD3xosM53K+sX6rxg2DGTmsL8FB9anl7UnP7u1JuJ5cags4NzcX7hvRD2cnR9zdXWnUMJj4+ESgZPWh0WjEYDBgNpvs3/z+rh07D9KkcSh9e3Wito8XzZs2pHXLJncVS2XquMnZ2YmGDYI4ey7Cfu3Mucs0ahSMo6MDUVGxXEtIYvR9A6jl7Ym3lwcD+3Xl1OmL2G6pp0+vToSFBmIwGGjTOpzCwiKSkkvORjt4+CQGo4EH7x+EXx0fQoL96d2zwx3HuzJ96N2zI726d6BeXV/q1fWlfbtmRFyJuWO9w4f0xmJxw2g00qNrO8xmE6dOXwRg644DhDcOpVePDtT28aJt66Z079qW7TsPYrV921uLxY2B/bvh6OBw28+xd88OBAfVx2g00qplE/LyC7hveD88PNxxc3OhUcNgYuOvAyVnwe7afYT7R/YnwN8Pi7srfXt1Ijcvj2vXkigoKCQ/vwAvTwsuLs6EhQbSvm3zMm1WxWd1J1u3HyCgvp99C7XComJM39lO0WwyUVhUXObZwqIiduw6RMd2LcqM2bsffM4HH88jv6CQB0YNqDAOERERqZjmuJrjVuUcNyoqlssRV3nwgcGEhgRQ28ebfn064+lhwQA8+MAg2rZuSm0fL8IbhxIS7E9EZEmy3GQyYTAYMBqNmM0mTEZjheMfdy0Rn1qeNAgLxGg00rZ1U/ILCjBgwMnRgQOHSsb+gfsG4FfHh7CQAO4b0Y/TZy9xPTHFHnd+QQH3j+qPu7truduAW9xdeWTscJo0CsHby4PevToBEH21bOK9ojn7TdU/1y7/DNrvPn+T5toi8lOndf8iIiIiAnz7Eis3t+JvPcfFX+f4yfNEX40v9c16N9eSbcyMxtLfC3R2ciQvv+J6S7VxLZFB/bv9oFgqW8dNLZs3Ys26HYwY2huD0ci58xEMGdQTgNi4BHJz8/jHe7NKPWO1WinIL8DJyREo3Xdnp5Ixvdn3uGuJhAT539VZaZXpg42SLeXOnL3MtYREcnLysNrKrjy9HaPRiLe3J6lpJVu0xV9LZFD/7qXKhIYEsG3nQdLTM+1b/FbmW+nljcd3r9383BKTUigoLOTzuctK1VFcbCU7Owf/+nUYMqgn36zczMnTF+nUoSUNQgPLtFkVn9XtnDpzkTNnLzHlyQft1xwczBR954VRUXFxudusrd+4G5vNVmZrPYApEx8kLT2DI0fP8Olni5j8xBgs39m6UURERO6O5ria41blHDc2LgGLxY26frXLvV9QWMiJk+e5cCmKlJQ0MjOzcXZ2vGN9dxr/BqGBbN9xgCuRMYSGBHDsxDkMBoN96+H4+ESCAuqVSiwHBdXHZDQSG5dAHd9aALi7ueLu5nrbOKBkJeuR42e5EhlDVlYOVquV7Oyy5zJXNGe/qVrn2kXlz7XLe/4mzbVF5KdOCVsRERERAcDV1QUPixtR0XFlzpy61YFDJ9m64wBDBvagb69OZGXn8OH0+VUej9FgwGa7c5mKYqlMHbdq0iiUFau3Ehkdh6ODA/n5BTRuGGK/b7G484sXHr99BbdjuzWeuwiIyvXh66XrSUpOZdCA7owK6sux42fZsm3/XbWTn1/yTf2b8RoMpe8bvnuhSpXu4DNTxpU59/Wmzh1b0axpQ44cPc3XS9fTqGEIo+8r+w35H/pZlScuPpHlq7YweGCPUi/pvDwtZGSU3pItPSOr1DlbAIeOnOLYibNMenxMqXO2bvL0cMfTw53gwPpMn7mQA4dO0r9vl7vvg4iIiNhpjqs5blXOcW1Q7pEcAHl5+cyY/TV+dXzo17szfn61WbJsw23L33Sn8fer40NwsD/rN+0mJzcPLw8Ljz48stR5v9/tg6Hk4t10i9i4BObMX0GXTq0Zfd8APD0svPPv2Xd85k5z9tuqsrl2Zpm59u2ev0lzbRH5qdOWyCIiIiIClPxi37pVOIePniYzM7vUvbT0TIqLS7Z33bv/GL26d6B1yyY4Ozvd1cuim0wmY4UvLnx8vLgac63Ute9+o76iWCpTx60cHMyENw7lwsVILlyMpEnjMPtKgXr16pCekUn8tcSKunf7PtXyIjYuodSWa9YKBrCiPqRnZHL67CXuH9mfBqGBmE2mu/5M0tIzSUlNp96Nc57q1fUtc4bYlcgY3Nxc8PRwL6+KKlG7di0cHMycv3DljuUs7q707tmRxx+9jxOnzpOSml7qflV8Vt+VmpbB/IWraNMqnI7tW5S6FxLsT2RUnP1FZbHVytWr8YQE+dvLnL8YyZr1O7l/ZH/q1/Mt9fytWy3eZDab7nrFjoiIiJSlOa7muFU5x63n50t2di4J15PL3Dt/MZKcnFweGj2Yun61MUCZRPZ3/41UNP5XY6+RnJzG1Cnj+OULTzDpidGEBNX/9vm6vkTHxNv/HQNEXy35e3lnuN7OoSOnCQn2p2+vTnh6lCRCbbfJrlZ2zn437jTXDg6qT0ZGVqk5f2RULCHB/pV6XnNtEblXKGErIiIiIna9enTA28uD2XOXceLUBeLir3P46Bk+mbWIE6cuACWrFKJj4sjIyCIyKpblqzbfdTs+Pt6kZ2QRERlz23OMOnVoxakzF9l34DjJKWkcPnqGQ0dOlypTUSyVqeO7WjRvzLnzEZy7EEGL5o3s10NDAggJ9ufrZRuIuHKVjMxszp2P4PTZS5Xud/t2zcnIzGbVmm1cT0zh0uVo1m/cdcdnKuqDs5MTRqORyxElMZ08fYGduw9VGMvGzXuIjUsgJjaBxUvXUcvbg6ZNwgDo3asjZ89dZufuwySnpHHsxDl27T1C7x4dy2wFWJWcHB3o1qUtW7bv5+jxs2RkZHE15hq79x4BSl5YLV66nrj4RPLzC7gSGYOjowNu39nerSo+q1tlZecwd/4Kavt40a1LW1JS0+1/AJo3bYgNG5u27CUzM5v1G3fh5ORIkyahQMlLs6+Xrqdr5zYE+Ne1P5uZmY0NmD1nGSvXbOVaQhIpqels33WI2LjrNG/a8PsPpoiIiNhpjqs5LlTNHDc0NIBA/7osXrqOiCtXSUxKZfvOg5y/GImrqzMFBYVciYwhNS2DHbsPceFSZKnnfXy8iYqOIyk5jdS0jIrH3wY5ObnExCaQlZVDdnZuqeRsxw4tKS4qZtmKzVxPTOFKVCzLV22hWXiDSh1fcpOrqwuJiSkkJqWScD2ZJd9svO024hXN2e9WRXNtby8PwsPDWLVmG2npmRw/eZ7LEVfp1KFlhc9rri0i9xJtiSwiIiIidg5mM09OeIDtOw+yZds+srJy8Pb2oH+fLrRt3RSAYYN7smL1Vj747zwC/OsyYmgfPvti6V2107BBEK1aNGbh4jU4OTsxdfK4MmVatWxCekYmu/YeYfO2fTRt0oDBA7qz/+AJe5mKYqlMHWViCwukoLCQ/PwCGoR9ez6qAXhk7HA2bd3L0uWbKCwqoq5fbXp0a1fpftfy9mTcmCFs3LKX4yfP41+/DiOH973j+FXUBycnR0YO68OW7fvZsfsQzcIbMHJ4X5Yt33THWAID6rJi9VZSUzMIDfFn3Jih9pUWDUIDGT9uOFu372f7roN4elgYMrAH7ds2r3Rfv68+vTrh4uzEzt2HWbNuB7VqedKmVTgAdWrXwsvTwleLV5OTk4dvbW/GPzQMp+9sL1wVn9Wttu88aH/p8/5Hc+3XjQYDb/zuORwczDw6bgQrVm9h/8ET1KvnyyPjRmC68eJv5ZqtFBYVsXvvkVIvssJCAnj80ft49OERbNm2jznzl1OQX4ivby3GjRlSatWAiIiIfH+a42qOC1UzxzUaDDz68Ag2btnD199soLCwiAZhQbRq2QQvLw/at2vOwiXrcHAw07F9S3r16EB8/LerZ7t0ak1MzDU+mbmQoMB6THhk1B3HP8DfDzc3V+Z+tYL8/AKg5DMLCwtk7OghWNxdmfTEaNZt3MXM2V/j6OhAqxaN6dfn7rb67d6lLdcSEvl01iK8vCz07dWZ/DusQL3TnP1uVTTXBhg1vB8rV2/lo+nzsVjceHD0YGr7eFfqec21ReReYUjLyPkeG3yIiPzv8bS4VFxIRETkJ+5aQhLTZy7k5ecfL3Puk4iIiIjIvejnOsfdsGk3+QUFjBzWFyg5AjY5OY3pMxYw5oFB9tXDIiJy79MKWxERERERERERERGRn5i09ExsNht5efk4OzthLS7mSmQMZrMJ//p+NR2eiIhUISVsRURERERERER+Yi5cjGTrjgMUFRXhX9+PUcP7YjQayc8vYPGy9aSlZeJTy5MxDwzC0cGh4gpFROSeM3RQTzZs3s1Hn8zHZgOjyUhQQD2mPPkQHha3mg5PRESqkLZEFhGpJG2JLCIiIiIiP5Yt2/fTvUtbHJ0cWbRkLU0ahdKmVThbdxzAZDTSq0cHNm3Zi7Oz0/c+o1tERERERH4ajDUdgIiIiIiIiIiIlNavd2ecnBwxAP71/UhNywDg3PkIWrdqAkDrVk04ez6iBqMUEREREZGqoIStiIiIiIiIiMhP2MWLUQQH1gMgMzMbi3vJNpgWdzcyM7NqMjQREREREakCOsNWRERERH525i9cRb16dejbq5P92o7dh9i24yBubi489vBI/Or41GCEIiIilXPoyCkcnRwICw0suWCAm2db2Ww2DAZDjcUmIiIiIiJVQytsRURERORnZceuQ+Tk5tGze/tS13t178DvXn2aYYN6MefL5SQlp9ZQhCIiIpUTERnDvgPHeWDkAPs1D4s7mZnZAGRm5eBhca+p8EREREREpIooYSsiIiIiPxuHjpzm+MnzPPzQMMwmU5n7ZpOJpuFh1Kvry4WLkT9+gCIiIpUUG3edlau3Mn7scFxdne3XmzYJ4/iJcwAcP3GO8PCwmgpRRERERESqiBK2IiIiIvKzcPT4WXbsPsSER0bh7uZqv56Sms6iJetITcsAICY2gZjYa/jVqV1ToYqIiNyRzWZj3oKVFBYV8dWi1Xzw8TxmzF4MQJfObYiJTeDD6V+SlJxKp/YtazhaERERERH5oQxpGTm2iouJiIinxaWmQxARkdtITknjw/9+iclkwmazUWy1AtCpQ0uGDe7FwcOn2Lv/GJlZ2bi7udKtS1s6tm9Rw1GLiIiIiIiIiIjUQMJ248bNfP31N3zyyX8AmDjxaSZOnECfPj1/zDB+sA8/nM6ePfsZOnQgffv2ZvbsufzhD7+p6bBqzKOPPsnzz0+la9fObNi4mcWLljBjxsfV0tY///lv3N3dePbZp6ql/r179/P++x+xYMGcaqlf7l1K2IqIiIiIiIiIiIiISFWrli2RX/nVb+nff1ipP598MqvcsuPGjSE8vHF1hFFtbDYb164lMG/eLKxWK2+/9XeGDRtc02H9ZDRv1pSHHhpd02H8KH75y9c4duxETYchIiIiIiIiIiIiIiIi9yhzdVX8/AtTeeD+URWWGzr03kt0GgwG3nrrjwA88cRjPPHEYzUaj9VqxWj86RxH7O9fH3//+lVW34/eP4Oh0kUzMzOrMRARERERERERERERERH5uau2hG1l3bqVrtVq5ZNPZrFzx27S0tPJzc0F4O9/f5v27dswc+bnbNiwCUdHR0aOHMYjj4wrU9/Qoffz7rt/o1mzcABef/1PNGsWziOPjGPjxs3s2rWXoKAA9u8/RFpaGs9MnUL/fn3K1LN5yzYWL1pCdHQMvr61+fWrv6BF82ZAyZa8der4EhsTy8VLlwF44w+/JTQsBICzZ8/x4YfTiYiIxD+gPlOnTqFD+3Zl2vjnP/+N0WQgOSmFpKRkbDYrL738PC2aN6MgP59Fi5exdu160lLTadK0Ma///jVq1fImMTGJac//guenPcOsWV/Qt29vOnfpyNw58zlx4iTOLi48PuERRo0aXqbNs+fO37ZcRf2605jc6tZtr6Oiopk27WX7vezsHF56cRo9enRjztwv2b1rD4VFRfTu3YNf/OJFjEZjuf2bOPH2SfGUlFTef/8jDh08gpvFjXFjxzBmzP0AxMfH89e/vcu1+Gt4eHow+ckn6Nqtc6nnCwoK+WT6DNZv2IS3tzdt2rSs1L+FSZOnEhUZzRtvvImD2cyszz7B3d2Nzz6bw9q16ykuLqZfv95MnfoUzs7OACxYsJhly1YC0KZ1S17+xfO4uGibXRERERERERERERERkf9VP51lmcCqVWs5cfwkn3/+CYsWzcPfvz7Tp/+HDh3aMmPGbCIiIpg7bxYzZnzMtm07OHT4yF23sW//QZo1b8ann37IL15+gf98UP45qznZObz26iusXr2UoUMH8d6775e6v2HDJh5/4lFmz/6Ejh3b88WcLwFIvJ7Ir371e0aOHMbKlV8z8YnHeP33bxIZGVVuOxfOX+KVX77Ip59+yPjxY/m/P75FQUEhBqMRBwczH7z/DitWLsbF2Zl5c7+yP5eclMyBA4f47LPpTJz4GOnpGYwZcz/Lli3kT//3Oh99NJ2UlNQy7VVU7nb9qsyYlCc4OIhVq5ayatVSXnr5eQIDAhg2fDC5+bk0axrO3HmzmDdvNvsPHGbXrj237d/t2Gw2fvOb1/HwtLB02Xz+8fe3WLjwa1avXgfA7M/m0rxZUxYtmsef//wG/gFlV/5++slMDh0+yuzZnzJ9+n/KrLC9Xb8/mzUdL08P3nzzDZYsXYCXlyfTP5nF0SPHmDnzv8z7cjZXY+J4790PAIiJiWXOnPl88sl/+OqrzxkwsJ+StSIiIiIiIiIiIiIiIv/jqi1h+8H7H9O37xD69h3CmNEPV+qZS5cu06ZtaxydnHB3dyO8SWMuXixZ6bl8+Sqee+4ZXF1ccXd3Y9jQIezbd/Cu4woJDqJrl04AtGjZnPT0DDIzs8qUGzlyGCGhwURFRePs5ExkZDQFBYX2+z16dCMgwB+AVi1bcDUmBoANGzfTsFEYQ4YMwmw206NHNzp1bs+aNevLjadNm1b41PYBoG/f3uTn53P+wgUcHBwYN+5BPDw9uHDxErV8vLl48ZL9OavVypMTJ2AymQDo0rkj7du3JS0tnYyMDJycnIi4cqVMexWVu12/KjMmd5KamsbHH33Cq6/+AkdHRwIDAhgydBA2m4HLly7j5+t7x/7dzpkz54iKjuH5ac/g5ORMSEgwD48fy/LlqwDw8PLk9JmzXI2JoV7dugQFBZZ63mq1smbtBl568Tl8fWvj5uZKt65dSpWpbL+tViurVq7l6Wcm4+NTCw+Lheefe4bNW7aRlZWNi4sLNpuN3bv3UlxcTMeO7Ss1diIiIiIiIiIiIiIiIvLzVW1bIr/40nOVOsP2Vm3btObLrxby+OOPkJuXz4lTpxn38INkZGSSl5f3/+zdd3QVZeLG8ee29Ep6oUroXZAiIEUQpClYUQTBBQv2trqWdV31t+rasaACKlYUsbAU6SgdEQFpKtICJCG93vr7A42GmpDcTG7y/Zyz5yQz78x9JnPMhvvc9x396/GnZPp99qOjxKFOnTtUKqPVeqwMdDhOLN+WLVupme9/qObNmikpKUEej0d2u11+frYTxlqsFjntTklSRkaGkpOSyuxPTkrSocOHz5jHZDIpODhYOdk58ng8mj79Pa1Zs1YdO3aQPB4VlRSXGR8UHFT69Z5ff9Nzz72kiHoRatumtfz8/FRcVHz8S5R73PHXVdGfyfFefHGK+vW9QG3atpZ0bGnkp59+Tjk5uerYsb2sNquKik59faeSnp6h6Kh68vcPKN2WnJSkjIwMSdLNN/1Ns2bN1r33PKiGDevrzjtvU3x8XOnYgoJCFRUVKbl+0gnnruh15+bmqaSkuLTwlqSk5ES53W4dPXpUDRs20JRXntf0Ge9p+oz3NHr0lRp5acX+GwEAoDZbuc555kE1SOP6ZiUn1KgFawAAAAAAAOCDDH+G7V917nKuZn7wkR55+HGVlJTotsk3KSWlqdxutwICAvTQP/6uxo0bnvYcfjabHA576fduj7vCOTLSj+rpp5/Tu++8peiYKGVmZunNN6eX69jo6GitX192qeaDB1PLlISnkpeXr4yMo4qLi9OSpcu1ft0GTZnygmw2m5YsWabtO3ad8thHH/23Jk4ar549e0iS5n49v1LjjleZn8nKFd9p187dmjb99dJtr7/xpmJiovXYYw9Jko4ePVqucx0vJiZaR49mqaSkuLS0PZh6UDExMZIks9msK6+8TJdfPlJvvjldjzzyuKZOfaX0+NDQEPn5++vI4TTFxsZW+LpN5j/fpA0LC5W/f4AOHkxVTEz0sSwHD8lsNisq6tgs6ibnNNbjjz+iAwcO6vbb71FCXNwJz9QFAKCuSj8qzVlgP/PAGuLJ+wPOPAgAAAAAAAA4g2qfEmCxWMoUqn+1dOlyNUtJ0TPPPqmXXv6vevY6ViqazWYNHXqxXnppio5mHJXH49GOnbtUXHzizNDk+klaueI7lZQUa+HCRfpx85YKZ8zOyZHZbJLb41JhYYE+/vjTch87cEB/7d79ixYuXCSXy6VVq9Zo7doNGjx44EnH/7h5i/bt36+ioiK9/PJratq0iVJSzlF2ZpZs/n5yOp06ciTtlEsq/yEzK1Nms1lOp1MLFy7S4bS0So073pl+JlaL9aQzlXPz8vTCi6/onntuV0DAn29qZmVmy2azyeVyaeu2n7RhffmfR2yxmOX4fUniVq1aqEGDJL366puyl5Ro7959+ujDTzV8+BBJ0gcffKxDhw/LbDarQYPkkxb4F/Tuqekz3lNOTq7S0zP0xZyvyn3d0dFR2rVrt5zOYzOChg4brKlTpykzM0t5efl67dWp6t+vj0JCgrV9x04t/GaxHA6HoqOjFBISIpfbVe7rBgAAAAAAAAAAQO1TLc+w7dt3kB566DFJUqtWLZWTnaPP53x5wjGdO3fS0qUrNHjwJRo8+BKNGnmVHn303yosKtSkSePVsmULTZx4i0aOvErT3n5HWdnZJ5xj0sQJ+m7VGo28dLT27TugESOGVTh706ZNNGBAP40bN0k333yn2rRupeByLM8rSTGxMXr66X/r89lfasiQUXrr7Rl6/PGH1ajRyWcGR9aL1DPPvKCRI69WVmaWHn/8UUnSwIsGyGqxaNSo0XrqqWc1cGD/077u5Mk36umnn9NVV12ntLR0derQrlLjjnemn0m37ufpxRdeOeG4T2d9rqysbD3y6OMaOnSkhg4dqSlTpuq660Zr1XdrNHz4Ffr6q3nqf2HfcuWQpPO6dNa8+Qv1y8+/ymQy6amnHldmZpYuvfRq3Xvvg7rssks0ZMggud1uBQUF6567H9CIEZfrs9lf6J577jjxZ3LrjQoLC9Po0dfr3nsfVJ8+vct93WOvu1Yff/ypRo26Wvv27dekiePVtm1rjR8/SddcM05x8TG66+7bJElhoaFaufI7jRp1ta4ZPU5dupyrHj26nZAHAAAAAAAAAAAAdYcpO7fQY3SIPzz15DPq0rWzLux/rLzLysrWrbfepRsmjFOfvr1Pf7APeuaZFxQWFqpJkyYYHQVAOYSHBhodAQBqtdnznD63JDLPsAUAwHcdPpKh9Ru36Metu3T5pRepWUqj0n3btv+sbxavksPpVJNG9TX04j7y97MZFxYAAAC1Wo16h2n//gNy/mVZ3aNHM1VQUKBzUpoYmMq73O6KP2MXAAAAAAAAlZcQHyN/P78y21IPpet/C1Zo7LWX6J7br1dERKi+/t9SgxICAACgLrAaHeCv7rzrNr38ymv66KNPZbVZFRYWpn899rDqJycbHQ0AAAAAAAC1SHxctOLjorVm3eYy21MPpalBcoIiI8IkSX17n6enn5+m4uISBQT4GxEVAAAAtVyNKmxTUs7RSy8+a3SManPvvSc+TxUAAAAAAADGiYuN0rKV65SVnauwsBBt3/GL3C63jmaxT7LeAAAgAElEQVRmKykxzuh4AAAAqIVqVGELAAAAAAAAGKl+crzO79ZJMz/8SiaT1KNbR4WEBMnl4rFWAAAA8A4KWwAAAAAAAOAvundtr+5d20uS3B6P5n/zrYKCAg1OBQAAgNrKbHQAAAAAAAAAoKbaty9VNptVUVERRkcBAABALUVhCwAAAAAAAPzO4XRq6fK1Ki4uUXZOnuYtXKke3TrKZHQwAAAA1FosiQwAAAAAAIA65+XX3ldeXoEcDoc+mT1fZpNZN028SsHBgcrNK9DzL78jPz+bunRuqx7dOhodFwAAALWYKTu30GN0CADwBeGhPK8IALxp9jyn5iywGx2j3J68P0DJCSxYAwAAAAAAgMrhHSYAAAAAAAAAAAAAMIjXl0S2WMzys1lls5plMvG0DwCV4/F45HC6ZXc45XK5jY4DAAAAAAAAAABQKV4tbAMD/GSzWkRPC6CqmEwm+dksslktcjhdKir2naUzAQAAAAAAAAAAjue1JZFDgvxls1HWAvAOk0my2SwKCfI3OgoAAAAAAAAAAMBZ80phGxjgJ7PFLLpaAN5kkmS2mBUY4Gd0FAAAAAAAAAAAgLNS5YWtxWI+tgxyVZ8YAE7CJMlmtchi8dqCAQAAAAAAAAAAAF5T5c+w9bNZWQYZQLUymY797ily8TxbAAAAAKhrbn24SDl5HqNjnFT9BLOeuD/A6BgAAACo4ap8SprNyiw3ANWP3z0AAAAAAAAAAMAXVXnDYWJ6LQAD8LsHAAAAAAAAAAD4IqakAQAAAAAAAAAAAIBBKGwBAAAAAAAAAAAAwCAUtgAAAAAAAAAAAABgEKvRAQAAdZvd7tDX85bpSNpRSdLggb3UqGGSJGnrT7u1bMU6SSb179NNLVs0MTApAAAAAAAAAABVjxm2AABDpR5OV4vmTXTT367SpcMv1JyvFkuSSuwOLVm2VuPHjtK4ay/RgkXfyuF0GpwWAAAAAAAAAICqxQxbAIChGjVILP06Pi5ahYXFcns8+nXPfjVskKigwABJUlJinH7be1Ap5zQ0KioAAAAAAAAAAFWOwhYAUGP8+tsBxcdFy2wyKS+vQKEhwaX7QkODlZdXUK7zpKbneisiAC/KK7RIMhkdo9zSsvJl5q9pAKjREmPCjI4AAAAAAGdk+FtM6zds0suvTNXu3b8oLi5G1425WiMvHVq63+1265Upb2r251/JZDLpqitHatLE68t9/Nz/LdTb095TauphNWiQrBsnXq9+/XpX6zUCAM6spMSueQtWaPjQfqXbPPL8+bXHI5OpfEUOb8wBvik0yCnJbnSMcouNDFFiDE8YAQAAAAAAQOUY+g7Trl0/6447/65LRgzR7E/f0/hx1+rJp/6r1WvWl46Z+f4nmjd/kV5/9Tm9/OJ/9OmnX+iz2V+W6/it27brv8+9oltuvkFzZs/UoIv6676/P6odO3cbcr0AgJNzud2aNXuBOnVopfpJ8ZKksLCQMjNq8/IKFBYaYlREAAAAAAAAAAC8wtDCtlmzppr57lSNvHSoEhLiNHz4YPXu1UOLFi2TdGw21fsfzNJNN45XixbN1KZNK02YcJ1mzvykXMe3ad1Sc2a/r/79LlB8fJzGX3+tYmNjtOYvhTAA77tu7I0aedkYHc3MOmFfWlqGRo4ao/ETJhuQDDWBx+PRnC8XKTo6Ut27dijd3qRxsvbuS1VhUbHy8wuVeihNDRsmnuZMAAAAAAAAAAD4HsOXRG7cuGGZ78PDw5SXly9JOnjwkNLTM9T53I6l+zuf20FPP/OiMjOzVK9e5GmPl6SwsNDSr91ut+x2uwICArxxKQBOwe1x67ff9un68TfrrakvKzY2WtKxsnb8DbcoNfWw2oa1MjgljLJ2/Y/asm23YmPq6aVXZ0qS+vTuonZtmqt/326a9s5nkqRBA3rKarEYGRUAAADlVFhYrNVrf9DmLTvUplWKBl54fuk+u92hL+cu1f4Dh2W1WtTr/HPVoV0LA9MCAAAAgLEML2z/yu12a+P3P2jkpcMkSYePpEmS4uJiSsfExh77+vDhNNWrF3na4/8qNzdPr78xTTabTYMHXeitSwBwEi8+/38af8Nk7d9/UNdPuFnT335VLpdLN0y8VYcOHVH9+kl67tknjI4Jg3Q7r726ndf+pPvatEpRm1Yp1ZwIAAAAleXxeBQeHqLIiPAT9i1aulp+fjbdcet1ysvN1xvTPlHDBomKjAgzICkAAAAAGK9GFbZffjVPWVk5GjH8YklSSUmJzGazLH+ZUeXnZyvdd6bj//DAg//SN4uWKjQkRK+88ozCw/lHIFCdoqLqadpbr5SWthNumCy7w6H09Aw1aJCst998WVFR9YyOCQAAAKCKBAcHqnOnNjp8JOOEfbl5BWrRrLFMksLCQhQbXU85ufkUtgAAAADqLEOfYftXe/ft13+fm6Lbbp2kyMgISVJAgL/cbrecTmfpuBK7vXTfmY7/w/333a6Z776h0aMv08233K216zZ6+WoAHO+P0rZ+/SQdTD223Hn9+kmUtQAAAEAd061LO61e+4PS0jOVm5uv4hK7khPjjI4FAAAAAIapETNsc3PzdOddD6pH9y66/LIRpdsTExIkSUeOpCkpKfHY14ePLZOcmJhwxuP/EBERroiIcLVo0Uw5Obl67fW31fW8c715SQBOIiqqnt5+82X9beLtMplMmvrGC5S1AAAAQB0THR2pAH9/ffH1YmXn5OnCvt1ltVrOfCAAAAAA1FKGF7Z2u0N33v2gAgMD9dg/HyizLyEhTgkJcVq/YVNpYbthwyad06Rx6bLGpzs+Ly9fQUGBZZZU9vf3V15evpevCsCpREdH6fPZM42OAQAAAMAgH3w8V4MG9FSD+gn65df9mvPVItWrF66G9RONjgYAAAAAhjC0sHW73Xrgwce0f/9Bvfj8U8rIyJTH45EkxcXFyM/PT2OuvUqvvzFNzZs1lcvl0rQZ7+u2WyeV6/gXX35de/bs1c03TVBCfLy2bv1Jn8yaozHXXmnYNQMAAAAAUFfl5OYpNy9fDeofWzXrnCb11aF9S2376WcKWwAAAAB1lqGF7eLFy7V02UpJ0jVjJpbZN+2tV9ShQ1tdecWlOno0UzfdcrdMJpOuGX25hg8bXK7j77rjFr319rt65NEnlZGRqdiYaI0bO1rXjxtdDVcHAAAAAAD+KjgoSB6PR9t3/KqWLZqopMSuX/fsV9vWzYyOBgAAAACGMWXnFnqq8oThoYFVeToAKLecvCKvnp/fbwDgXbPnOTVngd3oGOX25P0BSk4wGx0DAGqkL+cu1dZtu+V0uWSSZLFYdPGg3urQroUOHU7XvIUrlZOTL7PZpDatUtS3T1eZTSajY8NH3fpwkXLyqvTtrSpTP8GsJ+4PMDoGAAAAajjDn2ELAAAAAABql+FD+mr4kL4n3ZcQH6Px142s5kQAAAAAUHMxJQAAAAAAAAAAAAAADEJhCwAAAAAAAAAAAAAGobAFAAAAAAAAAAAAAINQ2AIAAAAAAAAAAACAQShsAQAAAAAAAAAAAMAg1qo+ocfjkclkqurTAsBpeTweoyMAAAAAtcZ3G5xGR6iQjq0tCgrkvQgAAAAAvqnKC1uH0y0/m6WqTwsAp+Vwuo2OAAAAANQa23e7tWKt75S2rz8VaHQEAAAAADhrVb4kst3hFBPdAFQnj+fY7x4AAAAAAAAAAABfU+WFrcvllsPpEp0tgOrgkeRwuuRyMcMWAAAAAAAAAAD4niovbCWpqNgut8tNaQvAqzyS3C63iortRkcBAAAAAAAAAAA4K14pbCUpv7BEDoeL5ZEBeIXHIzkcLuUXlhgdBQAAAAAAAAAA4KxZvXnyomK77Baz/GxW2axmmUwmb74cgDrA4/HI4XTL7nCyDDIAAAAAAAAAAPB5Xi1spWPPtC1y2VXk7RcCAAAAAAAAAAAAAB/jtSWRAQAAAAAAAAAAAACnR2ELAAAAAAAAAAAAAAahsAUAAAAAAAAAAAAAg1DYAgAAAAAAAAAAAIBBKGwBAAAAAAAAAAAAwCBWowMAAADAOw4fydD6jVv049ZduvzSi9QspVHpvmeen6aCwqLS7zt3aq2hg/tUf0gAAAAAAACgjqOwBQAAqMUS4mO0c9dvJ2wvKi7RfXdNUFBgQPWHAgAAAAAAAFCKJZEBAABqqfi4aHXu1EYBAX5ltheX2GUymRRIWQsAAAAAAAAYjhm2AAAAdUxRUbHMJpPemv6pcvPy1bB+ogYP7KXg4ECjowEAAAAAAAB1DjNsAQAA6piw0GANH9pPY68dock3XiOXy6U5Xy82OhYAAAAAAABQJzHDFgAAoI6xWCxq2zql9PvePTvrremfyiPJZFwsAAAA1FGFhcVavfYHbd6yQ21apWjghedLkjKzcvTSqzNPGN+5U2sNHdynmlMCAAB4D4UtAABAHed0umSxWChrAQAAYAiPx6Pw8BBFRoSX2V4vMlz//Mctpd8XFBTp7Xc+U6/zz63uiAAAAF7FksgAAAB1zJdzl2rT5u1yu93KLyjU4qWr1bpVU6NjAQAAoI4KDg5U505tFBMTedpx3yxZpa5d2ik8LLSakgEAAFQPZtgCAADUUi+/9r7y8grkcDj0yez5MpvMumniVep1/rmav3ClFiz6TpLUumVTXTTgfIPTAgAAAKeWnZOnXT//piGDLzA6CgAAQJWjsAUAAKilbr3pmlPuu/qKIdWYBAAAAKicn7b/rDatUmSz8nYmAACofVgSGQAAAPAxO3bt0Yez/qfHnpgiu91x0jHLVq7XP5+Yovz8wmpOBwAAUPW27/xVDRskGh0DAADAKyhsAQAAAB9jMZvVIDlenlPsz8zK0eYfd8hmYwYKAADwfS63WwdT05QQH2N0FAAAAK+gsAUAAAB8TErThmrftsUp98+dt1w9unWU2+WuxlQAAADekZOTJ7fbrdCQYKOjAAAAeAUfuQcAGG7b9p+1as0mhYYE66rLLy7d/uKU9yRJJpNJknTbzdcakg8AfMmWbbtVXFKizp1aa+785UbHAQAAOKMv5y7V1m275XS5ZJK04fttunhQb3Vod+wDagUFRbJZraweAgAAai3+ygEAGC46KlLNmzVWampame12h0P33H59aWELADi94hK7vlmySqOvGMLvTgAA4DOGD+mr4UP6nnJ//eR4/eP+SdWYCAAAoHp5rbA9eOCgdu7cLbvdXqHj/Pz81Lx5ipKSk7yUDABQ08TFRiknJ++EwtZsNlM4AEAFLF66Wm1bN1N8XLTRUQAAAAAAAFBOXitsd+7crW5dOykqKqpCxx09elRr1n5PYQsAdZzd7pDd7tD7H30th9Optq2b6dyOrcp1bGp6rpfTAdVj7mKL0REqZEh/V6WOzyu0SPKdD2mkZeXLbOB6NYWFRZKkQxl5stmscns82rR5u8xms9Zv3FI67qXXZqpfv15q0IC/rwGUX2Gxb/1OPpyRp4CAE7cnxoRVfxgAAAAAqCCvvcVkt9srXNZKUlRUVIVn5QIAah8/P5uuH3Op4uOilZdfqDenz1JiQowS4mPOeCxvzKG2WLOhSA6nx+gY5dKupUWJMcGVOkdokFOS7/wdGBsZosQYs2Gvn59/7E/5hOhQ+fnZJEkP3X9jmTH/fGKKbrvpWoWEBFV7PgC+LSjALslpdIxyi48OVVCg7xTMAAAAAPBXteYZtna7XR988LG++WaJMjIyFB8fr8suu1TDhl1sdLQaKyP9qO67/0EdPpwml8slk8msli2b6fHHH1VISOXecAWAqvDHkp6hIUFqkJyg9IzMchW2AFCbZWXn6rWpH8mjY2X+sy9MV2hosG696RqDkwEAAAAAAOBs1IrC1uFw6O67/q6Mo0c1bty1atSokXbv/kXTp81Qx47tlczyyicVHROladPeMDoGAJzU7p/3Kjw8VLEx9VRQUKT9Bw6pd8/ORscCAMNFRoTpwfsmlmvsP/9xi5fTAAAAAAAAoLJqRWH78cefau++fZr29huKjjm2DHPz5ikaOLCf/Pz8DE5XcW63W2ZzxZbXO5tjAKAmcDidenvGZyopsauwqFivv/Wxhg7uo8jIMM2dv0J5eQWSPOrT+zzFxtQzOi4AANVix6492rR5u3bt2qMH7p1Yuuy13e7QN0tWadv2nyVJzZo20pDBF8hmrRX/tAMAAAAAoE6qFf+qnzt3vkaMGFpa1v7h+LJ2/YaNmvbWO/p1z2+Kj4vT1VdfrkGDB5buHzp0pB56+AHNn7dQ69ZtUGhoqO644xZFR0fp+ede1t69+9W2bSs9+ND9CgsNlSQ99NBjio+PU0lJsVavWa+igiL16n2+7rpzsvz8/SVJ69Zt1Ecfz9L2n3YoKChQgwYN1IQJY0sL1qFDR+qxxx7WZ5/N0fr1G/X8C08rJDhYH7z/sdat3yCHw6VzO3fQvffcqdDQkNLXbdeujTIzs/Tll3M1evSVuvbaq8pcb3le99FH/6FFi5Zq1arVCggM0A0TxumiiwaUniM19ZBemfK6ftj0owIDA3TRRQM0btyY0jeMDh8+oueee0lbt/6kwAB/DRp8kcZeN7r02gHgTGxWq2684cqT7ht7zYhqTgMAQM1gMZvVIDleO3ftKbP98JEM+fv76c7JY+VyufTeh1/pu1Xfq0/v8wxKCgDAn2bMcmjJdw6jY5zSsw8FKjaa510DAICax+enZObm5unw4SNq07bNacdt+v4HPfD3R9Tj/G56860puvrqy/X8i1P0xRdzy4x7/rmXNfLS4frqq0/Vvl0bPfHEf/Tm1Ol67F8Pa+b707Rv3wF98vFnZY6ZN+8btW3XVrM+mam33p6iHzdv0Yx33pckeTwezV+wUAMv7Kc3pr6su+66TR9//Km++3Z1mXP85+nnNHBAf839+jO1atlCy5d/qwYN6+uZZ57UCy88rZ07dmvG9HfLHPPxR7NkMpk0e/aHuuKKUWX2lfd1n37mOQ0c2F9ffDFLl14yXM8/P0X5+QWSpMysbN06+U75+/lpyivP6x8P3qdlS1foqf97pvT4F55/Wf4B/vrggxl65pmnZLPZZLXZTnsvAAAAAJxeStOGat+2xQnbG9RP0IV9u8tmsyogwF8N6icoMyvXgIQAAAAAAKCq+PwM25zcHElSSHDwacdNm/Gezj+/u8aMGS1JalC/vo6kpendd97TsGGDS2edXnfdaLVr31aSNGBgf32zaInuve9OxcRES5K6dTtPO3bsLHPuXr16aOCA/pKkhIQEjRo1Qu/N/FATJ46XyWTSIw8/UDq2Qf366tChnb7ftEm9ep9fur3PBb3Up2/v0u/Hjr2mzGsMGzZYixcvK7MtKjpakyZNOOn1lvd1x40do3PP7ShJGjT4Ir355nTt27dfrVq10JzPv5TJYtEDD9wnPz+bGquR7rv/Lt155326bsw1aty4oY5mZqp165aKiAhXRES4mpzT+FS3AAAAAEAVOpiapu07ftGQQRcYHQUAAAAAAFSCzxe2oSHHlibOzcs77bjdu37RTTf9rcy2jh3aa8aMmTqSlqaE+HhJksXy56Tj4N9LYIvF8ue2kGDl5+ef9rWSG9RXTk6uCgoKFRwcpOLiYi1cuFhr1qzTwQOpysg4qpCQkDLHNGnSqMz3Ho9Hq1at0fLl32r37p+Vm5Mjl9t93DGnL0fL87p/vd6Q4CBJUkHBsRm2u3buUtu2rUuXP5akdu3ayGq1aueOnWrcuKEmT75R/3rsSe3YsUuXjBimfv37lhkPAAAAoGo5XS49+/w0FZfY1e289mp6TgOjIwEAAAAAgErw+SWRw8PDFB0TpR83bzntOI88Mh33iIo/ZtXK46nQa55peOHvSwqbzSbl5xdo4t8ma+PGTRo/fqxmvDNVXbt3kecMJ/nXv57UtOnvauBF/fXGG69o7LgxZzzmr872dY+/PtPxP7Tft3l0bFD79u304YfvaNiwIfrww1m65ZbblZPDkmwAAACAt1gtFv39nr/pjsnXKTsnT1/OXWp0JAAAAAAAUAk+P8PWZDJp0EUDNGfOV7ps1CWKio4q3XfkSJrq1YuUzWZT85Sm2rTpBw0fPqR0/8bvf1BkZIRiY2OrNNOGjZtUPzlZgYGBWrhwkbJzsvXoow+WFsRnKk3T0tK0bNlKTZ06RSkp5/x+TMUyrFq1usKve7yUZilasOAbORwO2X5/Lu3WLdvkcDjUonnz0nF+/v4aMmSQBgzop6uuuk7ffrtKQ4YMqlhgAACAOsLtlm58oMjoGOXWprlFt433MzoGTiIiPFQ9u3fSu+9/oRFD+xkdBwAAAAAAnCWfn2ErSWOuvVoJCfG67fZ79M2iJdq5c7e+/nq+Jv7tFi1edOzT5teNu0YrVnynmTM/0v4DB7RgwTf68MNZGnPd6DJLHp+NNWvWav78hdq7d59mzZqt+fMXavQ1V0iSwiMiVFRUrE2bNuvQoUOaOfNDrV617rTnCwkJlsVi0fr1G5SRflSLFi/VzPc/qFCms3nd411yyTA5HA499X/Pas+evdq0abP+8/Rz6t27pxo3aaTcvDw98PeHtW7dRuXnF+inn3YoP79ASUmJFXodAACAuqa4xOMz/0PNsnDRd9q0ebtcbrfsDoc2btqmuNioMx8IAAAAAABqLJ+fYSsdm+H54ovP6t13P9Dbb81QVlaWEhISdMPfrtegwQMlSZ3P7aQnn/qXpr39jt577wPFxcZq8i2TNHTY4Eq/fuvWrfTDD1v06qtTFRIcojvumKxBg4697nldztWwoRfrkUf+rYAAP40YMVRjxlylXbt+PuX5goKCdc/dt+utae9o5syP1Lt3T91zz5168on/lDvT2bzu8aKi6umll/+rV195QzfffLuCAgN04YD+mjBhrCQpJDhYPc7vrldffUMHD6aqXr16mnTjDerQoV25XwMAAABAWVnZuXpt6keljyF59oXpCg0N1q03XaPzurTTvIUrtWDRd/K43WrUMEmXjRxocGIAAAAAAFAZpuzcQq98bH7J4mXq1rWToqIq9mnv9PQMrVu/Sf369/FGrCr30EOPKTQ0VPfff5fRUQB4WXhooNERANQxE+4pksPpGzMc27W06J5J/pU6x+x5Ts1ZYK+iRN735P0BSk6o+II1brc07q5CLyTyjs7trCyJDNRBb31o14q1TqNjlNvrTwUqKNBkdAwY5NaHi5STVzP/ZqqfYNYT9wcYHaPazJjl0JLvHEbHOKVnHwpUbDS/KwAAQM3jtRm2zZunaM3a72W3V+xNNz8/PzVvnuKlVN5R0WfDAgAAAAAAAAAAAIDkxcI2KTlJSclJ3jo9AAAAAAAAAAAAAPi8WvEMWyP9+9+PGh0BAAAAAAAAAAAAgI+q+EO3AAAAAAAAAAAAAABVgsIWAAAAAAAAAAAAAAzCksgAAAAAUIVy8jza8bPL6BgV0rUj/zQEAAAAAMAo/KscAAAAAKrYlHfsRkcot/7n29S1o9EpAAAAAACou1gSGQAAAAAAAAAAAAAMQmELAAAAAAAAAAAAAAahsAUAAAAAAAAAAAAAg1DYAgAAAAAAAAAAAIBBKGwBAAAAAAAAAAAAwCAUtgAAAAAAAAAAAABgEApbAAAAAAAAAAAAADAIhS0AAAAAAAAAAAAAGITCFgAAAAAAAAAAAAAMQmELAAAAAAAAAAAAAAahsAUAAAAAAAAAAAAAg1iNDgAAAAAAp1NYWKzVa3/Q5i071KZVigZeeH7pPofTqS+/XqJdP+9VSHCQhg6+QI0bJRuYFgAAAAAAoGKYYQsAAACgRvN4PAoPD1FkRPgJ+5YsWyO73aF77xivwQN76ZPZC1RUXGJASgAAAAAAgLNDYQsAAACgRgsODlTnTm0UExN5wr7NW3aqT+/zZLVa1PScBoqPjdLOXXsMSAkAAAAAAHB2KGwBAAAA+KSCwiIVFhYrJqZe6baYmHrKyMgyMBUAAAAAAEDFUNgCAAAA8EkOh1Mmk0lWi6V0m81qlcPpNDAVAAAAAABAxVDYAgAAAPBJwUGB8ng8cjpdpdvsDoeCggINTAUAAAAAAFAxFLYAAAAAfJLNZlV4WIiOpB0t3ZaWnqnoqAgDUwEAAAAAAFQMhS0AAAAAn9WxfUstW7FODodTO3f/poyMLDVPaWx0LAAAAAAAgHKzGh0AAAAAAE7ny7lLtXXbbjldLpkkbfh+my4e1Fsd2rVQzx7n6su5S/TMC9MUEhyky0deJKvVcsZzAgAAAAAA1BQUtgAAAABqtOFD+mr4kL4n3We1WjRyxIBqTgQAAAAAAFB1WBIZAAAAAAAAAAAAAAxCYQsAAAAAAAAAAAAABqGwBQAAAAAAAAAAAACD8AxbAIDhtm3/WavWbFJoSLCuuvzi0u1bf9qtZSvWSTKpf59uatmiiXEhAQAAAAAAAADwAmbYAgAMFx0VqebNGpfZVmJ3aMmytRo/dpTGXXuJFiz6Vg6n06CEAAAAAAAAAAB4B4UtAMBwcbFRio+NLrPt1z371bBBooICAxQSEqSkxDj9tvegQQkBAAAAAAAAAPAOlkQGANRIeXkFCg0JLv0+NDRYeXkF5To2NT3XW7GAauXx2IyOUG4ldqdS00sqdY68QoskU9UEqgZpWfkyn8Vf02635Et/hheXOJSaXlypc8xf6lufE+3Swa2oyLM//tj/XfnOPS4osis1vcjoGKhhCot963fy4Yw8BQScuD0xJqz6wwAAAABABfnOuwgAgDrHI8+fX3s8MpnK96Yhb8yhtjCZfKdA8fezKjEm+MwDTyM0yCnJXjWBqkFsZIgSYypeRB4rbAurPI+3BPjbKn1vA/0dmrfUUUWJvG9IvyDFRZ99yZwT4JHkO//9Bgf6KTHGdz4gguoRFGCX5DuPo4iPDlVQoO8UzAAAAADwV771UXcAQJ0RFhZSZkZtXl6BwkJDDEwEAAAAAAAAAEDVo7AFANRITRona+++VBUWFSs/v2cfY7IAACAASURBVFCph9LUsGGi0bEAAAAAAAAAAKhSLIkMADCUw+nU2zM+U0mJXYVFxXr9rY81dHAfJSfFqX/fbpr2zmeSpEEDespqsRicFgAAAAAAAACAqkVhCwAwlM1q1Y03XHnSfW1apahNq5RqTgQAAAAAAAAAQPVhSWQAAAAAAAAAAAAAMAiFLQAAAAAAAAAAAAAYhMIWAAAAAAAAAAAAAAxCYQsAAAAAAAAAAAAABqGwBQAAAAAAAAAAAACDUNgCAAAAAAAAAAAAgEEobAEAAAAAAAAAAADAIFajAwAAAAAA6pbnXpqh3LyCMtuioyI0+cZrThibmZWj2V98o/T0TMXHxWjkJRcqPCy0uqICAAAAAOB1FLYAAAAAgGp1123jSr/2SJrx7ufq0a3DScfOmr1ArVs21fjrRmr5yvWa/cUiXT/m0uoJCgAAAABANaCwBQAAAAAYZvOPOxQUHKDmzRqfsC8tPVPZ2bnq0b2jzCaTevXsrFXPvqXsnDxFhDPLFrVbYWGxlixfqx+37NT4sSMVHxctSdq8ZafmLVypoMAASVLXLu3UtUs7I6MCAAAAqCQKWwAAAACAYZavXK9Rlww86b70jExFRUXIbDJJkqwWiyIjw5SRkUVhi1rParWoVYsm2vPbgTLbi4tL1P289rqgVxeDkgEAAACoamajAwAAAAAA6qbUQ2my2axKToo76X6HwymbzVZmm81mlcPhrI54gKH8/Gxq0ri+/P3L/jdQXGJXUFCgQakAAAAAeAMzbAEAAAAAhti+81c1bJB4yv3BQYFyOBxlttntTgUFB3g7GlBjlRSXaNfuPdr6026FhYZoQP8eCgsNPuNxqem51ZDOGG53zX17y+F01+qf/fEKiiySTEbHOKW0zHw5PR6jYwAAYKjEmDCjI+Akau5ftAAAAACAWm3f/kNq37b5KfdHRUUoIyNLbrdbZrNZDqdT2Tm5ioqMqMaUQM3SvWsHnd+9k4KDA7X82w2aO2+Zrr5iyBmPq81vzJnNRZJqZglns5pr9c/+eMGBDkmOM44zSmy9EMVG19xCGQAA1F0siQwAAAAAMERWVo5CQ8rODNzz2wF98fUSSVK9yHDFx0Vr5Xcb5XK5tHzFejVulKyQkCAj4gI1QmhosIKDjy2J3LplU6VnZBmcCAAAAEBlUdgCAAAAAAxRUFisoKCyyxtnZefqwMEjcv++ZOWIYf318y/79H//fUv7Dx7W0EEXGBEVqBGcTpfWb9wqt9stSdq+4xclxMcYnAoAAABAZbEkMgAAAADAEA///cYTtnXq0EqdOrQq/T4yIkwTxo2qzlhAjbB67WZt3rJDR49ma9bsBaqfHK8RQ/upxG7XlDc+lMkkRUaGa8TQfkZHBQAAAFBJFLYAAAAAAHiZ2+PRsuXrtPGHbXI6XerQroUG9O8hq8VywtiV323UmnWbZTKZdH73Turetb0BiWG07l3bn/Te9+zeST27dzIgEQAAAABvobAFAAAAAMDLli5fqyNHMnTz366W1WbV7p9/k9l84lOKdu7ao42btmnSDVfK7Xbr7Xc+U3xclBo3SjYgNQAAAACgOvAMWwAAAAAAvMjpcmn9hi0aMbS/goMD5e9nU5tWKTKbTCeM3bx1p7p2aa+w0GBFhIeqc8fW2rxlpwGpAQAAAADVhRm2AAAAAAB40eHDGQoNDdH2nb9o9drNslot6tPrPLVs0eSEsenpWWWe4RsTXU+7f9lbnXEBAAAAANWMGbYAAAAAAHhRQWGRMrNyZLc7dMuNozX04j76/KtFys3NP2Gsw+GQzfbnZ6ttNqscDmd1xgUAAAAAVDMKWwAAAAAAvMhqsSgsNFg9unWU2WRS/aR4JSbE6kDqkRPGBgcHymH/s6C1OxwKCgqszrgAAAAAgGrGksgAAAAAgLPy3mcOHclwGx2j3CZc5afI8BOfG+ttMdGRysnNV1FxiQID/CVJbrdb8pw4NjoqUkfSj6rpOQ0kSWnpmYqOiqjOuAAAAACAakZhCwAAAAA4az9udxkdocYLCwvROU3qa/HSNRp8US8dOHhYaemZatQoSZI056vF6tCuhRo1TFLH9i31+ZeL1bplU7ndbm3ctE2jrxhi8BUAAAAAALyJwhYAAAAAAC+7dPiF+mruUj37/DQFBQXq8pEXKSgwQC63WwcOHlGjhsfK20YNk9SlcxtNnfaJTDKpd8/OSkyINTg9AAAAAMCbKGwBAAAAAPCyoMAAXXnZ4BO2W8xmTb5xdJltPbt3Us/unaorGgAAAADAYGajAwAAAAAAAAAAAABAXUVhCwAAAAAAAAAAAAAGobAFAAAAAAAAAAAAAINQ2AIAAAAAAAAAAACAQShsAQAAAAAAAAAAAMAgVqMDAAAAAADgCzIyPUZHqLDoeiajIwAAAAAAzoDCFgAAAACAcvB4pLsfLzI6RrkN6mPT6EtsRscAAAAAAJwBSyIDAAAAAAAAAAAAgEEobAEAAAAAAAAAAADAIBS2AAAAAAAAAAAAAGAQClsAAAAAAAAAAAAAMAiFLQAAAAAAAAAAAAAYxGp0AAAATuXFKe9JkkwmkyTptpuvNTIOAAAAAAAAAABVjsIWAFBj2R0O3XP79aWFLQAAAAAAAAAAtQ1LIgMAaiyz2UxZCwAAAAAAAACo1ZhhCwCokex2h+x2h97/6Gs5nE61bd1M53ZsVa5jU9NzvZwOqB4ej83oCOVWYncqNb2kUufIK7RI8p0PaaRl5ct8Fn9Nu92SL/0ZXlziUGp6caXOkV/kY/c2M18uz9kfn1cg+dI9LiiyKzW96CyP9a17e+RonorsZ398ZrZJkqXK8nhbfiXubWGxb93bwxl5Cgg4cXtiTFj1hwEAAACACvKddxEAAHWKn59N14+5VPFx0crLL9Sb02cpMSFGCfExZzyWN+ZQW5hMZ/cmuxH8/axKjAmu1DlCg5ySKtGkVLPYyBAlxlR8wZpjhW1hlefxlgB/W6XvbUigQ5KjagJVg9h6IYqLPvvFiHICPJJ857/f4EA/Jcac3QdEgn3s3sZFhSoy/OxLSJvZt+5tSCXubVCAXZKzagN5UXx0qIICfadgBgAAAIC/YklkAECNFR8XLUkKDQlSg+QEpWdkGpwIAAAAAAAAAICqRWELAKiRdv+8V2npxwragoIi7T9wSPFxZ55dCwAAAAAAAACAL2FJZABAjRQZGaa581coL69Akkd9ep+n2Jh6RscCAAAAAAAAAKBKUdgCAGqk6KhIjb1mhNExAAAAAAAAAADwKpZEBgAAAAAAAAAAAACDUNgCAAAAAAAAAAAAgEEobAEAAAAAAAAAAADAIBS2AAAAAAAAAAAAAGAQClsAAAAAAAAAAAAAMAiFLQAAAAAAAAAAAAAYhMIWAAAAAAAAAAAAAAxCYQsAAAAAAAAAAAAABqGwBQAAAAAAAAAAAACDUNgCAAAAAAAAAAAAgEEobAEAAAAAAAAAAADAIBS2AAAAAAAAAAAAAGAQClsAAAAAAAAAAAAAMAiFLQAAAAAAAAAAAAAYhMIWAAAAAAAAAAAAAAxCYQsAAAAAAAAAAAAABqGwBQAAAAAAAAAAAACDWI0OAABATbd67Q/6cesumUzSxPFXnHJcZlaOZn/xjdLTMxUfF6ORl1yo8LDQakxaMYWFxVq99gdt3rJDbVqlaOCF559y7O6f9+p/C1aoqKhYLZo30bCL+8hisVRj2qqxY9cebdq8Xbt27dED906Un5/tpON87V4CAAAAAAAA8F3MsAUA4Az8/f2UEB9zxnGzZi9Qi2ZNdP/dN6hRw0TN/mJRNaQ7ex6PR+HhIYqMCD/tuPz8Qn32xTcaMbSf7r7jeuXmFWjFdxurKWXVspjNapAcL88ZxvnavQQAAAAAAADguyhsAQA4g04dWqlJ4+TTjklLz1R2dq56dO8os9msXj07KzU1Tdk5edWUsuKCgwPVuVMbxcREnnbcTzt+UcMGiWrUMEk2q1UX9OyszT/uqKaUVSulaUO1b9vitGN88V4CAAAAAAAA8F0UtgAAVIH0jExFRUXIbDJJkqwWiyIjw5SRkWVwsspLz8hUTPSfpW5MdD1l5+TJ4XQamMp7avO9BAAAAAAAAFDzUNgCAFAFHA6nbLayz0O12axyOHy/1Dz+2mw2qyTJWQuu7WRq870EAAAAAAAAUPNQ2AIAUAWCgwLlcDjKbLPbnQoKDjAoUdUJDgqUw/7ntdkdDpnNZgUE+BuYyntq870EAAAAAAAAUPNQ2AIAUAWioiKUkZElt9stSXI4ncrOyVVUZITBySovOjpSR9KPln6flp6pqHoRMv2+ZHBtU5vvJQAAAAAAAICah8IWAICztOe3A/ri6yWSpHqR4YqPi9bK7zbK5XJp+Yr1atwoWSEhQQanPDur127W2vU/SpJatWyqAweP6Jc9+2W3O7R85Xp17NDS4IRVqzbfSwAAAAAAAAA1m9XoAAAA1GQ//LhD/5u/Qm63Wy63W08+PVVtWqdo+JC+ysrO1YGDR+T2eGQ2mTRiWH/NnvONvl39vRITYjVqxACj45/Wl3OXauu23XK6XDJJ2vD9Nl08qLc6tGuhI2kZMpuPfa7L38+mUSMG6Ov/LVNhYZFatWyqrl3aGRv+LGRl5+q1qR/JI48k6dkXpis0NFi33nSNz99LAAAAAAAAAL6LwhYAgNPo0K6FOrRrcdJ9nTq0UqcOrUq/j4wI04Rxo6orWqUNH9JXw4f0Pem+S4b1L/N903Ma6PZbxlRHLK+JjAjTg/dNPOk+X7+XAAAAAAAAAHwXSyIDAAAAAAAAAAAAgEEobAEAAAAAAAAAAADAIBS2AAAAAAAAAAAAAGAQClsAAAAAAAAAAAAAMAiFLQAAAAAAAAAAAAAYxGp0AAAAqkNWjsfoCBUWGW4q1zhfu7byXtep+Nr1SpW/ZgAAAAAAAAC1F4UtAKBOWLjCqbmLHUbHKLenHwyQVL6S78H/FKug0DdKzJZNLXpgsn+lzrFyrVOf/s937uU/7wygsAUAAAAAAABwSiyJDAAAAAAAAAAAAAAGobAFAAAAAAAAAAAAAINQ2AIA8P/s3Xd0FGee7vGnk3IrC2UJhACJIHKOJicbG3DOHtvjOOMJOzM7d/fuPfecnZ2z13fP7N4J3rHH9tgzTtjYxuScMTknEUQUKKDUit2t7vuHTIOQBEIGlcL3c46P1VVvVf/erq5uUY/etwAAAAAAAAAAMAiBLQAAAAAAAAAAAAAYhMAWAAAAAAAAAAAAAAxiNboAAACacujICa3fuEOSSZMmjFBmRprRJQEAAAAAAAAAcEcR2AIA2qQap0tr12/X88/Ol6fWo3fe/1zp6SmyWfnqAgAAAAAAAAB0HEyJDABok07nnFdqSoKCAgMUEhKkxIRYnTl70eiyAAAAAAAAAAC4oximBABokxyOCtlDgn2P7fZgORwVzdo2t6CswbJqp1mTxt6x8ppkkkleeX0/X3V1WWPtG1ufX1Quj6mxLRoaMbh1/v6qqVqbs8217TzKLaj5XnU4Ku7esbzx+Hnlrfd/SfWWNbXN1Z8lqbC4QgFBzX/Nrjdu5N07tk0dz8b60Lw2ru9/bCvv7nna1DG93u28v/OLy2VuwW/THo80aezdPbZ39n3sUm5B9feqyem+O8f2Zv263b5e/zi/qFy1LTttJUmOirt7jKWGtV+//Krmvp9Nciq3oKpFdXh0d49tY8ulln8X5V1xqMrZ8rqKSkyaNLaZX9At0Fj/mvO53Ng+JMlVW9PiY2vza53fnW6lucf8cqFDAQENlyfEhN6Nsjq9yspqbdu+T/sPHlPf3j00dfJo37pTOee1YtVmlZWVKzo6QrOmj1d8XIyB1QIAAABtH4EtAKDNuv7CnNfrlcnUvAukjV2Ye3reHSurzenIfWvM4w8YXUHr6WzHtjP1tzP1Vep8/VWM1Kur0UW0js52bBNipL49jK6idXS2Y4vb4/V6FRYWoojwsHrLa2qc2rR5lx6cO03R0ZH6dvt+ffbFcv341ScNqhQAAABoH5gSGQDQJoWGhtQbUetwVCjUHmJgRQAAAAAkKTg4UEMG9VVMTES95f7+fnrmyQcUEx0pk6ShQ/qquKRMFZUtG+kNAAAAdBYEtgCANimtW5LOnstVZVW1yssrlXspX6mpCUaXBQAAAKCZrlwpUUCAvwID/I0uBQAAAGjTmBIZANAm+dlsmnTPCL371y8kSdOnjJHVYjG4KgAAAADNtWbdNg0fmiWzmfECAAAAwM0Q2AIA2qy+vXuob+9OcqM4AAAAoAPZuHmXKquqNXb0YKNLAQAAANo8/sQRAAAAAAAAd8yuPYe1/+BxPfLgTGbJAQAAAJqBwBYAAAAAAAB3xN79R7Vxyy49+dh9CgkOMrocAAAAoF1gSmQAAAAAAAA026Il63To8Am5a2tlUt2I2pnTxyk5KU6LFq+VxWLR//vj31Tr8UiShg3pp5nTxhlbNAAAANCGEdgCAAAAAACg2e6bdY/um3VPo+v+5X+82srVAAAAAO0fUyIDAAAAAAAAAAAAgEEIbAEAAAAAAAAAAADAIAS2AAAAAAAAAAAAAGAQAlsAAAAAAAAAAAAAMIjV6AIAAMD389kXy+V2u/XYw7N9yzZs2qndew/rpz96pkX7vFJUom+WrFNVdY0CA/w1d84UhYaGqKbGqQVfrlBJiUNRkWGa98BU+dlsyj5xRus27pDb7VZiQqzum3WPzGazjhw9pfWbdkiSQkKCNXfOZIUEB92Jbnd4O3Yd1LoN2/XzN56VxWKRJJ09l6v3PvxSP3rlCUVGhLV435u27NahIyfkdtdq2JB+Gj40S5KUl39FXy5aLZfLrd6Z3TVpwogm23u8Xm3cvEsHD2XLZJK6dU3SjGnjZDaZvn/nO6HsE2e0Y9dBPfHovTdt9+5fF2rq5NFKSoz1LWvqfJWklWu26nh2jvz9bZo7Z4qioyKabJ+Xf0VLlm9QdXWNLBaLZkwbq5Sk+Lva744s58yF715Pp6KjwjVz+nh1iYn8Xvts6rOWz+bWk19QpLfe+VSvvPiIoqMiJElr129XUFCARgzr3+L9Op0uLV62Xnn5VyRJM6aOVdfUREmcxwAAAADQGTDCFgCADqCgsFiVldW+xydPn5Ofn63Z23u/+++q0zkXNGvGBL38wiPKzOiutRu2S5K2bt+nlKR4vfbSY4qJjtSOnQclSRdy8/TME/frlR8+phqnUwcOZUuSAgL99YNn5uuVFx9VTHSEtu888L372pn4+dl04tQ53+ODh7MV9l0Q11IVFVWSpJdeeEQv/uAhbdu+T8UlZZKkpSs2aua0cXr1pcd09myuLlzMa7K9yWRSfFyMXnv5cb3yw8d04WKecs5c+F61oWWaOl9zzl5UXl6hXnv5cU0cP0LLV26+aXtJuv/eSXrlxUc1bswQrVqz1ZD+dAQut1uffbFcjz40Sz9/41lNmTRKVdXVt97wFpr6rOWzuXWFhYZo5R0+P3IvFyijV5pefuERPXDfZH31zRpJnMcAAAAA0FkwwhYAgA4grVuyDh89qaGD++rS5QJFR0XodM55SZLH49GqtVt1/sJllZdXavCgPho7arA8Ho/+9PYn6tO7h07nnNfD82YoODhQkjR0cF/fvhMTYnXk2ClJ0rHjp/XYw7MkSf2zeumrb9ZqzKhBmjh+eL32VwPAtK5JkiSXy62i4lL17d3j7r8YHUiP9FQdPJStjJ7dVOvx6HJeoSLCQ33r9+w7or37j6qyslqxXaI0/4Gp2rPvqC5dLtC9MydIqhup6yiv8I2WDQ4O1NjRgyVJ/n42RUdHqKTUoQB/P5WVlSsluW4kVr++PXX0+GlNmTiy0fYR4aHq1aOrJMnhqFBNjVPhYfZWemU6tkNHTij7xBnNnTNFkvTJgqUaNKC3en73et/oZudrVr9eMklK756irxavkdPlarJ9bJcoSZLX61V+/hXf6EHcPpPJJI/H43ucmHBtRPTVkZRXikplNpk0dfJoJSfFae367SouKVOtp1aVldWKiY7QzOnjdf2Y9aY+a/lsbl2RkWEym0w6lXNe3bsl11tX43RpybL1yr1UIIvFrHvGD1dGz276ZMFS9c/KUGavNEnSp58v0+BBfZSeliJJ6pqS4NtHXGy0Kiur5fF6OY9x1338lUvL1ruMLqNJ//arACXGMdYAAAAAHR+/9QIA0AH07NFVh4+ckCQdPJStzF5p8nrrxsyazWb1yeyh55+Zr5dfeETbtu9TZVXdSK/CwmLFREfouafm+sLaG2WfPKPU5LoLyQ5HhewhwZIke0iwHI7yBu1PnDir1ORr0y9u3rZHb/7uXQUHBSqrX6871+lOICzMrjJHuWpqnDp16py6d0uWy+32rY+Pi9EzT9yv119+XFXVNco+eVZZ/Xrq5KmzcrrqLr4eOnJCWX0bf92rqmuUl1eo+LgYOcorfcdWkuwhQQ2O7/Xtr/r0i2X63R8+1NjRgxUVGX4nu48WaHi+XpvmNiQ4SOXllU22l6TTZy7oP/7rfR05dkrTJo9unaI7IKvFoulTx+rdDxZq6YqNulJU4lu3cs1W9erZTS88O18PPzhDy1Zu9K2zWMx6cO50Pf3E/bpSVKrs7Jwmn+P6z1o+m1uXy+nWpHtGavXabfJ4vfXWrVy9RUFBgXrtpcf02MOztHjZepWUOur+COa7UNXlcuvS5QJfcH6j02cuKC42WmaTifMYAAAAADoJAlsAADqAwAB/+fv7qbikTOcvXFbqdSN1JCkiIlTbdx7Q8lWb5fV4VVrqkCRZLBb1yUxvcr+X8wp18FC2Ro0YULfAdG3qZK/XK9MN9yvdteeQ/PxtSrtuxNGYkYP08588J5PJpHXrtwvN5/V4lZnRXUePn9ahIyeV1a+XL4iXpJjoSB05dkqLl62Xw1Gh4uIy+dlsyszorsNHTqrMUaHa2lrFRDc+wmrJsg0aMXyAAvz96p7vuomxvV41OL43tpekh+fN0E9ee0q79hzSqdPn72T3cZtudr5KDc/ZBu1VN/Lypz96RsOHZumjT5e0UuUd08D+mXr1h4/Jbg/Wex98qT37jkiSjp/I0Z69R/S3j7/RV4vWqLb22kjc6KgImSSZJHVLTdSFi3mN7rvBZy2fza3K4/UoJjpCyUlx2rvviEzma6939skzvtGvYaF2de+WrFOnz6tnj646cy5XtbW1OnnqnNK7p8psbvjP8Zoap5at2Kgpk0fVLeA8BgAAAIBOgcAWAIAOol/fnlq1dqtSkuPrXcwtKyvXB3//WlFR4Zo9c4IiIkLrhX5NKXNUaMHCFXpgzmQFBPhLkkLtIXI4KiRJjvJKhdqv3U/19JkL+nbHfj1w7+QG+7JZrRo6uK+On2h6tBga169PTx08nK2KysoGI1g/+OhrVVc7NWXSaPVMT5XXWxf8DB3cV/sPHtex46fVr0/PRve7YfMuudxujRoxUJIUag/2HVtJcpRX1Du+N7a/nt0erD6Z6co+eeb7drfT8ng8sliu/WrejFO0nludr17V3b845LuReo21v8pkMmnggN7Kyy9UVXVNyzsFBQUGaOyowXr0oVnavHVP3UKvVzOnj9MTj96rJx69Vy+/8Eij29Y4nfWCwKsa+6zls9kYE8YN07bt++X1XHfCNnHy2qxWdUtN1OmcCzqWfVp9+zSchrrW49GChSs0aEBvJSfGSeI8BgAAAIDOgsAWAIAOolfPbjp16lyDqS0v5uYrJjpS6WkpKi+vkOOGqRQbU1lVrb9/8o0m3TNCKUnXptDM7JWm/QeOSZL2HzimjIw033N8s2SdHn1oloKCAiRJLrdby1dtlstVN4Xv6ZwLiopiytzbZQ8Jktcr9UzvWm95VVW1iotLNWRQH5nNJuUVXPGti4oMl81q1Z59RxoNBXbuPqSTJ89q/gNTfffHDAjwV0R4qM6ey5XH6627d+5391psrH1e/hVt/XavvKoLG8+cy2VK5Nt06vR5HTlaN0Xq+QuX1SWm7t6TISHBKrxSLK/Xq6LiUuVeyr+2kan+SGjp5ufrgYPH5ZV08uRZxcfHyGa1Ntl+7YbtKvlu9P3Fi3ny87PJ/7rR1Gi+S5cLtHLNVt/U5FeKin2fjb16dtPmrXvk9dYdybKya9MXXykqkdfrVUVllQ4eOtHgvG/ss1bis9koQYEBGjywtw59d0sCSerZo5t27j4kSSotc+jU6fPqnlY3srlfn7p7g1/OK6w3PbVUN3L2q0WrFR0doZHDr42W5TwGAAAAgM7BanQBAADgzrBZrfrh8w8rMiJMTqfLt7xbtyRt3b5X//2XzxQfF6PoqManx73eosVrVVxcpnUbtmv12m2SpMcfma0Rwwfo84Ur9Pu3/q6oyHDNHzdMXq9Xf/vkG1ksZn382RJ5PF4FBvrrhWcfVGREmN5+b4G8Xq/Cw0I1d07DEV64tbn3TW5wwT0wMEA9e3TV79/6SDExkYoID6u3vl/fHjpwKFshwUH1ll+6XKClyzcoPDxUb739qbxer9K7p2jmtHGaMW2cFn69Si6XW30y05WY0KXJ9lMmjdKuPWX6439/rNraWvXq2dU3DSiaJzo6XF98tUrLVm5UWJhdD8+fKUlKSY6XPSRIv/v9B0pJTlCP60K7pIRYbd22Vw/Pn+Fb1tT5mpqSoLi4GP3+T3+Xn59N8+6fetP2aV2T9NkXy1VbWyuTyaTHH7lXZlPDEZ64tS4xkbJYzPrjf38sr9ersDC77r93kiRpyqTRWrJsg37/1kcKCPDXgKwM37lT5ijXX/76hRyOSo0c3l9JibG+fd7ss5bPZuMMG5qlXXsO+x5PnTxa3yxZp9+/9XeZzWbNnjFe4WF2SVJaWrIWLVmr3pnpDaat3r7zgA4ePqEuMZH6rz/+TZI0YdxQZfXtxXkMAAAAAJ2AqaSs8jYnXAOAzinMHmh0CQDQLF5JH3+2RIMH9lGvHl2NLgdA21qBkAAAIABJREFUM6xdv11+/jaNGTnI6FIAdCIff+XSsvWuWzc0yL/9KkCJcbeeHO71f65SqaNtXt5KjjfrX38ZcOuGHcT7C1xau6Xtvqfe/KdAdYnmD1kAAEDbwwhbAACADuRibp4WLVmn7mkphLVAe9M2swYAAAAAAHCXEdgCAAB0IIkJsXr5hUeMLgPAbZo4YbjRJQAAAAAAAIPcel4ZAAAAAAAAAAAAAMBdQWALAAAAAAAAAAAAAAYhsAUAAAAAAAAAAAAAgxDYAgAAAAAAAAAAAIBBCGwBAAAAAAAAAAAAwCAEtgAAAAAAAAAAAABgEAJbAAAAAAAAAAAAADAIgS0AAAAAAAAAAAAAGITAFgAAAAAAAAAAAAAMQmALAAAAAAAAAAAAAAYhsAUAAAAAAAAAAAAAgxDYAgAAAAAAAAAAAIBBCGwBAAAAAAAAAAAAwCAEtgAAAAAAAAAAAABgEAJbAAAAAAAAAAAAADAIgS0AAAAAAAAAAAAAGITAFgAAAAAAAAAAAAAMQmALAAAAAAAAAAAAAAYhsAUAAAAAAAAAAAAAgxDYAgAAAAAAAAAAAIBBCGwBAAAAAAAAAAAAwCAEtgAAAAAAAAAAAABgEAJbAAAAAAAAAAAAADAIgS0AAAAAAAAAAAAAGITAFgAAAAAAAAAAAAAMQmALAAAAAAAAAAAAAAYhsAUAAAAAAAAAAAAAgxDYAgAAAAAAAAAAAIBBCGwBAAAAAAAAAAAAwCAEtgAAAAAAAAAAAABgEAJbAAAAAAAAAAAAADAIgS0AAAAAAAAAAAAAGITAFgAAAAAAAAAAAAAMQmALAAAAAAAAAAAAAAYhsAUAAAAAAAAAAAAAgxDYAgAAAAAAAAAAAIBBCGwBAAAAAAAAAAAAwCBWowsAAAAAAAAA0DLHsnO0d/9RZWfn6B//4UX5+dl86zZt2a1vd+yXyWTS6JGDNHJ4fwMrBQDgzti2fZ8OHMqWySS9+NxD9dbx3Yf2isAWAAAAAAAAaKcsZrNSkuJ0PDun3vLj2Tnavfewfvj8w/J4PPrLX79QXGyUunVNMqhSAADuDH9/P8XHxehyXkG95Xz3oT1jSmQAAAAAAACgneqRnqr+/TIaLN9/6LiGD+2vUHuwwsPsGjKwj/YfPG5AhQAA3FmDBvRWWreGISzffWjPCGwBAAAAAACADqagoFgxMRG+xzHRkSq8UmxgRQAA3F1896E9I7AFAAAAAAAAOhiXyyWb7drd0Gw2q1wut4EVAQBwd/Hdh/aMwBYAAAAAAADoYIKDA+VyXrtI7XS5FBQUaGBFAADcXXz3oT0jsAUAAAAAAAA6mOioCOUVXPE9zi8oUnRUuIEVAQBwd/Hdh/aMwBYAAAAAAADoYAb2z9SOnQdVUupQUXGpdu89rIH9M40uCwCAu4bvPrRn1ls3AQAAAAAAANDWFJeU6U9//kReeSVJb/7uPdntwXr95cfVNTVRQ4f01Z/f/UwmmTRuzBAlxHcxuGIAAL6ffQeOaenyjfJ4PKr1ePSbf/+z+vbpoftm3cN3H9o1AlsAAAAAAACgHYoID9Wvf/Fik+vHjBykMSMHtWJFAADcXQOyMjQgK6PJ9Xz3ob1iSmQAAAAAAAAAAAAAMAiBLQAAAAAAAAAAAAAYhCmRAQAAAAAA2pjKymqt3bBdBw4e13NPz1VcbLQkqabGqQVfrlBJiUNRkWGa98BU+dlsBlcLAAAA4PtghC0AAAAAAEAbY7Va1DsjTXZ7cL3lW7fvU0pSvF576THFREdqx86DBlUIAAAA4E4hsAUAAAAAAGhj/PxsSuuWLH//+qNnjx0/rf5ZvSRJ/bN66ejx00aUBwAAAOAOYkpkAAAAAACAdsLhqJA9pG7UrT0kWA5HebO2yy0oa7CsvMoiyXQny7uj8ovKZbLcup3H03Yvb7ncnkZf+46qoh28p9xer9FlAABgqISYUKNLQCPa7m+0AAAAAAAAqM8kXY2bvF6vTKbmhWONXZgLCXRJct252u6wLpEhSoi59eRwZnOVrr0qbYvNam7WRdFjJ2v1m9/XtEJFLTN/lk33Tbn1vZKD28F7qkt02w2UAaAz+XaPW3/8wGl0GU164TE/jR1GhIbWw5TIAAAAAAAA7USoPUQOR4UkyVFeqVB7iMEVAQAAAPi+CGwBAAAAAADaicxeadp/4Jgkaf+BY8rISDO4IgAAAADfF4EtAAAAAABAG7Nt+3699c6nKigo1oKFK/TVN2skSSOGD9CFi3n6/Vt/V+GVYg0b3M/gSgEAAAB8X0zADQAAAAAA0MaMHN5fI4f3b7Dc38+mxx+ZbUBFAAAAAO4WRtgCAAAAAAAAAAAAgEEIbAEAAAAAAAAAAADAIAS2AAAAAAAAAAAAAGAQAlsAAAAAAAAAAAAAMAiBLQAAAAAAAAAAAAAYhMAWAAAAAAAAAAAAAAxCYAsAAAAAAAAAAAAABiGwBQAAAAAAAAAAAACDENgCAAAAAAAAAAAAgEEIbAEAAAAAAAAAAADAIAS2AAAAAAAAAAAAAGAQAlsAAAAAAAAAAAAAMAiBLQAAAAAAAAAAAAAYhMAWAAAAAAAAAAAAAAxCYAsAAAAAAAAAAAAABiGwBQAAAAAAAAAAAACDENgCAAAAAAAAAAAAgEEIbAEAAAAAAAAAAADAIAS2AAAAAAAAAAAAAGAQAlsAAAAAAAAAAAAAMAiBLQAAAAAAAAAAAAAYhMAWAAAAAAAAAAAAAAxCYAsAAAAAAAAAAAAABiGwBQAAAAAAAAAAAACDENgCAAAAAAAAAAAAgEEIbAEAAAAAAAAAAADAIAS2AAAAAAAAAAAAAGAQAlsAAAAAAAAAAAAAMAiBLQAAAAAAAAAAAAAYhMAWAAAAAAAAAAAAAAxCYAsAAAAAAAAAAAAABiGwBQAAAAAAAAAAAACDENgCAAAAAAAAAAAAgEEIbAEAAAAAAAAAAADAIAS2AAAAAAAAAAAAAGAQAlsAAAAAAAAAAAAAMAiBLQAAAAAAAAAAAAAYhMAWAAAAAAAAAAAAAAxCYAsAAAAAAAAAAAAABiGwBQAAAAAAAAAAAACDENgCAAAAAAAAAAAAgEGsRhcAAAAAAAAAAO2V0+nSoiXrdP7CZVmtFo0dPVgDsjIabXvi5FktXbFRVVXVyuiVpntnTpDFYmnligEAQFvDCFsAAAAAAAAAaKHV67bJz8+mN15/Sk8/Pker1m5VcUlZg3bl5ZX64utVmjN7on72xrMqc1Ro45bdBlQMAADaGgJbAAAAAAAAAGihMkeFUpLjZZIUGhqiLtGRKi0rb9DuyLFTSk1JUNfURNmsVo0fM0T7Dxxr/YIBAECbQ2ALAAAAAAAAAC00YmiWtm3fp/yCIpWVlau6xqmkhNgG7QoKixQTHeF7HBMdqZJSh1xud2uWCwAA2iDuYQsAAAAAAAAALRQdHaEAf399vXiNSkodmnzPSFmtDe9L63K5FRIS7Htss9VdmnW73LJZuUwLAEBnxm8CAAAAAAAAANBCH326RNOnjFFKcrxOnT6vr75ZrcjIMKUmJ9RrFxwUKJfT5XvsdLlkNpsVEODf2iUDAIA2himRAQAAAAAAAKAFSsscKnOUKyU5XpLUPS1ZA/pn6vCRkw3aRkdHKK/giu9xfkGRoiLDZTKZWq1eAADQNhHYAgAAAAAAAEALBAcFyev16uix05KkmhqnTuecV2REmCRp2/b92r7zgCSpd2a6LlzM06mc83I6XdqwaacGDsg0rHYAANB2MCUyAAAAAAAAALSA1WrRE4/cq2UrN2n5qs0ym03q27uHhg3NkiTl5RfKbK4bM+PvZ9O8OVO0eOl6VVZWqXdmuoZ/1w4AAHRuBLYAAAAAAAAA0ELxcTF67qm5ja67/95J9R6nd0/Rj199sjXKAgAA7QhTIgMAAAAAAAAAAACAQQhsAQAAAAAAAAAAAMAgBLYAAAAAAAAAAAAAYBACWwAAAAAAAAAAAAAwCIEtAAAAAAAAAAAAABjEanQBAAAAaNuWr9qsb3fslyRZrRZFRoSpb+8eGjVioKxWiyTJ5XLrD//9kcaMGqQhg/oaWe5tu5xXqLfe+VRvvPaUwsPsrfa8zXnNPB6P/ve//UmPzJ+hjF5prVZbZ7dz9yFt275PjvIKdYmJ0rQpo5WSFO9bX1lVrW+WrtPJk+dktwdryqRRyrzu+Nxq+/0Hj2vTlt0qKS1TVGS4JowdpswMji8AAAAAAJ0VgS0AAABuKTEhVo8+OFNOl0tnz+Vq3YbtOnX6vJ56Yo4sZrOsVovSuiUrOirC6FLvipOnzmnpio360StP3LF9dvTXrL3aseugtmzbo/tmT1RkRJi+3bFfH32yWK+//ISCgwMlSV8tWq3aWo9efekxnTt/SV98uVIvPPegYrtE3XL7i7l5WrF6s2bPmKDEhC46cChbCxYu1wvPPaj4uBiDew8AACTp5X+sUkWV1+gyGtU91aJ/+Ym/0WUAAIA7jCmRAQAAcEsWs1khIUGKjAjTwP6ZevKx+3T+wiXt3HVQkmQymXTfrHvUNTXxrtXg9Rp30ayisuqO77NZr5nJdMef904w8ljcbQOyMvTc0/PUvVuyIsJDNW3KGJnNZp3KOS9JulJUouyTZ3XvrHsUHmZXVt+e6tEjVTu+OxdutX1iQqxef/kJ9c7orrBQu8aOGiy7PcS3HgAAAAAAdD6MsAUAAMBti4mOVEZGmg4eztaIYf0lSb99821NnzpWA7IyfI/nz52mg4eydfzEGfnZrJo4YYRvvSQVl5Rp2YqNOnM2V8HBgRo6pJ9GDh8gk+qmKn7vwy/1zBP36+vFa1VUVKpf/fx5ud21Wr1umw4fOSl3ba3S01I0fcoY2e3BjdbqdLqa1T4v/4oWfrVKuZfyFR4equlTxyg9LUWLlqzTnn1HJEn/61//ID+bTb/+xYuSpNM557V63TYVFBYrKjJckyeOVHpaiiTpkwVLlZQYp1qPR7v3HpbT6VJW356aMW2crsawN75mNTVOLVu5SUePn1ZQYICGDukni7n+31g2tz/67jX8y/tf6P77Jmnz1j0qKiqR3R7i69tVRcWlWrFqs3LOXpSfn00D+mVowvhhslosvr6kpCSovLxSu/Yc0thRgzV29OB6z/XbN9/WvPunau+Bozp56pwCAwI0a/o42e3BWrxsgwoLi5SSnKC5cyYrMDDAt932nQe0bfs+VVXXKCkxVrOmj1dkRJgkKefMBa1YvUWFV4oVFmrXmFGDNLB/ZqPH+Wb7ac6xuMrPzyY/P5vvsdlkkr+/n6qrayRJZ8/lKjzMXm/67K4pidq151CztpekwIBro2K8Xq/ctW7ZrPzTDAAAAACAzooRtgAAAGiRuNho5ecX3bTNosVr1b9fL/3ypz/QsCFZWrJ8gy+4qqis0rsfLFRKSoJef+UJzX9gqnbtPqSDh477tq+pceqbpes1Z/ZE/cNPn5PJbNbHny3RmbMX9dD86Xr2yQdUU+PUex9+qRqnq8Hze6Vmt1+zbpvGjxuqF557UIkJXfTZ58tVWVmt2TPGa+L44YoID9U//fIl/eJnP5BUF9x9/tVKjR09RG+8+pTGjxmqBQtXqKi41LfPDZt2KsDfT2+8+qQee3iWdu46qNNNjKT0Svp4wVJdzM3Tow/N0kPzpuvKlRLVejwt6s9VLrdb+w4c02MPzdIvf/a8svr1rOtbVbUkqbyiUu/+daGsVqt+8PQ8zZ0zRYePntSXX6+ut5+t2/bKJOnnbzyrkSMGNPpci5dt0PAhWfrVz55Xakq8Fn69SqvXbdPD86brR688qcIrxdr67T5f+41bdmnv/qOa/8A0vfbS40pKjNNHny5RrcejWo9Hn36+TH379NDPfvSMZk0fJ891r8X1braflhyL6xWXlKmk1KGE+C6SpLKycoXaQ+q1CQ0NUWlpebO2v15VdY2Wr9osq8Wifn173rIWAAAAAADQMRHYAgAAoEVCgoPkcrvlucn0uBPGDVNat2SZTCYN6J8hl8utwislkqSduw4qMSFWY0YOkj0kSIkJsRo5fIAOHj5Rbx/jxw5VfFyMbFarcs5cUM7Zi5r/wDSlJicoLjZa8x+YqorKKu0/cKzB899O+0cenKnu3ZIV2yVKs2dOkMls0qEjJ2Q2m2U2m2UymWS1WnyjTtdt2K5xo4cos1eagoMDlZmRpvS0FB09ftq3z8yMNA0fmiWz2ayUpHhFRUXo0qWCRl+rs2cv6szZi5p3/1R1TUlQfFyMZk0f1+L+XG/W9PGy24NlNps1ZuQgWa0WHfrudd6x66BMZpMemDNZsV2ilNY1SXNmT9ThoyeVX3AtkLfbgzVl0ij52Wy+1+BG48cOUWpKgsxms7L69VJ1jVNzZk1UaGiIgoMD1SM9VRcv5UuqGym8ecse3X/vJCUlxsoeEqR7xg1TVXW1Ll8ulNPpUk2NU+FhdgUGBiitW7IGD+zT4DlvtZ+WHIvrrduwQ0kJsUpKjJUkudy1sljr999qscjldjdr+6s+/3Kl/v0//qIDh7L10LwZCrpu1DEAAAAAAOhcmHcLAAAALeIor5SfzSbzTe6zar5uOt8A/7ppYKtr6kbYXszNV86ZC/rtm2/72ni9XsXERNbbR2yXKN/Ply7lKzg4UF2uaxMQ4K+EuBhdzM2T1K/etrfT/vpabVaroqPC642WvdHFS/nKvVSg9Rt3+JZ5PN56U+Wab5jOOCDAz9f/G+VeLlBIcJDiYqObfM7b7X9jzGazIiLCVFxS+t0+C5SSFF8vhE1JSZDFbNbF3Dzfc11/HG62b19d3x3vG5ddHWFdUFgkp8ul9z/8st4+ams9qqioVGJCF02fOlZffbNGBw+f0LAh/dS9W3KD57zVfhqrTbr5sbjq0JETOnL0pJ5/dr5vmc1mlfuGcNbtrpXN1vCfVo1tf9XMaeM0euRAZZ88qw8/XqSH5k5TWiP9AwAAAAAAHR+BLQAAAFokNzdPsbG3DvEauG5Abp/e6Xrgvsm3tbmpwV1HJdNNQuPbbX+Vy+W+aRgtrzRj+tgm76l6s+0aYzaZ5L3JaOWrWtqf69XUOOvt58btTXULb2ufzVe/jz98/mFFhIc22nL40Cz1zkzXnr2H9fnCFeqR3lVz5zT+frnZfppZSj25lwr09eK1mjZlTL0QPTzMrrKy+tMfl5Y56gX1N9v+qqCgAAUFBSg+LkZVVdVat2EHgS0AAAAAAJ0UUyIDAADgtl3OK1T2iTPq369Xi/cRHx+j0znn5XI1PpVso9vExai8olIFhdem6q2pcSr3ckGj9wi93fZXlZaV68qVEiUk1LWxWMwN7p8aHx+j49k5za79VqIiw1VRWVVvVO+N0023tD/XKyl1qKi4VPHftY+Pi9G5C5dUW1vra3PufN3j5u6zJaKjI2WzWW/5GtpDgjR+7FA99fgcHTh0vMGo5+bu53YUl5Tpo08Xa0BWhoYO7ltvXWpKgsrKyuvVcebsRXVNTWzW9tXVNQ3eS1ar5ZajfQEAAAAAQMdFYAsAAIBbqvV4VF5eqaLiUu3Zd0R/++Qbde2apEGN3FO0uYYN7ieP16vPvliuy3mFKil1aPvOA8rLv9LkNt26Jik1JUGff7lS5y5c0uW8Qn3+1UoFBvhrQFbG92q/YtVmXbiYpwsX87Rg4XJFRIQqo2eaJCkqKkKlZeU6feaC7x68E8YN0/ETZ7R63TYVFZeqoLBIa9dvl9td26CO5uielqyoyHAt/HqVLlzMU+6lAn26YFm9Ub632/+rVq3Zqou51/oWGRGqzF51fRs6pJ9q3bX6ctEa5RcUKefsRX29eK16Z3Rv1jTILeXvZ9OoEQO1dsN27d1/VGVl5Tp/4bK2bNsjSTp/8bIWLFyh3EsFqqlxKufMBfn52RQcHHRb+7ld5RWV+vCjRYqOCteoEQNVVFzq+0+SIsJDlZGRpsVL16uk1KH9B4/r1OnzGjakX7O2X7V2m/76t6915lyuSkodOnTkhHbuPqS+vXu09KUEAAAAAADtHFMiAwAA4JYu5ubpzf98T1aLRRERYRo2uJ9GjRh48ymDbyEkJEg/eHqeVqzarPc+/FI2q1UpyfE3nRbWZDLpsYdna9WarfpkwVLVumuVlpasZ598QP7+fi1uHxgYoKx+vfTlotUqc5QrrWuSHpo7XVZr3X1d07unKKtvT326YKn8A/z10g8eVlrXJD3+yGyt27BD23ccUEhIkHr26Cq32+3b7naYzWY98uBMLVm2Xu9/+KXCwuyaMmmUyhzXpt+93f5flZwUp0VL1qm4uEzduibq4XkzfDXaQ4L03NNztXzVZr3z3ufy87Mpq29PTZww4rb7cLsmjBumwAB/bdqyW0uXb1RkZJgveO4SHanwMLs+XrBElZXViomO0KMPzpS/n+229nO7Nmza6QtY//MPH/qWm00m/c9fvyJJum/WRH2zZJ3+8NZHstuDNX/uNEVHRTRr+2mTR2vj5l36atFqOcorFWoP1piRgzRm1KAW1QsAAAAAANo/U0lZ5a1vlAUAUJg90OgSAAC4LZfzCvXWO5/qjdeeanCPVQAAPv7KpWXrXUaX0aR/+1WAEuNuPTnc6/9cpVJH27y8lRxv1r/+MuCW7Y6drNVvft92p8efP8um+6Y0/KOpG72/wKW1W9rue+rNfwpUl+hb/8Hhy/9YpYqqtvme6p5q0b/8xN/oMgDge/t2j1t//MBpdBlNeuExP40dxphHtB6mRAYAAAAAAAAAAAAAgxDYAgAAAAAAAAAAAIBBGM8NAAAAdFBxsdH6X//jVaPLAAAAAAAAwE0wwhYAAAAAAAAAAAAADMIIWwAAALRrTqdLW77dq3GjB8tisUiSPF6vCguLFR0VLq9XOnr8lLxeqV+fHjqenaOAAH+lpiRIkmo9Hm3cvEtjRg2SzcqvxwAAAACAOv/xX++rzFFRb1l0VLhee+nxBm2Liku18OtVKigoUlxsjObeP1lhofbWKhVAO8cVKQAAALRrTqdLGzbt1OgRA32BrdlkUpeYSF+bqMhwvfPe5+rbp4fOnb8kk8nkC2yrq2u0actuTRg71JD6AQAAAABt009/9IzvZ6+k9z/4UqNGDGi07YKFK9QnM13PPTVXGzbt1MKvV+vZJx9onUIBtHtMiQwAAIAOz+2ulcVikUlSdHSE8gqu+NblFxQpKjJcJpPJuAIBAAAAAG3a/gPHFBQcoF49uzVYl19QpJKSMo0aOVBms1ljxwxRbm6+SkodBlQKoD1ihC0AoNUcPnpSW7/dK3tIsB55cKZv+X/+4UNJ8oUlP3rlCUnSoSMntH7jDkkmTZowQpkZaa1eM4D2adGSdUpOilP/fr1UWVWtNeu2qU/vdElS78x0rVyzVadyzis5MU4bNu3UwAGZBlcMAAAAAGjLNmzaqXn3T210XUFhkaKiwmX+7tqW1WJRRESoCguLFR7GtMgAbo3AFgDQaqKjItSrZzfl5ubXW+50ufTzHz9bb3RbjdOlteu36/ln58tT69E773+u9PQU7i8JwKe4pEx/+vMn8sorSXrzd+/Jbg/W6y8/rrGjB2v5yk1asXqLJKlPZrqmTRktSfL3s2nenClavHS9Kiur1DszXcOHZhnWDwAAAABA25Z7KV82m1VJibGNrne53LLZbPWW2WxWuVzu1igPQAfAVW8AQKuJ7RKl0lJHg8DWbDY3mIr0dM55paYkKCgwQJKUmBCrM2cvqkf31FarF0DbFhEeql//4sUm1z360Kwmt03vnqIfv/rk3SoNAAAAANCBHD1+WqkpCU2uDw4KlMvlqrfM6XQrKDjgbpcGoIMgsAUAGMrpdMnpdOnvnyyWy+1Wvz49NXhgbzkcFbKHBPva2e3BcjgqmrXP3IKyu1UuAAAA2pGEmFCjSwAAAB3AufOX1L9frybXR0WFq7CwWB6PR2azWS63WyWlZYqKCG/FKgG0ZwS2AABD+fnZ9OyTDyguNlqO8kq9/d4CJcTHSJJvmlNJ8nq9DUbhNoULcwAAAAAAALhTiotL6w0skKScMxd04FC25syeqMiIMMXFRmvTlt0aM2qQNmzcqW5dkxQSEmRQxQDaG7PRBQAAEBcbLUmyhwQpJSleBYVFCg0NqTei1uGoUKg9xKgSAQAAAAAA0ElVVFYrKKj+9MbFJWW6cDFPHm/dgIM5907SyVPn9Nv/+47OX7ys2dPHG1EqgHaKEbYAAEOdOHlWYWF2dYmJVEVFlc5fuKRxY4YoPNyuFas2q7KqWp5aj3Iv5Wvu/VOMLhcAAAAAAACdzD//6qUGywYN6K1BA3r7HkeEh+oHz8xrzbIAdCAEtgCAVuFyu/WX979QTY1TlVXVeuudTzV7xgRFRIRqyfKN342m9WrCuGHqEhMpSZp0zwi9+9cvJEnTp4yR1WIxsAcAAAAAAAAAANx5BLYAgFZhs1r10vMPN7ru6cfnNLq8b+8e6tu7x90sCwAAAAAAAAAAQxHYAgAAoE1YuMylLbvcRpfRbD953l9J8WajywAAAAAAAEA7R2ALAACANqPgitfoEgAAAAAAAIBWxZAAAAAAAAAAAAAAADAIgS0AAAAAAAAAAAAAGIQpkQEAAAAAAAAAQIf3xw+c+naP2+gymvSn3wQqOMhkdBkADMAIWwAAAAAAAAAAAAAwCIEtAAAAAAAAAAAAABiEwBYAAAAAAAAAAAAADEJgCwAAAAAAAAAAAAAGsRpdAAAAAO6cbdv36cChbJlM0ovPPeRbXlRcqqXLN+rCxcvy8/fTiKFZGjVioCTJ5XZr0eK1yj55ViHBQZo9Y7y6dU0yqgsAAAAAAABAp8IIWwAAgA7E399P8XExDZZnnzijrH499cufv6AnH71PGzbv0pmzFyVJa9d/K6fTpX944znNmDpWny1coarqmtYuHQAAAAAAAOiUCGwBAAA6kEEDeiutW8PRsSOG9VdW314ySYqJjlBkRJiKikslSfsPHtdzLHb+AAAgAElEQVSEccNktVqU3j1FcV2idDw7p5UrBwAAAAAAADonpkQGAADoRGo9Hh09dkoOR4XSu6eqorJKlZXViomJ9LWJiYlUYWGxgVUCANqjY9k52rv/qLKzc/SP//Ci/PxskiSn06VVa7fq8NGTkqSe6V01a8Z42ax1lyROnDyrpSs2qqqqWhm90nTvzAmyWCyG9QMAAAAAWhsjbAEAADqJM2cv6rf/5219uWiNpk0Zo1B7sFwut0wmk6zXXRi3Wa1yud0GVgoAaI8sZrNSkuLkvWH55bxC+fv76SevPa0fvfyECgqLtWXrHklSeXmlvvh6lebMnqifvfGsyhwV2rhld+sXDwAAAAAGIrAFAADoJLqmJurXv/yhfvD0XG3YtEP7Dx5XcFCgvF6v3O5aXzuny6WgoEADKwUAtEc90lPVv19Gg+UpyfGafM9I2WxWBQT4KyU5XkXFZZKkI8dOKTUlQV1TE2WzWjV+zBDtP3CstUsHAAAAAEMR2AIAAHQiJkkJ8V00ICtTh4+ckM1mVVhoiPLyr/ja5BcUKToq3LgiAQAd1sXcfB09dkr9+vSQJBUUFikmOsK3PiY6UiWlDmZ6AAAAANCpENgCAAB0cB6PR598vkxnz+XKK6msrFxHjp1UbJdoSdLA/plav3GHXC63jp84o8LCYvXq0c3YogEAHYq7tla/ffNtvf3eAmX0SlN69xRJksvlls1m87Wz2erua+t2EdgCAAAA6DysRhcAAACAO2PfgWNaunyjPB6Paj0e/ebf/6y+fXrovln3aPjQLK1cs0UFhcWyWi3q27uHxo8bKkkaM2qwFi1Zq//zu3cVEhykB+dOk9VqucWzAQDQfFaLRb/6+QsqKXVo+arNWrRknebMnqjgoEC5nC5fO6fLJbPZrIAAfwOrBQAAAIDWRWALAADQQQzIytCArIb3DpSkbqmJeuHZBxtdZ7VaNHfOlLtZGgAAkqTwMLvGjBykD/7+tebMnqjo6AgdOXbKtz6/oEhRkeEymUwGVgkAAAAArYvAFgAAAAAA3DUrV29RTEyksvr1Um1trXbvPazYLlGSpN6Z6Vq5ZqtO5ZxXcmKcNmzaqYEDMg2uGAAAoOM5ePiE1m/cobKycnVNTdS9s+5RqD24QbtNW3br2x37ZTKZNHrkII0c3t+AaoHOh8AWAAAAAAB8L8UlZfrTnz+RV15J0pu/e092e7Bef/lxDRuapWUrN2nF6i3yejzqmpqo+XOnSpL8/WyaN2eKFi9dr8rKKvXOTNfwoVlGdgUAAKDDOXX6vNZt2K6H589QdFS4Tp4+L6ul4a2QjmfnaPfew/rh8w/L4/HoL3/9QnGxUerWNcmAqoHOhcAWAAAAAAB8LxHhofr1L15sdF14mF2PPjizyW3Tu6fox68+ebdKAwAA6PS2fLtXkyeO9M1y0qtH10bb7T90XMOH9veNvB0ysI/2HzxOYAu0ArPRBQAAAAAAAAAAAODuOHc+V5L053cX6L/++Det27ij0XYFBcWKiYnwPY6JjlThleJWqRHo7BhhCwAAAAAAAAAA0AHVOF1yu2t1PDtHTz8+R06XW+9/+KW6xESqT2Z6vbYul0s227XYyGazyuVyt3bJQKdEYAsAANBG7T9Sa3QJt6V/74b3vwEAAAAAAMaxWuomWp04YYT8/f3k7++nfn176uy53AaBbXBwoFzOawGt0+VSUFBgq9YLdFYEtgAAAG3U/2fvvqOjug+13z/TVEajXhFNokj0IkTvphkbGwyu2LGNS+I4jtN8znvem7Xuyrrrfde66+a89+Sec/we58RxjpM4jhuuGNNFN2DAdBBFVIEKaiNpqmbuHziyFUlIIDR7Rvp+/rFn75+GZzQze0b72b+9//UNr3z+oNExOmXMcAuFLQAAAAAAYcZisSglOVFlZZVKTHBIkgKBQJtj01KTVVZxXUMGD5AklVdUKS01KWRZgd6Ma9gCAAAAAAAAAAD0UBMKRmrrjn1yudxyOht0+Mgp5eflSpI++nSTzl+4IkkaP3a49u47oppap6qqa7X/4DGNHzvcyOhAr8EMWwAAAAAAAAAAgB5q2uRxcrnc+vff/kUmmTRt6ngNzu2vpkBAl6+UKWdgX0lSzsC+mlg4Sv/5xrsyyaRZMwqV3SfD4PRA70BhCwAAAAAAWnj9ba8CkXFWfknSE8ttsseYjI4BAAAQlkwmk+bPnar5c6e2WG4xm/XSCytbLJsxtUAzphaEMh4AUdgCAAAAAIA27NjrNzpCpz2x3GZ0BAAAAAC4bVzDFgAAAAAAAAAAAAAMQmELAAAAAAAAAAAAAAahsAUAAAAAAAAAAAAAg1DYAgAAAAAAAAAAAIBBKGwBAAAAAAAAAAAAwCBWowMAAAAAAAAAAACgY8Gg9NTPGo2O0a5R+Rb94w+jjY4BRBxm2AIAAAAAAAAAAACAQShsAQAAAAAAAAAAAMAgFLYAAAAAAAAAAAAAYBAKWwAAAAAAAAAAAAAwCIUtAAAAAAAAAAAAABiEwhYAAAAAAAAAAAAADEJhCwAAAAAAAAAAAAAGobAFAAAAAAAAAAAAAINQ2AIAAAAAAAAAAACAQShsAQAAAAAAAAAAAMAgFLYAAAAAAAAAAAAAYBAKWwAAAAAAAAAAAAAwCIUtAAAAAAAAAAAAABiEwhYAAAAAAAAAAAAADGI1OgAAAAAAAAAAwFi//pc31NDoar5dWDBSSxbPaTXO5/frk882q/jMBTni7FqyeLZyc/qFMGn7Kiqr9Opv326x7MEHFmrUiKGtxlZV12r1xxtUUVGlrMx0LV82X4kJ8aGKCgBACxS2AAAAAAAAANDLudwe/ePPn5U9Nuam4zYXfSmv16d/+OkzOn/hit5dvU4vv/iEYmOiQ5S0fS6XRxnpKXrx+491OPa91es0cvgQPfPkcm3dvk+rP96oVd97IAQpAQBojVMiAwAAAAAAAEAv5vZ4ZTKZFNtBWStJh46c0pxZk2S1WjRk8ABlZaTqVHFJCFJ2rNHlVrwjrsNx5RVVqqmp07Sp42U2mzVzRqFKS8tVU+sMQUoAAFpjhi0AAAAAAAAA9GIul1tmk0mv/+F91TnrNbB/thYvnKm4uNgW4xoaXWpsdCs9PaV5WXp6iiorq0MduU0ul1uV16v16m//Ip/Pr1Ejh+quOVNkNplajKuorFJqalLzcqvFouTkBFVWVispkdMiAwBCj8IWAAAAAAAAAHqxhPg43b/kLuXn5SgYlD76ZKM++myTHn9kSYtxPp9fJpNJVouleZnNapXP7w915DYNGTxQ9tgYDR0yULV19frz258qNjZG06eMbzHO5/PLZrO1WGazWeXzhcfjAAD0PpwSGQAAAAAAAAB6MYvFotEjhyrKZlN0lE2zZhTq3LlLCv7duDh7rILBoPz+puZlXp9PdnuswkG8w678vFyZzWYlJyWosGCkzp692GpcnD1WPp+vxTKv1y97XMenhAYAoDtQ2AIAAAAAAAAAmvn9TbJYLDL93XKbzarEBIfKyq83LyuvqFJaalJoA3aS398ki9XSanlqapIqK6sVCAQkST6/XzW1dUpNDs/HAQDo+ShsAQAAAAAAAKAX+2TNFh08dEKBQED1DY3atGW3Ro4YIkmqczbo3Q++UH19oyRp/NjhKtq2Vz6fX6dOn1dlZbXyh+YaGV+S1NTUpDff+lgXL11VUNK1skrt/eqwRo0YKkkqOX9ZH3+2WZKUkpyorMw0bd+5X01NTdq6bZ9yc/rJ4bAb+AgAAL0Z17AFAAAAIkhQ0uaiL3Xw6xMym00qLBilmTMKZZK0+uMNOny0uMV4k6Sf/2SV4tn5BAAAgHbMnD5BX6zfrnUbd0qSRg4fokULpkuSXC63Ll25JpfbLYfDrhnTJuiTNZv169+8IUecXQ8tXyRrG7NYQ81isWjm9Alat3GHKiqrFRMTrWlTxmvs6HxJUnVNnS5fKVMgGJTZZNLS++Zp9UcbtGP3AWX3ydCKpQsMfgQAgN6MwhYAAACIIHv2HtLFi1f18otPSJLeeX+t4g4e04TxI7V86QIt/86Ops1Fe+Tz+yhrAQAAcFPJSQl67OF721yXmZGqX7z8dPNtq9XS4jtnOBmU00+DVj3U5rqCcSNUMG5E8+3kpAQ9+/SKUEUDAOCmOCUyAAAAEEEuXynTiOGDFRVlU1SUTXNnT9b+g8dbjbteVaMjx4p11+wpBqQEAAAAAABAZ1HYAgAAABEkMyNVp4pL5PX65PF4VXz6vCoqqlqN27HrgCaMHymbjZPqAAAAAAAAhDP23gAAAAARZMrksaqprdP//s+3ZbfHasbUAjUFAi3GNAUCOlVcoh+9sNKglACA7nLoyCmtXb9d9tgYSdLkiWM0eeIYg1MBAAAA6AoKWwAAACCC2KxW3XfP3Obbl6+UyW6PaTHm/IUriouLVZw9NtTxAADdzO32aOqksZo9c6LRUQAAAADcIZwSGQAAAIhgZ85e0ID+fVosu3jpqvpkpRuUCADQndwer+wckAMAAAD0KMywBQAAACJI5fUanT13UYUFI3X5Spm+3HdYTzx6X4sx1dW1infEGZQQANCdPG6Pik+X6Ojx00qId2jBvGlKiO94m19aUddqWb3LIsnUDSnvjPKqepksHY8LBMJ395bPH2jzd//3KmukcN5NV9fgUWmFq8NxDRHwmvIHgx2OCwTD97nw+po69ZoC0DaXJ7y3U9cqnYrt4LisG5ux8N1Oebx+lVZ4OhxXXWeS1IkPeoPUOF0qrej4MyMSZacnGB0BbQjfdzUAoMc5duKMdn15UPGOOD360D3Ny48eP62ibXslmTRvzhQNHzbopssBoDczm006fvKsNm7eraSkBC27b5769c1sMaahwaXMjFSDEgIAutPUyeM0fWqB4uJitXXHV1qztkiPPXxvhz/X1o45R6xPkq8bUt4ZGSkOZad3fHI4s9klKTx3qNqs5k7tFK2rbZLU8c5toyTERSs73dbhuLgIeE1lpHVc1JhN4fuairJZlJ1u73DcoRNN+l+/Dd/X1GNLbVo8t+PX1O/+4tX2vf4QJLo9//Z/xSoxIXzLP7QWG+2VFL6vqay0eMXZb/6aulHYNoYkz+2IjrIqO73jg8kuJvglebs/0G1Kio9VdjoVGkKHVxsAIGTSUpOVn5er0tLy5mUer0+bi/bouVUPKtAU0Ov/9b6GDBmgQCDY5nKblY8uAL1bSnKiVn3vgZuO+d7K+0OUBgAQavHfmU07cvgQHTp80sA0AAAAAO4ErmELAAiZzIxUZWWktVh2ruSSBg7Ilj02Rg6HXX2zM3X+wpV2lwMAAAC9ld/fpH37jyoQCEiSTpw8yzXLAQAAgB6AaUoAAEM5nQ0trrMYHx8np7NBfn9Tm8sBAACA3spiMcvj9erV374tk0lKTk7U0iV3GR0LAAAAQBdR2AIADBf8zrWBgsGgTCbTTZd3pLSi7s4GBAwSDHZ8Tadw4fH6VVrRtWtkORvNiqQTwJRX18vMt2kAPVSj2yIpcq7Jd63SqZjo1ss7c+3QSGIymTRjaoFmTC0wOgoAAACAO4hdTAAAQyUkOFR69dtr2jqdDcobkiOf39/m8s7oaTvm0HuZTC6jI3RadJRV2elxHQ+8iXi7T5LvzgQKgYxkh7LTI6dgBoBbYY/xSvIbHaPTstLiZY+JnIIZAAAAAL6LPUwAAEMNyu2nCxdL1ehyq76+UaVXyzVwYHa7ywEAAAAAAAAA6EmYYQsACAmf36/f/9cH8ni8anS59drr72jJ4jnq1zdT8+ZO0RtvfiBJunvBDFktFsliaXs5AAAAAAAAAAA9CIUtACAkbFarXnjukTbXjRoxVKNGDO30cgCIZIGA9NG6yDn1syQtXxw511MGAAAAAACINBS2AAAAQIhFUmFbOIY/GQAAAAAAALoT17AFAAAAAAAAAAAAAINQ2AIAAAAAAAAAAACAQShsAQAAAAAAAAAAAMAgFLYAAAAAAAAAAAAAYBAKWwAAAAAAAAAAAAAwiNXoAAAAAABwM16vT5+s2aJLl6/JarVo5vQJGjdmmCTpbMklrd+4U7W1TiUkOLRw3nQNGTzA4MQAAABA1zW63Pr3197SiGGDtWTxnDbHbN+5X1/uPSSTyaTpUws0dfLY0IbshKLt+1S0ba9e+ckqORz2Vut9fr8++Wyzis9ckCPOriWLZys3p58BSQHAOMywBQAAABDWNm7Zragom3764yf11ONLtWHzLlXX1EmSTpw8p/vvnat/euV5zZxeqHc+WCufz29wYgAAAKDrNmzapZjo6HbXnyou0f6Dx/SD5x7Rc6se1K49B1Vy/nIIE3asqrpWhw6flM3W/tyxzUVfyuv16R9++owWL5ypd1evk8vtCWFKADAehS0AAACAsFbnbNCA/n1kkpSQ4FBGWopq6+olSUsWz1bf7ExJUt6QgfL5/HLWNxiYFgAAAOi6i5euquT8ZY0eObTdMYeOntLkiWOVEB+npMR4FY4fqUNHToUwZcfWrN2qaVPGK9AUaHfMoSOnNGfWJFmtFg0ZPEBZGak6VVwSwpQAYDwKWwAAAABhbcrEMdq952uVV1Sprq5ebo9X/b4paf/G4/Vp6/Z9GtCvj5KTEgxKCgAAAHRdUyCgz9YWafGiWTKZ29+FX1FRrfT05Obb6WkpqrxeHYqInXLk2Gm5PR4VFoxUU6Dtwrah0aXGRrfS01Oal6Wnp6iyMnweBwCEAtewBQAAABDW0tKSFRMdrY8/26SaWqfmz50qq9XSvH7bzq9UtG2f4uJi9cSj98lkMhmYFgAAAOia3Xu+VlpasvKH5ujq1fJ2x/l8vhanGrbZrGFzeRC3x6sNm3dp5cP33vT7uc/nl8lkktXy7fd7m9Uqnz88HgcAhAqFLQAAAICw9pd31ujuBTM0oH8fnT13SR99ulEpKYka2D9bkjRreqGmTRmv06cv6I9vfaxVTz6gtNTkDu4VAAAACD81tU7t2XdY33/m4Q7HxsXFyuf9ttj0+nyy22O7M16nbdqyW6NH5ikrM+2m4+LssQoGg/L7m5oPyvT6fHI44kIREwDCBoUtAAAAgLBVW+dUnbNeA/r3kSQNHtRf48YO17HjZ5oLW0myWiwaPmyQ9h88puLT5ylsAQAAEJEOHzklt9ujV197S5Lk9zcpKKm8okrPPLm8xdi01GSVVVzXkMEDpG/GpKUmhTpyK4FgUF8fPimz2az9B442L/+3197SimULlTdkYPMym82qxASHysqvq292hqQbjyNnYN+Q5wYAI1HYAgAAAAhbcXa7gsGgTpw8p+HDBsnj8epcySWNHpmnqupabdy8WwvmTVNyUoIuXynT5SvXNHXyOKNjAwAAALdl1oxCzZpR2Hy7aNte1Tc0asniOZKk3XsOyWw2afLEMRo/drg+/GSTRg4fokAgoP0Hj2nlw/calPxbZpNJv/zHH7RY9qv/+ap+/MLjcjjsqnM26Iv123XPollyOOwaP3a4irbt1cMr7ta585dVWVmt/KG5BqUHAGNQ2AIAAAAIW1arRU88ep/Wrt+uLzbskNls0qgRQzVp4hiZTSbl5vTTn/7yiZz1DXLE2TVv7lQNHtTf6NgAAABAtygrr5TZbJYk5Qzsq4mFo/Sfb7wrk0yaNaNQ2X0yDE7YMZfLrUtXrsnldsvhsGvGtAn6ZM1m/fo3b8gRZ9dDyxc1nx4ZAHoLClsAAAAAYa1PVnqr07/9zcQJozRxwqgQJwIAAABCY86sSS1uL7tvXovbM6YWaMbUglBGui2/+uWPmv8/MyNVv3j56ebbVqtFy5cuMCAVAIQPs9EBAAAAAAAAAAAAAKC3orAFAAAAAAAAAAAAAINQ2AIAAAAAAAAAAACAQShsAQAAAAAAAAAAAMAgFLYAAAAAAAAAAAAAYBCr0QEAAAAA9Gzrt/mMjnBLxo6wKDONY1sBAAAAAEBoUNgCAAAA6FbXq6W1WyKntB07wmJ0BAAAAPQgz/2DS15f0OgYbRo22KL/48fRHY776nCT/vUNTwgS3Z4nH4zS/BnUHQAiF4eNAwAAAAAAAAAAAIBBKGwBAAAAAAAAAAAAwCAUtgAAAAAAAAAAAABgEApbAAAAAAAAAAAAADAIhS0AAAAAAAAAAAAAGITCFgAAAAAAAAAAAAAMQmELAAAAAAAAAAAAAAahsAUAAAAAAAAAAAAAg1DYAgAAAAAAAAAAAIBBKGwBAAAAAAAAAAAAwCBWowMAAAAAAFpqdLm1Zu1WnTl3UVFRNs2eMVGFBSNbjCnavk9F2/bqlZ+sksNhNygpAAAAAADoKgpbAAAAAAgjQUl/fe9z5eb007L758nV6Na18ustxlRV1+rQ4ZOy2fiTDgAAAACASMcpkQEAAAAgjFy6fFUej1dzZ02SzWpVQoJDeUMGthizZu1WTZsyXoGmgEEpAQAAAADAncLh2AAAAAAQRi5evKq+2Zn6fN02FZ8+r6SkBN2zaJYy0lMkSUeOnZbb41FhwUit+WKrwWkBAAAAAEBXMcMWAAAAAMJIQ6NLJ0+dU35ern7y0pPKH5qj91avkyS5PV5t2LxL990zVyaTyeCkAAAAAADgTqCwBQAAAIAwYrVYlJ+Xq8G5/WWSNHniGF2vqlGjy61NW3Zr9Mg8ZWWmGR0TAAAAAADcIZwSGQAAAADCSHp6is6WXGy+HQwGpWBQgUBQXx8+KbPZrP0Hjjav/7fX3tKKZQtbXecWAAAAAABEBgpbAAAAAAgj+Xm5Wr9xpw4fLdboUXnatedr9e2bKUdcrH75jz9oMfZX//NV/fiFx+Vw2A1KCwAAAAAAuorCFgAAAADCSHSUTY8/ukSfrS3S519sVWZGmlYsW2h0LAAAAAAA0E0obAEAAAAgzPTJStfzqx7qcNyvfvmjEKQBAAAAAADdyWx0AAAAAAAAAAAAAADorShsAQAAAAAAAAAAAMAgFLYAAAAAAAAAAAAAYBAKWwAAAAAAAAAAAAAwCIUtAAAAAAAAAAAAABjEanQAAAAAAOhJap1BVdcEjY5xS3L6cywvAAAAAABGobAFAAAIV6bIKnwAfOv//F9uoyN02rzpNgpbAAAAAAAMxF/lAAAAAAAAAAAAAGAQClsAAAAAAAAAAAAAMAiFLQAAAAAAAAAAAAAYhMIWAAAAAAAAAAAAAAxiNToAAAAAAKB32rf/qNZ8sbXFsld+skoOh10+v1+ffLZZxWcuyBFn15LFs5Wb08+gpAAAAAAAdB8KWwAAAACAIVwutyYVjtY9i2a1Wre56Et5vT79w0+f0fkLV/Tu6nV6+cUnFBsTbUBSAAAAAAC6D6dEBgAAAAAYotHlVrwjrs11h46c0pxZk2S1WjRk8ABlZaTqVHFJiBMCAAAAAND9mGELAAAAADCEy+XWuZJL2n/wmKKibJo+tUBjR+erodGlxka30tNTmsemp6eosrLawLQAAAAAAHQPClsAAAAAgCEmFY6WZFJ2dobOn7+st975TKkpSXI47DKZTLJaLM1jbVarfH6/cWEBAAAAAOgmnBIZAAAAAGCIvtmZ6pudIZOk3Jx+GpzbX+dKLinOHqtgMCi/v6l5rNfnk90ea1xYAAAAAAC6CYUtAAAAACAs+P1NslgtstmsSkxwqKz8evO68ooqpaUmGZgOAAAAAIDuQWELAAAAAAi58ooqvfXOZ6quqVMwGNTR46d18dJVDc8fJEkaP3a4irbtlc/n16nT51VZWa38obkGpwYAAAAA4M7jGrYAAAAAgJBLT0/R0MED9ae/fCJnfYNSkhP16EP3KCU5UZI0Y9oEfbJms379mzfkiLProeWLZLVaOrhXAAAAAAAiD4UtAAAAACDkTJImFY7WpMLRba63Wi1avnRBaEMBAAAAAGAATokMAAAAAAAAAAAAAAahsAUAAAAAAAAAAAAAg1DYAgAAAAAAAAAAAIBBuIYtAMBw/9+rf5IkmUwmSdLLLz4hSTp6/LSKtu2VZNK8OVM0fNggoyICAAAAAAAAANAtKGwBAIbz+nx65SermgtbSfJ4fdpctEfPrXpQgaaAXv+v9zVkyADZrHx0AQAAAAAAAIg81TV1+nTNFpVeLZfdHqu75kzWqBFD2xxbVV2r1R9vUEVFlbIy07V82XwlJsSHODFChVMiAwAMZzabW5S1knSu5JIGDsiWPTZGDoddfbMzdf7CFYMSAgAAAAAAAEDXbNy8W5MKR+ufXnleDyydr08+26Kq6to2x763ep2G5Q3Sf/vFc8oZmK3VH28McVqEEtOUAACG8np98np9euuvn8nn92v0yDxNGD9CTmeD4h1xzePi4+PkdDZ06j5LK+q6Ky4QUsFg5HxV83j9Kq3wdOk+nI1mRdLxhOXV9TLfxlMUCEiR9DXc7fGptMLdpfuod1kkmTocFy7Kq+rVFLz9n7/xcRU5z3GDy6vSCtdt/ewn6yw6cCRyntuf/8AvDkjvnEZ3ZL1vr1U6FRPdenl2ekLowwAAAADteGj5oub/7983SxkZKbp6rUIpyYktxpVXVKmmpk7Tpo6X2WTSzBmF2vXPr6um1qmkRP6o6YkiZy8CAKBHioqyadX3HlBWZpqc9Y363R/eU3afdElSUN/uLQ8Gg61m4baHHXPoKUymRqMjdFp0lFXZ6XEdD7yJeLtPku/OBAqBjGSHstNvvWC+UdhGznMbE23r8nPriI2w5zbFocy02z94oDYmKOn2ClAjxMVGKTvddps/65PbEznPbWZqvJITI6eENJI9xivJb3SMTstKi5c9hucWAAAAkaMpEFBNjVPJSYmt1lVUVik1NUnmb/aHWi0WJScnqLKymsK2h4qcKQwAgB4rKzNNkhTvsGtAvz6qqKxSQoKjxYxap7NBCfEOoyICAAAAAAAAwB3z5d5DSk1Nap688l0+n182W8sDa202q3y+yDmoEreGGbYAAEOdPnNBiYnxykhPUUODS5cuX9WsGYVKSkeR848AACAASURBVIrXug071OhyK9AUUOnVci1ftsDouAAAALfN6/Vpw+ZdOnbijCQpb0iO7l08WzbrjT/Ni0+f17qNOxUIBJSelqylS+YpLi7WyMgAAAAAukHJhSvavedrPfvUijbXx9lj5fO1PJuR1+uXPS4mFPFgAApbAIChkpMTtOaLbd/Mpg1qzqxJykhPkSTNmztFb7z5gSTp7gUzZLVYDEwKAADQNdfKKhUdHaWfvfSUmpqa9Ke3P9XOXQc0Z9Yk1dc36v2P1usHzz6s1JQkbdi0Sxu37NbSJXcZHRsAAADAHXSltFwffLheD61YpOSkti/tlpqapMrKagUCAZnNZvn8ftXU1ik1OSnEaREqFLYAAEOlpSbrqceXtrlu1IihGjViaIgTAQAAdI8B/ftoQP8+km6czmxA/z6qqq6TJNU3NMoeG6PUlBs7YPKG5mjLtr2GZQUAAABw5129VqG/vPuZli2Zp4H9s1usKzl/WYePFmvpkruUkpyorMw0bd+5XzOmFWjrtn3Kzeknh8NuUHJ0NwpbAAAAAABC7EppuU6cPKt7754tScrMTFNaWrKKtu/TzOkTdPzkWY0dnW9wSgAAAAB30tvvfS6Xy6N3Plgrv79JkpSRnqIXv/+YqmvqdPlKmQLBoMwmk5beN0+rP9qgHbsPKLtPhlYs5XJxPRmFLQAAAAAAIeJvatI//8sbcnu8mjJprIYMHiBJMkkaMWyw9u0/qsNHTslqtWjenCnGhgUAAABwR/38x0+1u65g3AgVjBvRfDs5KUHPPt32NW7R85iNDgAAAAAAQG9htVj0T688r5++9KRqap36ZM0WSdKp4hKdOHlOz696UD949mH1yUrXO++vNTgtAAAAACAUKGwBAAAAAAixpMR4zZhaoGPHz0iSThaXKD8vV2azWdHRUbr/3rk6V3JJjY1ug5MCAAAAALobhS0AAAAAACGwfuNOHTx0Qk2BgLw+n/YfPKbMjFRJN65bdeRYsdweryTpxKlzssfFKjraZmRkAAAAAEAIcA1bAAAAAABCYNLEMVq7frvWbdypYCCgnIF99eDyhZKkKZPGyuXy6LXf/VWSlBDv0OOP3CeLxWJkZAAAAABACFDYAgAAAAAQAkmJ8XrsoXvaXGcymXTXnMm6a87kEKcCAAAAABiNUyIDAAAAAAAAAAAAgEGYYQsAAAAAAAAAAADcot+87tWBo36jY7Tr9V/bFWUzOgU6gxm2AAAAAAAAAAAAAGAQClsAAAAAAAAAAAAAMAiFLQAAAAAAAAAAAAAYhMIWAAAAAAAAAAAAAAxiNToAAAAAAACRoOJ6UBu2+42OcUtWLrMZHQEAAAAA0AEKWwAAAAAAOumLIp/RETrt7jmUtQAAAAAQCTglMgAAAAAAAAAAAAAYhMIWAAAAAAAAAAAAAAxCYQsAAAAAAAAAAAAABqGwBQAAAAAAAAAAAACDUNgCAAAAAAAAAAAAgEEobAEAAAAAAAAAAADAIBS2AAAAAAAAAAAAAGAQClsAAAAAAAAAAAAAMAiFLQAAAAAAAAAAAAAYhMIWAAAAAAAAAAAAAAxCYQsAAAAAAAAAAAAABqGwBQAAAAAAAAAAAACDUNgCAAAAAAAAAAAAgEEobAEAAAAAAAAAAADAIBS2AAAAAAAAAAAAAGAQClsAAAAAAAAAAAAAMIjV6AAAAMBY18oqtW//ER0+WqyHHlikvKE5zeveW71Ox06cab6dlpqkl1543ICUAAAAAAAAANAzUdgCAAD1yUrXqeLzrZa7XG49vOJujRg2OPShAAAAAAAAAKAX4JTIAAD0clmZaSosGKWYmKhW6xpdbsU74gxIBQAAAAAAAAC9AzNsAQBAu1wuj77YsF319Y1KSkzQwvnT1Tc7w+hYAAAAAAAAANBjUNgCAIB2LV40U9lZ6XLEx2nXlwf11juf6mcvPSWbja8QAAAAAAAAAHAncEpkAADQrmF5uUpIcMhsMmnG1AI1NQV09VqF0bEAAAAAAAAAoMegsAUAAJ0SCAQUCARksViMjgIAAAAAAAAAPQaFLQAAaNP+g8e0fuNOuT1e+f1NWr9plxLiHerTJ93oaAAAAAAAAADQY3ABOgAAerl/+4+35HQ2yOfz6d3VX8hsMuuH339Uo0fladOWL/Xv//GWvF6f+vfP0uOPLpHZZDI6MgAAAAAAAAD0GBS2AAD0cj/+4ePtrlu8cKYWL5wZwjQAAAAAAAAA0LtwSmQAAAAAAAAAAAAAMAgzbAEAQK9RfPq81m3cqUAgoPS0ZC1dMk9xcbGtxlVV12r1xxtUUVGlrMx0LV82X4kJ8QYkBgAAAAAAANDTMcMWAAD0CvX1jXr/o/Va+ci9+smPvqf0tBRt3LK7zbHvrV6nYXmD9N9+8ZxyBmZr9ccbQ5wWAAAAAAAAQG9BYQsAAHqF+oZG2WNjlJqSJEnKG5qj6pq6VuPKK6pUU1OnaVPHy2w2a+aMQpWWlqum1hnqyAAAAAAAAAB6AQpbAADQK2RmpiktLVlF2/epKRDQ8ZNnNXZ0fqtxFZVVSk1NktlkkiRZLRYlJyeosrI61JEBAAAAAAAA9AJcwxYAgJuoqKzSq799u8WyBx9YqFEjhrYay3VPw5tJ0ohhg7Vv/1EdPnJKVqtF8+ZMaTXO5/PLZrO1WGazWeXz+UOUFAAAAAAAAEBvQmELAMBNuFweZaSn6MXvP9bh2PdWr9PI4UP0zJPLtXX7Pq3+eKNWfe+Bbs/4+tvebv837qTnHosy5N89VVyiEyfP6flVD8rn8+vzddv0zvtr9b2V97cYF2ePlc/na7HM6/XLHhcTyrgAAAAAAAAAegkKWwAAbqLR5Va8I67DcS2ue2oyaeaMQu3659dVU+tUUmL3zrLdf6RJDY3Bbv037pThQyyG/dsni0uUn5crs9ms6Ogo3X/vXP2P//s1NTa6Zbd/W8ampiapsrJagUBAZrNZPr9fNbV1Sk1OMiw7AAAAAAAAgJ6La9gCAHATLpdblder9epv/6Lf/PsftXHLbgWCrctRrnsa/jLSU3TkWLHcnhszkk+cOid7XKyio20qOX9ZH3+2WZKUkpyorMw0bd+5X01NTdq6bZ9yc/rJ4bAbGR8AAAAAAABAD8UMWwAAbmLI4IGyx8Zo6JCBqq2r15/f/lSxsTGaPmV8i3Fc9zT8TZk0Vi6XR6/97q+SpIR4hx5/5D5ZLBZV19Tp8pUyBYJBmU0mLb1vnlZ/tEE7dh9Qdp8MrVi6wOD0AAAAAAAAAHoqClsAAG4i3mFXfl6uJCk5KUGFBSN1+syFVoUt1z0NfyaTSXfNmay75kxuta5g3AgVjBvRfDs5KUHPPr0ilPEAAAAAAAAA9FKcEhkAgFvg9zfJYm19HdbvXvdUEtc9BQAAAAAAAAB0CoUtAADtaGpq0ptvfayLl64qKOlaWaX2fnVYo0YMlSSuewoAAAAAAAAA6DJOiQwAQDssFotmTp+gdRt3qKKyWjEx0Zo2ZbzGjs6XJK57CgAAAAAAAADoMgpbAABuYlBOPw1a9VCb67juKQAAAAAAAACgqzglMgAAAAAAAAAAAAAYhBm2AAAgojQ0Bo2OcMvi7CajIwAAAAAAAAAIUxS2AAAgomza4df7n/uMjtFpv/pZjAYNpLAFAAAAAAAA0DZOiQwAAAAAAAAAAAAABqGwBQAAAAAAAAAAAACDUNgCAAAAAAAAAAAAgEG4hi0AoFd459PIueapJM2ebFFWBsdVAQAAAAAAAEBPR2ELAOg11myKnNJ29mSL0REAAAAAAAAAACHA1B0AAAAAAAAAAAAAMAiFLQAAAAAAAAAAAAAYhFMiAwDC1tHjp1W0ba8kk+bNmaLhwwYZHQkAAAAwlMfj1XsfrlNNjVOpKYla8cBCRdlsRscCAAAA0AXMsAUAhCWP16fNRXv0zFMr9PQTy7Ru4w75/H6jYwEAAACG2rXnaw3o10cvvbBS6Wkp2rvviNGRAAAAAHQRhS0AICydK7mkgQOyZY+NkcNhV9/sTJ2/cMXoWAAAAIChTp46p7Fj8iVJY8fk68SpcwYnAgAAANBVnBIZABCWnM4GxTvimm/Hx8fJ6Wzo1M+WVtS1WlbfaJFkulPxul15Vb0CnYwbCEbOx7nH51dphadL9+FsMCuSjjmrrG5QjD14Wz8bjKTn1nsHntvGyHpuy6vrZb6NpygQkCLpa7jb41NphbtL91HvirxtcNPtvW0lSTc+riLnOW5weVVa4brNn42s57bsulMu7+3/fFWNSZLljuXpbvVdeG4b3ZH13F6rdComuvXy7PSE0IfpZt/9nhzviJPTWd+pn2vzO3KYv4fLq+pl6sRbLhAI322uzx9o83f/9yprpHD+7Khr8HRqexLunwvlVfXyBzv+kA/nv7G8vqZOvaau14b3Z1ZdvbtTr6lw/zy6dt2phk78GRQMhu+p6zv7mqqqC+/XVG29W6UVgQ7HuTxh/pqqdCo29uZjbmzGwnc71dn9A9Vh/pqqcbpUWtHxZ4bbG77PhSRdrayT7e8i9sTvyD2BqaausQu7IgCg90iM7+DbEu6ovV8dkbO+QfPmTJEkrV2/XVmZaRo/drjByQAAAADj/D//8nv94ierZDGb5XK59drr7+hnP37K6FgAAAAAuiBypjAAAHqVhARHixm1TmeDEuIdBiYCAAAAjJcQ/+33ZGd9I9+RAQAAgB6AwhYAEJYG5fbThYulanS5VV/fqNKr5Ro4MNvoWAAAAIChhucP0qHDJyVJhw6f1LBhgwxOBAAAAKCrOCUyAHQSp0QOvaPHT6to215J0vy5UzUsn51RAAAA6N08Xp/eX71O1TW1Sk1J0oMPLJLt7y9MBgAAACCiUNgCQCdR2AIAAAAAAAAAgDuNUyIDAAAAAAAAAAAAgEEobAEAAAAAAAAAAADAIBS2AAAAAAAAAAAAAGAQClsAAAAAAAAAAAAAMAiFLQAAAAAAAAAAAAAYhMIWAAAAAAAAAAAAAAxCYQsAAAAAAAAAAAAABqGwBQAAAAAAAAAAAACDWI0OAAAAuubdD76Q3+/XykeWNC/bun2f9h88pp+//PRt3ef1qhp9umaLXG6PYmOitXzpAiUkOOTxePXeh+tUU+NUakqiVjywUFE2m4pPn9eWbXvl9/vVNztT9987V2azWcdPnFXR9r2SJIcjTsuXzpcjzn4nHnaPt/erI9qydY9e+ekqWSwWSdKFi6X6w58+1MsvPqGU5MTbvu/tO/fr6PHT8vubNKlwtCZPHCNJKiu/rg8/2Sifz68Rwwdr3pwp7Y4PBIPatuMrHTlaLJNJys3pp8WLZslsMnX9wfdCxafPa+9XR/TEY/fddNwbb67WwvnT1a9vZvOy9t6vkrR+0y6dKi5RdLRNy5cuUFpqcrvjy8qva80XW+V2e2SxWLR40UwN6NenWx93T1Zy/vI3v0+v0lKTdM/ds5WRntKl+2xvW8u2OXTKK6r02uvv6MXvP6q01GRJ0uaiPbLbYzRl0tjbvl+v16fP1haprPy6JGnxwpnKGdhXEu9jADh1+rzyhuaIb5kAAKAns/zTf//lr4wOAQCRICbaZnQEoE3HTpxRWfl1jRmVL5vtxrFYm4q+VDAY1KTCMZ26j+A3//3bTpBjx89oUuEYzZ45UR6vT0eOFWtY/iBt37VfyYkJemj5IpWVXVdZ+XUN6N9Hh46e0v33zNWUyeN0+OgpNTUFlJWZJmdDo2bPnKSpk8aq9Gq5rpVValBOvzv/S+iBrpSWq/RquVJSkppLgR279quhwaVxY4YpNjbmtu63ocGlq9cqtHzZQo0bO1wffrJR+Xm5io2J1nur12nR/Omaf9dUbd22T+npKbJYLG2Pj42R1+vT4kWzNHHCaBVt26uU5MQuFcm92fWqGl0pLdeY0fk3HXfw0AkNHjSguZCV2n+/lly4ohMnzuq5Zx5SUkK8irbt05jR+e2Ob2hwaeTwIZo1o1BxcbHaun2fCsaN6O6H3iP5/H69/of39dQTyzR/7lSlp6fI6/MpKTG+S/fb3raWbXPoNDS6dPrMBV0rq9TokXmSpJLzV2SzWdWvb9Zt3++lK2VKTIzXPYtmqX+/LL3/4XpNmTSW9zEi0tVrFfr086Lm90ik2rPvsHbtOai+2ZmKiYk2Os5t8fn8+v2bH8hisSgzMy0iC0+Px6vfv/mBpk8dz4GBYSIoyevxymq1GB2l1+sp26k3/viB+mSlKz4+zug4t+3qtQq9/e7nSk9LUWIXv/MbzePxymK1RORnxt/4/H7V1zcqOsomU4R/drjcHtmszLvsLXimAQDoAQbl9texE2c0ccIoXb1WobTUZJ0ruSRJCgQC2rB5ly5dvqb6+kZNKBipmdMmKBAI6D9+91eNHDFU50ou6ZEVixUXFytJmjhhVPN9983O1PGTZyVJJ0+d08pH7pUkjR2Tr48+3awZ0wp01+zJLcZX19TdyPVNAeDz+VVVXatRI4Z2/y+jBxk6ZKCOHC3WsLxcNQUCulZWqeSkhOb1B74+roOHTqix0a3MjFQ9+MBCHfj6hK5eq9B998yRdGOmrrO+oXm2bFxcrGZOnyBJio6yKS0tWTW1TsVER6murl4D+t+YiTV6VJ5OnDqnBXdNbXN8clKC8ofmSJKczgZ5PN4ul1G44ejx0yo+fV7Lly6QJP31vc9VMG6E8r75ff+9m71fx4zOl0nSkMED9NFnm+T1+dodn5mRKkkKBoMqL7/efKAAbp3JZFIgEGi+3Tf72xnRf5tJeb2qVmaTSQvnT1f/flnaXLRH1TV1ago0qbHRrfS0ZN1z9+wWO0ra29aybQ6tlJREmU0mnS25pMG5/Vus83h9WrO2SKVXK2SxmDV39mQNy8vVX9/7XGPHDNPw/EGSpHfeX6sJBSM1ZNAASVLOgOzm+8jKTFNjo1uBYJD3MSLSF+t3aNzYYUbH6JJGl1vbdn6leXOm6J3312rMqHxNnXz7s+iNsn3XfiUnJehaWaUO/ulDrVi2UAkRVohcKS1T3+xMWcw956pubrdH+/Yfbf6OHUl27j6g3XsOKSYmWiaTtOCuae1+R40U23fuV+GEUYqNsMLzb9upubMm6e131yg/L1czphUoyhZZkw2279qvmhqn/P4mo6N0yRfrdyhvyEBt2/GV0tNTtHD+9IgrPE+fuaAvNuxQMBhUIBDQhPEjI247FZS0pWiP9n51WImJ8fL5/Lpn0SwNGTzA6Gi35cTJc/r08y26e+FMjRkV2QfCoXN6zrcdAAB6sbyhOTp2/LQk6cjRYg3PH6Rg8Ma8WbPZrJHDh+q5px/UD59/VLv3fK1Gl1uSVFlZrfS0ZD3z5PLmsvbvFZ85r4H9b+xIdjobFO+4sZMn3hEnp7O+1fjTpy9oYP9vT7+4Y/cB/fNv3lCcPbbD2YNoKTExXnXOenk8Xp09e1GDc/vL5/c3r++Tla6nn1imH//wcbncHhWfuaAxo/N05uwFeX0+STfKvzGj2v69u9welZVVqk9Wupz1jc3PrSTFO+ytnt/vjv+bdz5Yq9+8+ifNnD5BqSlJd/Lh4za0fr9+e5pbR5xd9fWN7Y6XpHPnL+v//df/0vGTZ7Vo/vTQhO6BrBaL7l44U2/8cbU+X7dN16tqmtet37RL+Xm5en7Vg3rkocVau35b8zqLxayHlt+tp55YputVtSouLmn33/jutpZtc2j5vH7NmztVGzfvViAYbLFu/cadsttj9dILK7XykXv12doi1dQ6bxwE802p6vP5dfVaRbuzms+dv6yszDSZTSbex4g4R4+fls/v07gxLQtbt9uj3XsOGZTq1m0u2qMxo/JVMG6Enn1qhc6cu6DDR4uNjnVLamqd+urAUd29YIbuXjBDM6YW6O131xgd65ZdvlLW4vPL5fbozT9/pMtXygxM1TVbtu1t8d0gUmzeukfHT57T9599WC+9sFKPP3qfNmzepZpap9HRbtuJU+f09eGTioqKrJJT+tt2Kk+FBaP0/WcfVkxMtLbv3G90rFtSU+vUiZNnlZGR2nzQmXTjM6PO2WBgsltz9PhpeX0+zZ45UY8/dp/q6uq1/8Axo2PdkrPnLunjNZu17L55evnFJ/SjF1bq0pVrOnLstNHRbsmmLbt1tuSiXvzBSv3w+Uf1vZX3t/p7LFJ8ufeQ9h04qryhOXK0s78OPQ+FLQAAPUBsTLSio6NUXVOnS5evaeB3ZupIUnJygvbsO3zjaMlAULXf/FFtsVg0cviQdu/3Wlmljhwt1rQp424sMH17+uRgMNjq1DJfHTiqqGibBn1nxtGMqQV65WfPyGQyaUvRnq4/2F4kGAhq+LDBOnHqnI4eP6Mxo/Obi3hJSk9L0fGTZ/XZ2iI5nQ2qrq5TlM2m4cMG69jxM6pzNqipqUnpaW3PsFqzdqumTB6nmOioG/+evr3vYFCtnt+/Hy9Jj6xYrJ+99KS+OnBUZ89dupMPH7foZu9XqfV7ttV43Zh5+fOXn9bkiWP0l3cib6duOBk/drh+9IOVio+P0x/++KEOfH1cknTqdIkOHDyuP7/9qT76ZJOamr6diZuWmiyTbpyePndg33Z3Rrfa1rJtDqlAMKD0tGT175elg18fl8n87e+7+Mz55tmviQnxGpzbX2fPXVLe0Bydv1iqpqYmnTl7UUMGD5S5jdliHo9Xa9dt04L5024s4H2MCOLz+7Vx827dvXBmq+2Q1+dXecWNazQHgkFdK6s0ImKnlJVf16HDJzVt8o33ldVq0ZBBA3Xp8lWDk92a9Zt2alLhmOZTjA4e1F+V16vl8/k7+MnwcvnKt3/bNDS49OafP1JuTj/165vZwU+Gp8rr1Tp85JTmz51qdJRbcr2qRl/tP6rHHrqneZZ2UmK87l08R01NTQrqxkFpkVSK+JuatH7jTi1aMCPiZnCXlV/XgYPHFBsbo0AgIIvZrGmTxzWfVSlSrN+0UzOnT5DP51P0N39jVlXX6vdvrtYf3/pYwQ5+Phz87bNv8TeffSZJ48cNbz6gPhIEAgF9+vkWPXDffPXvd+MSHzarVfcsmiX7bV6KyQiV12u0/+BxPfLgt9up5KQEjRoxVMdPnDU4XecFg0Gt27hDJReuaOXD9+paWaX69MkwOhZCJLI+jfD/s3dfwW3dWeLnv0jMYM4550yJkqhM5WTZSpbbsd1tT/fs7O687NZMTW3V/3Ef9v+vmv1vdddMz4yzLVuykiWTEiUqMEeJSRRzzjmDJAjsAyjYtKS23UGA1OdT5SoTvLg6l8C9IO/5nXOEEEKIp0pKjCYvv5jgIL81N8mmp2f5+LNLeHi4cvjgDtzcnNck/Z5memaOs+ev8crR3eZ5OM5aJ2ZWV7rOzM7jrP1ujmZ7Zy+l5TW8cmT3Y/vSqNWsz0ikqeXp1WLiyZISoqlraGZufv6xCtaPP7+ETrfEnl2biY4MwWg0JX7WZyRSU9fEw6b2p86Pu1NYybJeT9bGNACctY7m1xZgZnZuzev7w+2/T6t1JCEukubWzj/3cP9mGQwGVKrvfjX/CafoGj92vhox3eR0Wq3Ue9L2jygUCtJS4xkaHmVBt/inH5TAwd6OrVkZvHbqEIXF1aYHjUYO7t/GG68d4Y3XjvDb904/8bmLS0trEoGPPOlaK9dmy9ixLZOSshqMhu+dsE85eTVqNWEhAbR39PKwuZ3EhMfbUK8YDJw9f4301HiCVufhynksnidFJfcICvQjONBvzeNz8wuMjI5z9HA2ANX3Grhxq8QSIf4kudcLiI4K5ZMvLlNSdp/6By2UlN17rmbydnb309s7SOPDNkrLaxgbnyQvv4TQ4AA0mudrOtrA0CiBAb5MT8/y4acXWZ+RxLYt6ywd1p8sN6+QzZvSzdfy58W9+42kpcY/FndosD8e7q7U1jXR3tHDhcs3uF1Q8Vwk2krLavBwdyU6MoTxiSk6OnstHdJPlnu9gF3Zm5idneff/+ss3T2mBSUrKyvMzS1YOLqfprO7n+npWcLDgnByNL2vurr7uXDpBhqNih3b1j8XLYWLSu4RGOBrHi0EsLCwiEr1/Mx4bu/oxdHRgYjwtaM+XF20RIQH/aT7R9bgfk0j6anxT2z9r1/5ruV2/YMWqz0mvX6Fs+evUf+glZcO7WTFYGB5Wf/ctWwXfzpJ2AohhBAviJjoMNrauh9rbdnXP4yXpzuR4cHMzs4x84NWik8yv6DjszPfsGvnxjU33eJiwqmpfQhATe1DYmPDzf/GN1dv8dqpQzg4mFZgLuv15OYVmlfxt3f04uEhLXN/Lq2TA0YjREeGrnl8YUHHxMQU69ITUCoVDK1WrQB4uLuiUaupvv/giUmBiqp6Wlu7OPHKXvMfwXZ2tri5OtPV3Y/BaDTNzl2dtfik7YeGxyguvYcRU7Kxs7tfWiL/TG3tPeaVvj29g3h7mdqAOTk5Mjo2gdFoZHxiiv6B4e+epFhbCQ1//HytrWvCCLS2duHn54VGrX7q9vl3yswt7fr6hrCx0ZhXuoufZ2BwhOs3i82tycfGJ8zXxpjoMAqLqzEaTa/k9PR37YvHxicxGo3MzS9QV9/y2Hn/pGstyLXZUhzs7chIi6f+exUU0VFhVFTVAzA1PUNbe4/55ldSgmk2+ODQ6Jr2nmBaSX/x8g08Pd3YtOG7alk5j8XzYnp6lorKOvZkP141mH+7jI4OUyJEp1vkdkEFe3dZZ7vuBw/bWNAtcuKVvezYlknVvQe0d/Ry5OBOgoL86Ozqo66hxaoTIkajkdzrBezfu5V33z6OwWgk51oBi4tLHDu6m7n5BeoftDwXyanxiSlcXbTMzM7x8eeXyd6xgYy0eKZn5vjg4wtcuHyDkdEJS4f5VItLy98t2AKaWzoZH59i44YUpqZn+ep8Lv/z959x7sL1x9rdW5uxiUkC/Z9c1by0vMzN26UcObiTd98+ztTUDHfulj/jCH9cQVGV+Xez2dl5ikqq2bdnCwDX8goZtkF9NgAAIABJREFUHBr7Y0+3Gg8etqFbXCJrQyoH923j2NE95q4dZRW15OUX0907gM6KF2wZjUau5RWyf89WhkfG8fH2oKauiYKiKtLT4tGoNSTGP/53rLWZnp6lvLKWPbuy1jxefa+BmOgwC0X1842NTz61a4Fev8Lv/3DmJ91HsrSRsQmCfnAcRkznTFCAL80tnRQUV1FT2/RYJxBrML+g46PPLuLiomVPdhYff3aJnGt38fXxBEzH0tXTT0Njq1X/HiL+PKp/+ud/+W+WDkIIIZ4HdrbP30wT8behobGVwABf3N1cSIiPxMvTjZUVA+WVdWzakIpW60hFVR0VVfWMjU+hVCqJCAvCycmBgqKqJ65Q//ridQYGRhgYHKG0vIayiloiI4IJDw+mtLyGu4UVAOzJzkKpVPD7//gSI0YeNrVTWl5LbX0T6zOSGJ+Y4krObcor61hcXOLlw9nP3ap+S+nrH0avXyEk2J+IsCCCAn1RqZRU3WsgPi4SZ60TY+OTXL9ZTFfPAC7OWuztbQky37g3MjE5zbr0xDX7HRgc4czZb1GqlFTde0BZRS1j45NERYbg7+fNN9/eorS8huioUFKSYp66fWJCFA0PWsm7WUJZRS1Bgb5s27zOKv/wsVYqlZK8/GLyb5eiW1xi354t2NpocHZ2oqWlk5u3SpmYmMbbywNPD1c8PFwZGRmnpbVrzQ2Mp52vfr5eDI2Mk3PtLt29Axw5uBMHB7unbu/oYM/lq7cor6yjpbWLU8f3r5lrLH46B3s7unsGuJpzh5Ky+4xPTHH0cDYODvaEhATQ1Gx6fWvrm9Fo1AT4e9PR2cfo2AQVVfWUlNawaUMK8XER5n0ajcYnXmsz0hLw8/OWa/MzMje/QFNLB+mp8QD4+3tTWVVPgL83gQG+hIYEUN/QQv6dUuobWti3ezOBq9Wyrm7OfJt7h+ioUKIiQtbst6yiluLS+ywtLVNSZjov7e1tiYkKk/NYPBfy8ovRaNSkpyWg/EHb7jsF5Zw4th+1SsWNW6V4eriRlBi9ZjtrYATOfp3Lwf3bcXN1ZmxsEt3iIi8f2YWbqzNffHWV5pZObG1syL9Tir+f9xOreCytobGV4ZFx9mRnoVapCAr0JTkphpjoMHr6BvnybA4uLlp6egdpae0iOirU0iE/VUtbF5OT05RX1nH44A6iIoIBsLW1IS0lDgd7O776OpeUpBir/BxTKpVcvnoLX19PFAoFZ8/ncmDfNlxdtfznh18TER7MsZf3oFaruXajiLSUOEuH/FQDAyPoDSuPVdAD3L5bgaODPZnrklAoFIQG+3PuwnW2ZGVYINKnq6xuYGZmFh8fT85fvkFkeDBJidG0tfdQW9/Eyy/tQqlQMDs7T0l5DaE/GDNkDYzAV+dySYiPJDQkAABHR3ucnZ2Ym1vg/OU8IsKCmJiY5mruXSIjgnFwsDc/11quug2Nreh0S2xYn0xTcwetbd0s65d56XA2X1+8ztEj2WidHKmtb+Zhcwe2Nhqr/H0mL78YOzvTAr5HfwcXlVTT1dPPkYM7qalr4krOHe7VPECj0ayZ02tNFhZ0tLZ3k5z4eCcJ06ITBWkpptn08/M68/V2cmqGi9/cfOIicUvo7RsEFOa2zgAVlXUMDY+xZ/dmZmbnuHD5Bn6+XoSFBlrd50Z7Zy8ODvbs3JaJj7cHqcmx1NQ1ERToS2CAL2e+usrDpnZUKjW3C8rx9fHC2dnpx3csniuKyel566z/FkIIK+OilQHvQojngxH44qurZKQlEGPFN+GEEN/Jv12Gja2GLZvSLR2KEEL8bIuLS9wtrKSlrYvdOzeZk4AffnqRlKQY0lLiGB2b5IOPzxMeFsTE5BRBgb7s3b3FahIIALNz8+bWnA+b2mlobOP4y3soq6jlQWMbb7/5MkqFgp7eQe4UVvDG6SMWjvhxRqORhYXFNZ0YwNQO8l//v48JDQng8MGd2Npo+M8Pv+aN145ga2tjVcmcR2rrm7h5q4zXTh00Vxg9aGyjf9DUQSgmOowPP7nAy0d24evjyfT07Jqb1wajkcHBUfz9vCx1CAwNj3H56i0mJqbYsS2TzHVJVN9/QENjK2++9pJ5u//x/37Ib99/jc6uPnx9PHFzdbZYzE/yqCX17p2bCAn2R6FQ4OBgx8TkNH/44Cy/fe81tKvtkheXlvm//58/8H/902+eOK/dUhYWdFzJuUNrezdxMeG8dDgbBfC7fz/D3t1Z5sVUF7+5iauLlh3bMi0b8FOMT0xx/WYxy0vL7NuzBW8vdwAuX72Fg4OdeT7ypSv5+Pp4smF9MgajkTsFFXi4u5CcGPPHdv9MGI1Glpb12NpoKC2vwWg0smlDKncLK5mcmuGlQzsBmJicZmh4jKLiajLXJ5O0mhh81KXGxcLJqsXFJe4UVNDe2UtoSADDw2NMTE7zxmtH6Orup6Kqnjd/8RI2Gg2ffXmFA3u3ml8va2IwGvnok4tEhAeRnhaPwWDEWevI9Mwc//YfX/L+r07h4uyEwWjk3/7jSw4d2E5woB9Ly8s0PmwnJcny7ykwvV8+/uwS2Ts24ufrSUNjG5XV9bz1i6N4ebpxNfcOKpWKkCB/FAoICvLDztbGqttXf3bmClkbUxkeGae+oYW333wZtUrFxOQ0La1dZK5LsnSI4i/MupYRCCGEEEKIP0tf/xCXr94iIjxYkrVCPG9kKa0Q4jlla2vDnl1ZZKQncC2vEFs7G+bmFlhaWiI12VSVcy2vkB3bMlmfkYjBaOQP/3WWnt6BJ1bsWcqjZC0ACgWPLswNja1s27LOXBWs0ajNLWyX9Xpu3S5j727raPP8KJH2Q909A3h7eZCUEM3nX14hNTmWBZ0OlVrFzMwcl67kc/rUQZRKJUqFgonJaS59cxO1Rs3hAztwddE+82NJTowhMeG7auy29h4KS6o4tH/76hzvXBYXl/Dx9mBpaZkPP73I0cPZKJVKggJ9GRub5NyFa/xvf//GM4/9ER9vD9775Yk1j42OTa7ptDAzO8/S0jK2NhoeNLahUautLmHr7OzEW68f5dadMgqKq8hcl0RaShzXbxSRtSHNnKwFaFxtP2pNyVoAe3s7Th7bt+axjs5eNBq1+fXoHximo7OPf/jNL9CvrHDzVikDgyPERoexITPFKhY1uLu5cPrEAdo7ezl/KY9XXtqN0Wikta2Lf/jN64DputTW3k3WxlR0ukU++uwSU9Mz/OM/vGXh6E0UCgW2NqYudhszUwCYmZmjorqe3/zqVVYMBnp6BlCr1URFBKNSKamsqicpIYqR0XHaO3oZGR3n8IEdFjwK02ff3t2bmZ2bp7Orj7CQACIiglGrVHz82SX8/Ly5eauU7B0bCArwZWx8Em8vd/T6FRaXlnB0sI7CEKVCwRuvHeFOYQWff3mVAH9vDu3fTkFRJRnpCebEeFV1A1qtI8GBfgwNj9Ha3s3mjWkWjv47bq7OvP3GyxQUVVJRVYevjyfvvXMCZ2cnhobHaGxq5x/+7hfYrc6D/fzLK8THReLk6EBYaIDVJW6NmKqG/fy8yb9dxrat61Cvxujm6kx6ajx5N4tpbu1E6+TIrp2bCPD3tmzQ4s8mCVshhBBCiBdIgL8Pv33vtKXDEEL8TNk7Nlg6BCGE+LO5u7nw2qlDAFzJuc3+PVtRKBS0tnUzNT1DRnoCYLo5bKPRmOdpN7d2ERYSYFXtCaMjQ8xJKLVajZ2trfl7VfcaCAs1tSMtLr1PXUMzQ8NjuLk5syc7yypnR2vUapQqJdFRoUREBFNWUUt8XCRqlYq8/BJmZuf48lwOS0umtqQXL98gMT6KAH8flpaWLRb391tnzy/ocHbW4u/vgz+mmaTZOzaiUCi4W1SJSqWks7uf/oFhDu7dioO9nUWTtU8TFOhLXUMzGzNT0K+scCXntqmduFLJ+MQUXl5uAObqteTEaKsYO+LqouWVl3abv+7o6qO3f4jjr+w1PzY7N8/NWyW8dDjbEiH+bEajEYPBgE63iEKhIOd6AbuzN6HRqLlbVMns7ByvnjhAYVEVn35+mf17t+Ll6WbpsAEIDw3k/V+dQqlQ8OXXOWTv2IjNahK0sLia0JBAvDzdMWJqzx0c5M/nZ67w1utHrS6ZDlD/oJWsDak4Otpz8Zub6PUr+Pp6Ulpew+jYBHGxplEhJWU1VN9/wOuvHrZwxN9xcnRYM7JmeVmPwWDg9IkDdPcO8PWF64yNT7IhM5mi0nuUlN7HxUWLWq3i5Cv7cPreggdL0WjUpursnd891tnVx7GjewDTDPq7hRW8/cbLAOTmFZornn/IYDCQc72Afbu3oFY/2ySoq4uWIwd3Pvb4zdul7Ni63pysbW3vprt3EF8fLzq7+jBifGxkiaUpgF+cPoydrQ1KpdJ8fj9y+eot5hcWeOeNV9AtLnL2/DXefO0lHB2tYyGA+NNYz2/CQgghhBBCCCGEEOKF8KjyyWAwcO1GEYkJUebk28DgCGPjk4QE+a/OwLvBlqwMVvQrbNyQgkZt+dtVSqWSAH8fALZmpXMjv5iNG1Lp6u6nta2b9989yfTMHOWVtfzmV6+i1TpSUFzFt9furklqWYvAQF+Wl/WUV9aRmhxL1oZUAHr7hujq7ue3772KnZ0tC7pFPvn8EuMT08THRqC1ojm9CfGRjI1PcubstyzqFlGplCQlRDExOc29mkb+/r3XzDeqi0vvMTg0xrGj1vdaxMWEMzI6zu/+/Qt0i0uEhwaaF27Nzc3j7Kxlbn6BL766SmxMuFUka5/Ew82FkCB/znz1LakpsSwv67l9t4KUpFirS3w8TXhYEOvSE7nwzU2WVxcmPEpCTU3NkJGWgL2dLaEhAYxPTvGgsZXUlDicHO2tohrv0TX15cO7sFldKDI1PUNFVR2/+bVpEW9N7UNUSiWnTxxgYUHHisHAjVul7N2VZbG4n2TThhRzs5m29m5+8+vTODraMzwyzsefXTK3fp2fX2BjZgrlVXW4umrx8rS+FsMajRonJ0cGh0YJDvTjzdePMjAwQl//MKXlNbz37glcnLW0dfRQXHbf6l6LR1KTY7mae4fY6HBaWrtIiI/C08ONxqZ2dLpF0lLiWDEYqKiso39gmOAgP9alJ1JRVc/0zNwzT9b+Md3d/ebPZoPBwLW8Qk68spfIcNNs9KHhMXLzCgHISEuwmoUZQQGmebxZG1PJu1nMnuws3N1dWVpaorWti//9H97C1kaDo6M9b5w+gqOjPXr9immBkxV9foufTvVP//wv/83SQQghxPPAzlbz4xsJIYQQQgghhPiOQkFIsD81dU0YjUaGR8a5fPUW+/ZsxtfHk8tXb+Hu5kpsTBhzczp8fDyt6iYvmFoPenl50NzSiaOjPYcP7sDB3o6ruXeIjgolOjIUALVKRU1dMxlp8Szr9SgUCqtJtikwJTx7+4YoKbtPXEwECqWSs+dz2b51Hf5+pjaKRqORopJ7bNmUQf/AMK6uzmjUKquoyFMoFISGBJCUEMXSsp6MtHi0WkcuX8knMSGaiLAgAObmFjh/OY/jL+/B3s6WZb2e+XmduQWrNQgJ9ic1JY7MdUkkxEWiVCrR6RZpaukkLDSQT7/4hs2b0klNiSP/dhl5+SU0PGjB18fTKqrxwNQONj4uAk9PN9rae5icmiZrYyrrMxItHdrP4u/nTVJCFGqNmqSEGLRaR0rLa5iYmKandxCj0citu+Xs2LqelJQ4Pv7sElonBzytJKEDoFarzO2aq+89wN/Pm+ioUJaWljlzLodXXtqNVuuIRqOmsKiKh03tNLV00NXdT3R0mFW0eobv5mg7ONhz/WaRaX5tyT02b0ojJNifto4eamqbOH3yIClJMdja2tDS2sXI6ASurlpUVnCdeiQk2I9vvr1FX/8wHu6u+Hh7kHO9gE2ZqYQE+wOmrhQR4UHMzs7T1NLJgm4RFxet1bwewUF+hIYE4OzsRPX9B5x4eS8oFHx5NofDB7fj6uLM2fO5jI1Nkp4WT1//MN09A5RX1nLilX3Y2z/ent9S1Go1N2+VkJIUQ2V1Awu6RbZvWQ9Ad+8An535hvjYSHx9PLmSc5vwsCAcrCh+Tw83fLw9aGhsw2Z1LMP8gs48dgLAxkZDcdl9ruTcpqd3kOr7jURHhVpV9xLx4+TVEkIIIYQQQgghhBB/FQpMczyPHs7mbmEl8/M6jh7OJjwsiM6uPgaHRvlf/u41VCoVAX4+5N8upbm1CycnB3bv3ERggI+lDwGAAH/vNbPhevuGeNjcwf956LvWrw2NbQQHmWbyVlTW0dDYhrPWkSMHdz5xruyzplGrydqQaq6ura1vQqlQrmnlWVhUTVhooLna7Q//dZZtmzOIjQm3UNRP9qjabmh4jOGRcU58ry3vzdulpKfE4+bqTGFJNaXlNbi7uqBQKjh5bN/aWcUW9MNK8rHxKWxtbfjyXA6HD+wgOMiP85duoFar+PU7x5mdM1Xdvv/uSatIoD/i7+dtTvg/zxLiIgFYWlqmtr6JXTs24e7uQlt7D6+8tBs/Xy/u1TSi0ajN58P4xBQrKwarqcYDyNqYZq5UffCwjeBAP/z9vABWuwLU8erJAwQF+DI0PIbRaGRmZg4nJwereV+lJseSnBjN9MwcvX2DZKQnYMQ0C33f7s2olEqmZ+b45PPLREYEYWdrS0nZfd76xVGrWfDj5enOr985wcjoOE6rlf9zcwuPvVfaO3o4d/E6SQnRzM0tUFXdwPGX91gi5Cdyd3MB4L1fnsTOzpbC4mr8fL0ICfKnvaOHsbFJ/u7Xr6JSKomKCOH3fzhDcmKM+XnWYmNmCulp8aBQUFx6n7def8n8vdzV9s0pSTGAqbr+Xk2jqUW0FQnw9zF3/picmmH4RhE63aK5zXNzaxd37pbz93/3Gi7OWmrqmiivrGPH1vWWDFv8TNZxFRZCCCGEEEIIIYQQLyxHB3sO7N3K8Zf3EB4WhNFoJDevkL27N5tbi16+ms/4xBTvvn2Mwwd2cPGbmyws6Cwc+eOMQG5eAaHB/lRU1bOyskJtfRM1dQ/ZtJoMzdqYxnu/PEFoSADXbxZZNuCnCAkOWDNrdHJqhqp7DexavUl9/wnJqZHRCYvE+jQ+3h689+5J83tocGiU1rYutm7OoLm1i4rKev7u3VO8+/Yx1qUnkHez2MIRP117Zw/j41OcPLaP4CA/xiem6OjqZXJymtKKWpwc7bHRaFhcbd3b0Ni65vnzCzrGJ6YsEfoLY25ugf/48ByZ65K5U1BBWUUtKUkx+Pl6sbi0TP6dMg7s3Wre/mrOHbp7BiwY8ZM9qtC0tbFhbm6e6Zk5APJuFpO5PpngQD8UCgXzCzp+929f8O21u/zhg3P0D4yY97GgW7Ts/GqlElcXLb9+5wRKhYLh1eRydFQoADnX7qJSKclcl8z2resJDvSjvaMHwJyw/j6D8UmP/vV5ebqbE2oJ8ZGUVdSiX1kBQL+ywoXLNzh+dC8H9m7lxCt7mZ9foLdvyCKx/jGPFh3Z2GjYs9rCuamlk7SUOHNl8/DIOAsLOrZtWQdAW0cPA4MjT96hBdhoNKiUSn77/mk83F0B07zh0dFJkhKjzdvNL+jAiKl9eH4Jl67kMzg0aqmwn8jVRcuunRv58NOLnDn7LWBaKJa5PpkLl29SXlmHSqVkeVkPQGtbNzV1TRY9p8VPIwlbIYQQQgghhBBCCPFMjY5N4OHuSmx0GGBKBra2dXPs6B4c7O3w9HDF38+Lzu5+C0f6uNo6U2Xq6ZMHmZic4n/8z4+orG7gzddeYnxiio8+vciX53IoKr2HXq/HYDBYOuQncnF2wtPD1fz19ZtFbNqQitbJ4UeTU5ZJfTyZ3ersToA7hRVk79iIjY2Giqo6sndsMM/hDfD3WZM8GBufRK9feebxft/U9Ax/+OAcH316ke6eAX79zglzImFsbJLQYH/efP0ojg72fPzZZfQreuztbKlraKGopJo7BRXcr30IQFNzB3cKKix5OM+9ufkFnJwcSU2O5ZdvH8PFWWtOhtyvaSQsJABfH0/A9POem18gPTUOAL1+xZwYtRZxseFs3JDK4OAIvX1D9PQOkLXRtKhkZnaeL8/lsGvnRk6fPMjpkwfIyy/GCIyMTnD5aj7NrZ0WjR8wt5V3c3VGqVRSda8B/coKHZ29HD2cTe71Am7eLmV0fBI7e1uMRiMffXKB+XkdK6uJ0eGRcf77v35gycMAYPPGNHx9PPnok4tU339Ad88ALi5aIsKDzNtobDTMzpreRzV1TVaXvM1cl4SrixYAOztbdLpF8/dy8wrZsS0T29Vr8vj4FCVlNfzXx+dNSVAr8f3PDLVGjb29LYuLSwDMzs5TVV1PQnwk92saGRoZY116Ildz7zA0PGapkJ8oMT6K9989yZGDOwHQ6RZJSYrhrdePolAouJZXSEJcJE3NHVy/WcTs3Dwff36JufkFC0cu/hiZYSuEED+RzLAVQgghhBBCiL8MRwd7cwtSgJ6+IebnF0j53jy2W3fLSUqMxsXZyRIhPlVTSycb1ifj7OxEVGQImzemkZYSh5OTAx9/domXj+wic30yRoORi1fy2bt7M26uzpYO+ydJTYk1JUWqG1CplKzPMLUebmruoLm1iyMHdwDw0acXiY4OM83OtJI5vQBRESEEBPigAMora0lPjTfPfL1f+xCjEeJjIzh34Tq19U1U3WvA08PNnIB41uxsbYmJDiUqMoTMdUlrZg3a2thQWFxNanIsgf4+JMRFEhYahI2NhjNnc0hOiiY0JICpqRnc3JwJ8Pcm/nvnlPj5HB3tmZqeoba+CVcXZ1YMKzQ2tbNhfTJ1Dc24umgJCfZnZWWFM+dyOHRgO26uzn90buT09Cw2NhqLnSeeHm54eLgyNjFFZHgwXp7uAFRW1WFra8Pg0Cg9fYP4+3nT8KCFhLhIvjz3LQODo+zJzjIn3yxNpVKRkmxqWeuidaK8so7d2ZtIToxheWmZoeFRsjamca+mkdqGFsbGJsm/XUZCXCSubs7Ex0Zgv1rpaikKhYKgQF/SU+Px8/ViZnaOvr5hkldb8U5OzXDjVgl7srNYMRj4/MsrzM7NU1J2Hw8PV4tdp57Gx8uDwpJq2jt6qG9oYWZ2jsMHtqNQKNDrVwgK9CUuNpzBoVFmZ+fN7Xx/aGp6dk0S9VlSYKqCvnQln9GxSa7lFbJhfTLxcZHoV1Zoaeli25YMwsOCUKmUFn8P/ZBCocBmdT778rKexoftxESHEejvQ+a6ZFxcnBgaHmNhYZH9e7bg5uaCbnERF2frei+J70jCVgghfiJJ2AohhBBCCCHEX4eNjQ0lZfdJSY5FrVJRWFzN+MQUO7dtsHRojwkN9jdXbf5QY1M7tjY2uLs58+BhG2qV0twe0tp5e7mbZ1j+seTUvZpGHjZ3MDo6Sf7tUhwdHfD2crdw9CZqtcrcDnZlxUBTcwchIQG0dfRw/UYRRw9n4+hoT871u7zz5iukJsVy6275msUDz5qNjeaJSQAbGw1OTg58c/UWY2OTRIQH4eTkQEFhJXZ2NuzfswVXFy2BAT6cO3+NlRUDfr5eFjiCF0tIsD+uLs7U1TczMTnN3t2bcXSwx9PDjaLiappbuyirqMXDw5XNG9Nobu0i59pdfvXOcdanJ6JQKGhr78Hb24OZ2Tk+PfMNMdFh5ra4luLm6myu3gZoae3Cx8eDPbuyUCoVXL56i6SEaAL8vSkqucfWrAyKSu+RlBBlNYsyVCoVLs5OKBQKdLol6h+04u/vg7+fN4nxUSwtLfPV17n84tQhNmamkJGWQGd3PyWl90n93mIga+GsdaLhQQtTM7NMz8xy6Uo+mzemER4WyI38ErROjhw9nE1kRDAAQyNj2NnZrlnYYUkajZq0lDiCg/zo6u5n6+YMXF2cOXv+GhWVdTS1dtLR2cfg4CgRYUF4ebmzsrLC5NQMNrY2KBUKRscm+OCTC2RmJFlshrK7uwuRESEoFAo2b0ojOjoMnW4RT3dXhkfH6OkbIi4m3OqStT8UEODD+PgkN/JLMBgNBAaYEuRenm5U3XuARq0mOjIEF2ctQ8NjFBZX09rejYuLFkcHewtHLx6RhK0QQvxEkrAVQgghhBBCiL8OWxsN7m4unD2fS0VVHVNTM5w8vg87W+u+QfpDsdFh9A0M87CpnZLyGl47dRAHeztLh/WzPS05tfgoIfLqYdZnJOLl5cGtO+UEB/kxOTWD81MS2ZYQ4O/N5NQMudcLGBkd58ihnfivJjRVKhX3ax+SlBht0WTtj/HydCc1ORYnJwe0WkemZ+b45uotTh3fb658bG3vpv5BK0cO7kChUHCnoIKBwRFcXbRWUx35vHFydCA8LIioiBBzIsPezpb01HgS46Po6Oxlz64s7Oxsyb1eSExMGGUVdSwtLWNrq2FqehY3V2c++Pg8rq7OrE9PtFgy6mns7W25W1hJfGwE3l4epKclEOjvw53CShwc7NmdvYmUpBhWDAZaWrsYGZ3A1VVrnldqaWGhgSzr9ZSW1eDqosVZ68StO+W4umhZl54IgNFo5MzZb9m2dT2uLlqW9XoUCoXVJKAVCgVxsREMDo0yNDzGxswUkhOjGRmdIC+/mNdPH8bW1gZ7O1vm5hdobe8m/3YpKpXKqhZn2NhoiIkJx9VFy9j4JOWVdbz/q1Mkxkeh1+tpaunkwP5tdHb18cEnF2jv6KWiqo6w0ACu5RWRkZZgTi5aip2tDV6e7jjY2zE+PsnXF/NISowmLCSQr87nsjUrw6Lx/RQKICjQj7TUOPz9vBkdmyT/ThkxUaGEhwZy9vw1Nm1Iobt3gM/OfEN8bCS+Pp5cyblNeFjQc/m7yotIErZCCPETScJWCCGEEEIIIf563N1dWJeeQHJSDJnrkp67ZC2AWq0mKNCXkGB/fH08CQnyt3RIf5KnJaceJUTSU+MBaGhsZXR0ArVGzb37DxgYGiEyPNjC0X8nMMCSlzY5AAAcVElEQVSHdemJpCTF4OLsRHHpPby8PAgN9qf63gPs7GzXVB1aI6VSidbJEYVCQVNzB97eHkRFhABgMBg4c/Zb9u/Zaj4OOztbFhZ0XM29S3hYIA5SOfUXFx8XYa6YraisY/vW9WzckMrA4Aj5t0vJ3rERMPKgsZW0lHjqHzQTHRlq0Zh/SOvkiFbrRG5eIX39Q8REhZoWBHx7i1PHD2Bro2F6Zo7/+ug8SpWCxcUlbhdUkJQQbTXJZ28vDxLiInHWOjE+MUXO9bucOr4fG43p/l1J2X2MGNm8MQ2AsvIart0oorWti/DQIHOl6vjEFNdvFptnqj9LSqWSwABfoiJCcHdzAeDCpRtkpCUQEmz6/DAajdg72BEeGkhCfBRffHWVzZvSn3msf8yjFLitjYaauofMzMwxv6Dj9t0K9uzKWp3DfYlTx/aTvWMDUZEhnD1/Dd3iIkcO7bSaJDqAg70darWaqzm3aWnrwt3NhcT4KEuH9bM5ONjR0tZFc0snMzNzDI+MkbkumS/P5bB9aybpqfF4erhiNEJXdz/hYUEY+e61fMRgNFrV6/Oik4StEEL8RJKwFUIIIYQQQoi/LoVCgUZtHe0e/xwqlco8K/J59yg59cOEyPy8jvOX83jj9BGiI0Px8nKnoKiaDeuTLR3yU83OLnDrTilBQX509wyYE+zPC18fT4KD/Mxfl1fWsaBbZPuWdeh0i3R292NnZ0tkRDBT07PMzs49V8f3PHra3MizX18ja1Ma6zMSiY4MZW5+geaWTubmFqxmprWHuyupybHmZHJN7UOcHB3MyamL39xkcWmJfbu3EBsTztjYJAaDAQ8P1ycmdixJrVYTGhqAp4cbALNz81y4fINTx/abk+tBgX5kpMUzN7dATd1DYmPCAdNxBgb4Ehhg+XNlZWWF8YkpsjamoVAo6Okd5KPPLtHV1UfDw1ZGRieYnZ0zzxdfXFxiZWUFtVq1Zj+WSrIplUpT+2mFgu7uAZaWlti1cyMVlXU4OjqQuc4Ut8ZGQ0nZfQ4d2I67lZwP3+fj7UFsTDj+ft5krkt6bhOW0ZGhKJQKdLpFdmdnoVQquZFfwvFX9pqPqaWtG8OKgfCwIK7fKEShUKB1ckSlMi3M+O//+iGRESE4Osrin2fh+f8NWAghhBBCCCGEEEII8VeldXLk9MmD5haxN2+XkpoUa64Kq6tvJjrKVPk5N79AR2cvjg72hIUGWizmH4qLDcfWzobcvELcXLWsX5do6ZD+ZCsGA8Wl93nr9ZdYWVnhPz/6mtiYcJQKBbdGxukbGOb4y3ssHeYLL3N9MiWl9/jw4wukJMeQkZZAQ2MrK4YVUlbnprZ39nLl29ukpsTS0dlHQ2Mbhw9st3DkjwsK9KXqXgNd3f0EBPjQ0dnL22+8TO71Ary9PRgdnyQ6OhSj0chHn17k1ZMHrWaup0ajJuh7Cdf822VkpCbg6qKls7ufO3fLsbOzJTDQF4xGDAYDAG0dPYyNT/HqiQOWCn0NlUpF9vbvZreXV9aye+cm4uMiMBqN/P4PZ9i0IRW9foXLV/Pp7O7H0cEeP18vDh/YjlKpZHhknI8+u8j/8Y/vWuwYwkMDCQr0RbewCMDk1MyaNs7lFXX4+HgQFhJAZ3c/t++UMTu3QGxMGDu3b7CK1tsO9nYvRJvgqIgQc1cGI6Z26IuLS9jb2TI7O09VdT2/ePUwo2OTlFfUMTu7QM61u+zdtZmoqFB+9c5xq1lk8rdAKmyFEOInkgpbIYQQQgghhBB/q1QqJS7OToDp5vuNWyWcPLYPtVq1Wn1bwPFX9tLbN8SXZ3NwcdHS0ztIS2sX0VGhlg3+e9xcnUmMjyIyPNhqWrv+KZQKBWmpcThrHZmYnKb+QSunThwgLDSQhYVF5uYW2L5lvaXDfOH9cG4kwK07ZWSkJ+Dt5Y5+ZYUPP7lAcJAf2Ts2Eh8bQUFRFQlxkY9VRVqaVutITHQ4SqUSRwc7yivr2J29ieTEGJaXlhkaHiVrYxr3ahp52NzB6NgE+bdLsbHR4OvjCZiuDRe/uUligmVbyDo6OhAXF45KpeLjzy7x8pFdZK5PxmgwcvFKPnt3b8bF2YkzZ3PYv2cLHh7W2RrdYDBQXHYfW1sNDxpbmZic5tD+7dy8Xcr4+BTv/fIE6zOS6BsYZlm/gqeHKw6O9sTHRlg8ma5SKs1ztBUoKC2vITTEn9nZea58e5uTx/YxMzPHp19cZu/uLezdlUVHRy89fYOEhQRYNPYXlQLTbPRLV/IZHZvkWl4hG9YnEx8XyYXLN0hPT2Df7s1kpCdia6Ph488umau9xbMhFbZCCCGEEEIIIYQQQoifzNVFy9+/d9p8M/5aXiGbs9KxtbXhwqU8QkMC2LA+BVsbDf/54dcsLi6ZtxV/OXarP1MPd1dCQ/z59IvLeLi70vCglbdeP2rh6P52RYQHUVndQIC/D+MTU3h7eZCUEM3nX14hNTmWBZ0OlZUlax9x1jqC1hGAtJR4ruTcYef2DcREhxETHcbi0jK37pbz+quH8fXxZGx8kv/66LypDS6muZlxsRGWPATANL/6EWdnJ7p7BnDWOtLV3U9EWCDhoYGUVdTi6qolMsJ65m7/UGJ8FIEBvgwOjlBT18Sxo3swAlXV9fz2/ddQqUzvo0dVuQ+bO2hu6eSlQzstGPXjoiJDUCgUlJTV0N3TT1pKHG6uzpy/dIOsTWlER5oqQDPSE/jyXA47t2VaOOIXV2REMF5e7vT1D7EuPQEPd1da2rqYmp5h4+pIA5VSyY1bpURHhaKUZO0zJQlbIYQQQgghhBBCCCHEz2K/2ipydm6eBd0iG9Yn09Xd/1wlp14kh/ZvZ1mvp7WtG6PRiI+3h6VD+pu1Lj2RwABfNBo1GrUapUpJdFQoERHBlFXUEh8XiVpl/edE9o4N1D9oIfd6AVkbUwnw9+FuYSUxUaHmitqRkXE83E3VqUPDY7S2d7N5Y5olw37M6RMHqK5p5NbdcqruPeDv3z/NwoKOgqIq3nnzlce21+tXmF/QmZLXVsDVRYurixZvbw/c3VxYXFrGuPr4962srHD9RhEvHc62TKA/IjIimMiIYJpaOs0VtKNjE2RtTDVvMzg4ipOTw4/ua2h4DECuc38iF2cnc8cMg8HAtbwiDuzbau460ds3RHdPP0cO7UCvXyH/dinNrV04OTmwe+emNQsixF+WJGyFEEIIIYQQQgghhBB/EidHB9596xjAc52cehFo1GriYsKJjQ6zdCh/8x4lNB0c7Fle1lNeWUdqcixZG1J/5JnWJTE+isR4U3vj8Ykp7tc28vfvvwaYEj03b5eyb/cWAHLzCklabYU8N7+Ana2NuQLUkuzsbMnakMrS0jKhIQF4uLuaYk2MwvMHrZCLy+5z7/4D3NxcWF7Wc/LYPquZY/poXritjYbgID8qq+vJSE/kUf1jaXkNvr6ehAb7W+1cWICY77XIDwr0pau7H18fT2Zm5sjLL+bA3q1rtl9e1tPU0oFCoSAmKgyVWsU3395i04ZUSdj+BSiUSg7u30b46rx5I5CbV8Du7E1o1GrOX8pjaWmZd98+xvy8jjNnv+VXbx8zL9oSf1kyw1YIIX4imWErhBBCCCGEEEI8nbOzE9X3H7C0tIyPlwehIQGErd4EFs+OzBu0HgogIT6S3r4hSsruExcT8dzOTlar1YSGBuDp4QZAWUUtC7pFdmxdT2NTO23tPRw+sB2FQsG589eYn19kZWUFrdbRKo5ZpVLh5ekOQEFxFcmJMWtm1za3dpFz7S6/euc469MTUSgUtLX3EGqF81Sjo8Kof9DCnYIK/P28UCgUXLh8g1PH9jP9HM2FDQsJpLSihoKiKkrL77MxM9XcXhtgZnaeP3xwloWFRRYXlygtr0GpVDA4OMbe3ZstGPmLQ4FptvsjdfVNDAyMsm/PFsYnpriRX8Iv3zqGnZ0tDg529PYNotFo8PJ0s1zQLzDF5PS80dJBCCHE88BFa2/pEIQQQgghhBBCCKu2rNdTUVVPV1cfJ4/tRy3tkIV44SwtLfOvv/uEX755DFdXLb/7ty84eiSbkCB/Wtu7uZpzh/Xrkhgfn2RoaIxfvXPc0iGvMb+gw2Aw4OT4Xfvdz85cwdfXk57eQeJjI3BwsGNgcJQ92Ztobetmbn6BuJhwbGysr6Dj8tVbODk6kL1jA+cv3cDLy42tWRmAqTL6y3M5/Pa90wBMT8/ivNoO11roFpfQaNSPVQGfu3AdD3cXdq7O6K2694BreYX88q1X8PP1skSoL7yp6VmWl/V4erjS3NpF9b0GTp88aP7+7/79C44c2olhxcCVnDvY29uyJzuLoEBfC0b94rD80hYhhBBCCCGEEEIIIcQLQaNWk7UhlddOHZJkrRAvKBsbDe/98iSeHq6UltXg5+tFSJD/6jzMQg4d2E7WhlQO7t9O/8Aw5ZV13CmoYGx8cs1++geGMRqffT2Zg73dmmQtgE63SEpSDG+9fhSFQsG1vEIS4iJpau7g+s0iZufm+fjzS8zNLzzzeH9Memo8WzanA6a5sFERIebvfX8ubF//MJ+e+YbeviGmpmcsEuuT2NnaPJasXVpapqW1k82b0s2PTU/PkJgQZU7Wzs7Os7S8/Nj+9PqVv27ALzAXZydzq3A/Xy9GxyZZXDL9jAuLq9Fo1AQF+FJaUcO2Let49fgBcvMKmJ2bt2TYLwxpiSyEED+RtEQWQgghhBBCCCGEEMI0GxZgcGiUzHVJ2NnZUl5Zx4Juke1b1gPQ0NjK+MQU6WnxqFVqvjqfS2ZGEiqVKTn34acXCQ8LxNHB8l3tlpf1ND5sJyY6jEB/HzLXJePi4sTQ8BgLC4vs37MFNzcXdIuLuDhrLR3uGs7OTuZ5wcMj4ywtLRMY4MPMzBxfX7zOjq2ZeHi4cvbrXHx9PFnW68m7WYy9vR3eXtY5B3ZpWU9ldQNbN2egUCiYnJrhas4dTh7fx/yCjs/OXKG5tYvK6gaUSqU5iTs/r+P3fzhDWkqcLBr6M9naaHB3c+Hs+VwqquqYmprh5PF92Nmazv36hmbS0+JJTIi2mlnPzztJ2AohxE8kCVshhBBCCCGEEEIIIb4T4O+DnZ0tKwYD5y5c5/jLe3Cwt0OvX+HM2W85ejiboEBf3NxdKCyqInNdEhqNmunpWbZtWWcVyVqAgAAfxscnuZFfgsFoIDDABwAvTzeq7j1Ao1YTHRmCi7OWltYuSstrGBwcxdvLHY1GbeHov/O0ubC19c309w9z+tQhggP9sLGxofFhG4nxUZYO+Yk0ajXjE5PUP2jFYDBw+245yckxRIYH88kXlwkI8OHEy3tJTYnjm29vk5Icg0qp5NqNIvx8vYiOCrX0IbwQ3N1dWJeeQHJSDJnrkpienkO/oic40I+29h5mZucJDvKzdJgvDGmJLIQQQgghhBBCCCGEEEKIP5lKqeS375/Gw93UTrWopJqgQD/zbMvKqnrCwoKwt7ejr3+YDz65gMEC7ZCfRgFkbUzj3bePkZGWwOjYJFdy7qBQKHjlyC6u3SgCoLjsPt9eu0toSACOjg58euaKVbXgVatVnDq2n3fefIV//F/fZtOGFJaX9dy8Vcr+vVtRrG7X+LCN8LAgi8b6Yw4f3ElGWjyzs/NMTs2wcX0yff1D6PUrqJRKzpzLYXJyGoPBgNFoZGh4jKaWDrZtWWfp0F8oSqUS+9WK+rn5Bb759jbLy3ri4yJ52Nxu4eheLNaz9EMIIYQQQgghhBBCCCGEEM8lO1sbAIxAZ1cfr7y0G4D5BR0FxVX88s1jAOReLyB7xwaUCgUGo5HZmTmcnBxQKq2nvszTwxWFAq7k3MbdzQWNRsXc/AJ3Cip4/92T5sS0u5sz+pUVjBjR6ZbQOjn8yJ6fjUevBUD1/QeEhQYQ4O8NmF6b4ZFxThzbZ6nwfhIFEBoSQEhIAHGxEahUKnS6Jbw83dm7ezNjqxXRri5abDQacq8XsHNbJrbfO3bxlxUWEoBOt8gHn1xgaWmJg/u2WTqkF4picnreepaxCCGEFXPRWkeLFiGEEEIIIYQQQgghnhdXcu6g0ajYt3sLtfXNVFTW8at3jtPe2cu3uXfx9HBlanqWIwd34u/nZelw12hp62JsbJL4uEgGBkcor6jlzV+8tGabwpJqSstrcHd1QaFUcPLYPpwcv0vcXr9RREJ8lDlh+qwZjUaWlvXY2mgwGI382398yc5tmcTGhFsknj/Hsl7Pv//nVxx/eS++Pp4A6PUrtLR2cbeokvffPYlCofiRvQhhnaxnyYoQQgghhBBCCCGEEEIIIV4odnY2bN+auaY178zsPF+ey2HXzo2cPnmQ0ycPkJdfbOlQHxMVEcLGzBSctY44ax2Zm1/g+xVwza1dVFTW83fvnuLdt4+xLj2BvJvfHUf/wAgNja14ebk9++BXKRQKbG00APT1D6HVOj6XyVowzbZ99cRBbt0t58NPL5raUSvg+s0i9u/d8liydmR0gvoHLYyMTlgoYiF+OtU//fO//DdLByGEEM8DO1uNpUMQQgghhBBCCCGEEOK5Eh4WhFqtorK6HrVaRea6JCqr6rC1tWFwaJSevkH8/bxpeNBCemo8Q8NjPGzqwN/PMhWpT6N1cmRkdILyyjrm5xcIDPAlN6+QDeuTCQ7yA0CjUVNaXsP6jCQAzp6/xpasdKs5FhdnJ5ISY3iea1AdHOxISogiNTkWpVJJZXUDK4YVNm9MW7NdYXE1OdcLcLC3o/JeA3r9isWqnIX4KWSGrRBCCCGEEEIIIYQQQggh/qoy1yWxtKwHQKdbIiTYn3XpibR39PDV17mkJMUAkJtXyNLSMs2tnQT6+7BlcwZKK2lze2DvVgaHRhkbn8QILCzo8PH2MH+/qbkDH29Tq966hmYMRgNJiTEWivbJrOMn+Zej0ahx1jqteWxwaJSSsvv8+pcncHN1xmAwkH+7DIDxiSnc3VwsEaoQf5S0RBZCCCGEEEIIIYQQQgghxF/V91vzxsdFcK+mkYUFHeFhQbz/q1NsWJ9MY1M7Ot0i7771CqeO7ae9s5e6+mbzPhofttPS2mWpQwDA18eThLhIFEBKUizllXXoFpdoaumkoKiKrZszWF7WcyO/lAN7t6IAevuGuHm7lGYLx/4iSkuJY++urDWPNTxoJTUlDjdXZwCUSiW7szcxMzvPf374NTOz85YIVYg/ShK2QgghhBBCCCGEEEIIIYR4Zvx8vdi+NZMvv87lau4dlAoFBqORvJvF7N+zBZVKhVpt+k+lUqLTLXLuwnVy8wrx8fG0dPhm6zMS8fH24MNPLlBeWctrrx7C28udwpJqQkP8CfD3AcDdzYXwsCDqG5q5mnvHwlG/eJRK5Q++VmBj8/h4uxv5xaxLT0Dr5ABAd88ACwu6ZxKjED9GErZCCCGEEEIIIYQQQgghhHimoiNDeOeNlzm0fzsApWU1+Pl6ERLsD5iqUkdGJoiNCcfOzpalpSUASsruYzAYLBb3D21Yn8xvfv0qb772EkEBvszMzlNZVc/unZsAGBgcYWhkDF8fT44c2kltXZOFI37xpaXGU1ffxIPGNsYnpgDo6x+is6uPLVkZAOgWlzh7PpfZOam2FdZBErZCCCGEEEIIIYQQQgghhLAoGxsNe1Zb2xqBnOsF7M7ehFqlort3gOGRcf7hN78gIjzosYpKazI6NoGLixNarSP3ax9yJecOA4MjXL9RxJmvvsV/tep2Wa/n+s1iC0f7YnJ10fLmL44yNDxKU3MnAIXF1Wzfuh6NRg3AnYJy4uMi8fJ0R7+yQlNzB41N7Szr9RaMXPwtU1s6ACGEEEIIIYQQQgghhBBC/G3LXJdk/v+a2ocolQqSEqIwGo3kXCtgz64sNBo1ocEBXL9RRHNrF05ODuzeuYnAAB8LRr5WWEgAr7y0G4C29m6yNqb+/+3d23NV5R2H8WftJOy9Q06Qw86BgKkh4SSJgoGCJcaKRZDBiaZW7Ui1tY5t/5x2pr3oTDtUbKd2xlIstNRMqCmgUqQIKhKSEMIhmEDMkWTvnXgRJyMXjk5H2Dk8n7t3vTffmXX5Xb/fYvXKShKJJL/89SvTd0eOvse5tk56rvWSm5PNzh0NBKkMPsfk5mTRUL9h+nz9xqcU5C8CoO96P++fOcfPX3qGgcFh9uzdR+Xd5UTCYY6+fZLnntlFenpaqqJrnrKwlSRJkiRJkiRJM0asKJ/HHn0QgI/bLpCelsbqlZUA7HujmfHxOC/sbmRk5CZ//PPf+fHuRqLRSAoT36qwYDEAmzbey/4DLXR0dnPjxgBlpTGWLS1lYHCYd46/z1NNj1JeVkzPtT7L2tts63c3sf9ACyXFhXRcuMSWzeuJRsLs299MWlqIuvVrWZSXQzyeoL3jIlXL72ISfC+6Y2bu3gBJkiRJkiRJkjTvlBQXEivKB2BwcIhFi3KBqSnJtvNdNO7aSmY0QkF+HqUlhXR2XU5l3C9VUlzIi8838XDDt0kkk9Mrnw+9eYS6+9eydEkJQRBQHCtIcdK5r/JbS/nZT59m5/YGChbnsX7dGhLJJB2d3ex67CEO/vMt3mw5Ru/1fiLRMIODw7zy6t9IJJNMTE6mOr7mAQtbSZIkSZIkSZI0I9XWrCQzM8LxE6fp7etnaXkJCxZkTN9f7eklKyszhQm/WiQS5kc/fJy83Gy6L/VwsfsKmzbWpjrWvJSensZzz+4iFASEgoCMjHRiRfk8/f0dLCmNEQRQvqSEQ81HGRwa5k+vHeD3f3idSab+rSzdLq5EliRJkiRJkiRJM1J6Whrbtj4AwODQCL19/YyNxwkvyKD1yAkyMtIpLytOccqvFgRTy3XjiQQ7ttWTkW49k2qhUIh7a1ax/8BhGuo3UF1VQXVVBd2XerjQdZmXX3yKSCRMIpHk7McddF28QsOWOjIyfHf65gX9AyN+FCBJX0NudjTVESRJkiRJkqR5re18F//4VysAkXCYJxsfITcnO8WpNJud/uAcH37UzqaNtZSWxvjt715jY10Na1YtByCZTPKr37xKUeFiEokkQRDwxONbiUTCKU6uucTCVpK+JgtbSZIkSZIkKfUmJiYYG48TtTDTN+zU6bMc/+8ZXtjdOP3sP8fe4/LlazQ1fg+Ag4dayVqYyQOb7ktVTM1Bzm1LkiRJkiRJkqRZIxQKWdbqtli2tIzSktj0eWh4hKPHTvKT55+cfhZekEE8HgemPh4YGh4la2GUUCh0x/Nq7rCwlSRJkiRJkiRJ0ryXm5N1y7m55W0KCxeTlzu1dntsbJyTpz7iB03bOd9+kb++0UxeTjY3x8bYub2B8iUz/3/KmpksbCVJkiRJkiRJkqQvuHL1E9rau1i14m4Ov/UuZaUxDre+S9Xyu8jKWsievftoemIbFcvK6P90kD179/GLl58lSHVwzUrOZ0uSJEmSJEmSJElfcPBQKw/Vb+CRhzcTCoU48b8PqLmnmu3b6jl1+izVVRVULCsDIC83m3g8zujozRSn1mzlhK0kSZIkSZIkSZL0uYnJSWruqaZm7QoC4Dub191yPzp6k1hR/vT5ytVPAIhGI3cypuYQJ2wlSZIkSZIkSZKkz4WCgPtqV33peuPVKys582EbA4PD9Fzr4y+vH+LBLXWuQ9b/LegfGJlMdQhJmg1ys6OpjiBJkiRJkiRJmgHaO7tp+fc7JJMT3L9uDbVrV6Q6kmaxzwDYv18NvnwkTwAAAABJRU5ErkJggg==;strokeWidth=2;imageBorder=default;" vertex="1" parent="1">
          <mxGeometry x="420" y="128.79999999999998" width="170" height="82.41" as="geometry" />
        </mxCell>
      </root>
    </mxGraphModel>
  </diagram>
</mxfile>
